<svg width="24" height="24" viewBox="0 0 24 24" fill="none" xmlns="http://www.w3.org/2000/svg">
<path d="M11 23V18.825L9.9 19.9L8.5 18.5L12 15L15.5 18.5L14.1 19.9L13 18.825V23H11ZM5.5 15.5L4.1 14.1L5.175 13H1V11H5.175L4.1 9.9L5.5 8.5L9 12L5.5 15.5ZM18.5 15.5L15 12L18.5 8.5L19.9 9.9L18.825 11H23V13H18.825L19.9 14.1L18.5 15.5ZM12 13.5C11.5833 13.5 11.2292 13.3542 10.9375 13.0625C10.6458 12.7708 10.5 12.4167 10.5 12C10.5 11.5833 10.6458 11.2292 10.9375 10.9375C11.2292 10.6458 11.5833 10.5 12 10.5C12.4167 10.5 12.7708 10.6458 13.0625 10.9375C13.3542 11.2292 13.5 11.5833 13.5 12C13.5 12.4167 13.3542 12.7708 13.0625 13.0625C12.7708 13.3542 12.4167 13.5 12 13.5ZM12 9L8.5 5.5L9.9 4.1L11 5.175V1H13V5.175L14.1 4.1L15.5 5.5L12 9Z" fill="white"/>
</svg>
