<svg width="24" height="24" viewBox="0 0 24 24" fill="none" xmlns="http://www.w3.org/2000/svg">
<g clip-path="url(#clip0_45_3688)">
<path d="M10.55 21.9C10.8 22.03 11.05 22.05 11.31 21.96C11.57 21.87 11.76 21.7 11.9 21.45L13.4 18.45C13.53 18.2 13.55 17.95 13.46 17.69C13.37 17.43 13.2 17.24 12.95 17.1C12.7 16.96 12.45 16.95 12.19 17.04C11.93 17.13 11.74 17.3 11.6 17.55L10.1 20.55C9.97 20.8 9.95 21.05 10.04 21.31C10.13 21.57 10.3 21.76 10.55 21.9ZM4.55 21.9C4.8 22.03 5.05 22.05 5.31 21.96C5.57 21.87 5.76 21.7 5.9 21.45L7.4 18.45C7.53 18.2 7.55 17.95 7.46 17.69C7.37 17.43 7.2 17.24 6.95 17.1C6.7 16.96 6.45 16.95 6.19 17.04C5.93 17.13 5.74 17.3 5.6 17.55L4.1 20.55C3.97 20.8 3.95 21.05 4.04 21.31C4.13 21.57 4.3 21.76 4.55 21.9ZM16.55 21.9C16.8 22.03 17.05 22.05 17.31 21.96C17.57 21.87 17.76 21.7 17.9 21.45L19.4 18.45C19.53 18.2 19.55 17.95 19.46 17.69C19.37 17.43 19.2 17.24 18.95 17.1C18.7 16.96 18.45 16.95 18.19 17.04C17.93 17.13 17.74 17.3 17.6 17.55L16.1 20.55C15.97 20.8 15.95 21.05 16.04 21.31C16.13 21.57 16.3 21.76 16.55 21.9ZM7.5 16C5.98 16 4.69 15.46 3.61 14.39C2.53 13.32 2 12.02 2 10.5C2 9.12 2.46 7.91 3.38 6.87C4.3 5.84 5.43 5.23 6.78 5.04C7.31 4.09 8.04 3.34 8.97 2.8C9.9 2.26 10.91 1.99 12.01 1.99C13.51 1.99 14.81 2.47 15.92 3.43C17.03 4.39 17.7 5.58 17.93 7.02C19.08 7.12 20.05 7.6 20.83 8.45C21.61 9.3 22.01 10.32 22.01 11.5C22.01 12.75 21.57 13.81 20.7 14.69C19.83 15.57 18.76 16 17.51 16H7.5Z" fill="white"/>
</g>
<defs>
<clipPath id="clip0_45_3688">
<rect width="20" height="20.02" fill="white" transform="translate(2 2)"/>
</clipPath>
</defs>
</svg>
