<svg width="24" height="24" viewBox="0 0 24 24" fill="none" xmlns="http://www.w3.org/2000/svg">
<ellipse cx="2.15483" cy="2.91536" rx="2.15483" ry="2.91536" transform="matrix(0.71739 0.696671 -0.71739 0.696671 11.475 2)" fill="white"/>
<ellipse cx="2.12326" cy="2.95746" rx="2.12326" ry="2.95746" transform="matrix(-0.0615963 0.998101 -0.998311 -0.0581019 21.2734 5.38003)" fill="white"/>
<ellipse cx="2.12326" cy="2.95746" rx="2.12326" ry="2.95746" transform="matrix(-0.0615963 0.998101 -0.998311 -0.0581019 18.3098 17.7615)" fill="white"/>
<ellipse cx="2.158" cy="2.91107" rx="2.158" ry="2.91107" transform="matrix(0.751462 0.659776 -0.681401 0.73191 18.7566 10.1372)" fill="white"/>
<ellipse cx="2.18613" cy="2.87239" rx="2.18613" ry="2.87239" transform="matrix(0.99972 -0.0236438 0.0250702 0.999686 9.49727 9.38404)" fill="white"/>
<ellipse cx="2.1559" cy="2.91392" rx="2.1559" ry="2.91392" transform="matrix(0.729015 -0.684497 0.705551 0.708659 3.32305 16.9431)" fill="white"/>
<ellipse cx="2.1559" cy="2.91392" rx="2.1559" ry="2.91392" transform="matrix(0.729015 -0.684497 0.705551 0.708659 2 9.66243)" fill="white"/>
</svg>
