<svg width="102" height="182" viewBox="0 0 102 182" fill="none" xmlns="http://www.w3.org/2000/svg">
<g clip-path="url(#clip0_99_3780)">
<path d="M51 9.51999V0.539993C24.12 26.75 1 69.72 1 115.26C1 156.67 23.38 179.68 51 179.68V9.51999Z" fill="#A7FF00"/>
<path opacity="0.8" d="M51 10.38V1.39999C77.88 27.61 101 70.58 101 116.12C101 157.53 78.62 180.54 51 180.54V10.38Z" fill="#A7FF00"/>
<path d="M51 1.39999C24.12 27.61 1 70.58 1 116.12C1 157.53 23.38 180.54 51 180.54C78.62 180.54 101 157.53 101 116.12C101 70.58 77.88 27.61 51 1.39999Z" stroke="#587B15" stroke-width="2" stroke-miterlimit="10"/>
<path opacity="0.32" d="M51 1.39999V180.54" stroke="#431F17" stroke-miterlimit="10"/>
<path d="M34.366 100.77H40.99L51.022 127.122L61.006 100.77H67.63L54.718 134.37H47.278L34.366 100.77Z" fill="black"/>
</g>
<defs>
<clipPath id="clip0_99_3780">
<rect width="102" height="181.54" fill="white"/>
</clipPath>
</defs>
</svg>
