<svg width="85" height="85" viewBox="0 0 85 85" fill="none" xmlns="http://www.w3.org/2000/svg">
<g clip-path="url(#clip0_99_3746)">
<path d="M42.5 84.5C65.696 84.5 84.5 65.696 84.5 42.5C84.5 19.304 65.696 0.5 42.5 0.5C19.304 0.5 0.5 19.304 0.5 42.5C0.5 65.696 19.304 84.5 42.5 84.5Z" fill="#000644"/>
<path d="M42.5 84.5C65.696 84.5 84.5 65.696 84.5 42.5C84.5 19.304 65.696 0.5 42.5 0.5C19.304 0.5 0.5 19.304 0.5 42.5C0.5 65.696 19.304 84.5 42.5 84.5Z" stroke="#587B15" stroke-miterlimit="10"/>
<path d="M32.32 56V28H44.96C49.84 28 52.84 31.2 52.84 35.28C52.84 37.88 51.72 40.08 49.8 41.24C52.36 42.56 53.92 45.04 53.92 48.08C53.92 52.64 50.64 56 45.68 56H32.32ZM37.32 39.32L44.32 39.36C46.72 39.36 48.04 38 48.04 35.88C48.04 34 46.68 32.68 44.28 32.68H37.32V39.32ZM37.32 51.32H44.68C47.24 51.32 48.72 49.8 48.72 47.6C48.72 45.4 47.24 43.88 44.68 43.88H37.32V51.32Z" fill="white"/>
</g>
<defs>
<clipPath id="clip0_99_3746">
<rect width="85" height="85" fill="white"/>
</clipPath>
</defs>
</svg>
