<svg width="102" height="182" viewBox="0 0 102 182" fill="none" xmlns="http://www.w3.org/2000/svg">
<g clip-path="url(#clip0_99_3762)">
<path d="M51 172.02V181C77.88 154.79 101 111.82 101 66.28C101 24.87 78.62 1.86 51 1.86V172.02Z" fill="#A7FF00"/>
<path opacity="0.8" d="M51 171.16V180.14C24.12 153.93 1 110.96 1 65.42C1 24.01 23.38 1 51 1V171.16Z" fill="#A7FF00"/>
<path d="M51 180.14C77.88 153.93 101 110.96 101 65.42C101 24.01 78.62 1 51 1C23.38 1 1 24.01 1 65.42C1 110.96 24.12 153.93 51 180.14Z" stroke="#587B15" stroke-width="2" stroke-miterlimit="10"/>
<path opacity="0.32" d="M51 180.14V1" stroke="#431F17" stroke-miterlimit="10"/>
<path d="M40.064 83.48V49.88H63.824V55.64H46.064V63.416H61.856V69.176H46.064V77.72H63.824V83.48H40.064Z" fill="black"/>
</g>
<defs>
<clipPath id="clip0_99_3762">
<rect width="102" height="181.54" fill="white"/>
</clipPath>
</defs>
</svg>
