<svg width="182" height="102" viewBox="0 0 182 102" fill="none" xmlns="http://www.w3.org/2000/svg">
<g clip-path="url(#clip0_99_3753)">
<path d="M9.52001 51H0.540009C26.75 77.88 69.72 101 115.26 101C156.67 101 179.68 78.62 179.68 51H9.52001Z" fill="#A7FF00"/>
<path opacity="0.8" d="M10.38 51H1.39999C27.61 24.12 70.58 1 116.12 1C157.53 1 180.54 23.38 180.54 51H10.38Z" fill="#A7FF00"/>
<path d="M1.39999 51C27.61 77.88 70.58 101 116.12 101C157.53 101 180.54 78.62 180.54 51C180.54 23.38 157.53 1 116.12 1C70.58 1 27.61 24.12 1.39999 51Z" stroke="#587B15" stroke-width="2" stroke-miterlimit="10"/>
<path opacity="0.32" d="M1.39999 51H180.54" stroke="#431F17" stroke-miterlimit="10"/>
<path d="M101.894 67.67V34.07H114.47C123.734 33.926 130.694 41.606 130.55 50.918C130.694 60.182 123.734 67.862 114.47 67.67H101.894ZM107.894 61.67H114.422C120.182 61.67 124.358 57.11 124.358 50.918C124.358 44.726 120.182 40.07 114.422 40.07H107.894V61.67Z" fill="black"/>
</g>
<defs>
<clipPath id="clip0_99_3753">
<rect width="181.54" height="102" fill="white"/>
</clipPath>
</defs>
</svg>
