<svg width="182" height="102" viewBox="0 0 182 102" fill="none" xmlns="http://www.w3.org/2000/svg">
<g clip-path="url(#clip0_99_3771)">
<path d="M172.02 51H181C154.79 24.12 111.82 1 66.28 1C24.87 1 1.85999 23.38 1.85999 51H172.02Z" fill="#A7FF00"/>
<path opacity="0.8" d="M171.16 51H180.14C153.93 77.88 110.96 101 65.42 101C24.01 101 1 78.62 1 51H171.16Z" fill="#A7FF00"/>
<path d="M180.14 51C153.93 24.12 110.96 1 65.42 1C24.01 1 1 23.38 1 51C1 78.62 24.01 101 65.42 101C110.96 101 153.93 77.88 180.14 51Z" stroke="#587B15" stroke-width="2" stroke-miterlimit="10"/>
<path opacity="0.32" d="M180.14 51H1" stroke="#431F17" stroke-miterlimit="10"/>
<path d="M50.806 35.88H56.95L63.094 60.456L69.526 35.88H76.006L82.438 60.6L88.582 35.88H94.726L86.086 69.48H78.838L72.742 45.72L66.646 69.48H59.446L50.806 35.88Z" fill="black"/>
</g>
<defs>
<clipPath id="clip0_99_3771">
<rect width="181.54" height="102" fill="white"/>
</clipPath>
</defs>
</svg>
