<svg width="226" height="247" viewBox="0 0 226 247" fill="none" xmlns="http://www.w3.org/2000/svg">
<path d="M212.34 225.31C212.34 225.31 213.55 214.9 199.57 206.68C199.57 206.68 191.86 174.98 157.48 184.88C157.48 184.88 149.97 165.58 126.12 169.41L126.02 146.28H126.87C126.87 146.28 130.61 147.58 145.24 145.19C159.86 142.8 167.53 129.35 170.14 123.77C172.75 118.2 174.14 104.53 173.71 99.83C173.27 95.13 165.18 95.04 165.18 95.04C138.37 92.17 126.7 105.7 126.7 105.7L125.85 106.65C125.85 106.65 117.36 85 137.9 68.56C139.853 70.58 140.83 71.5933 140.83 71.6C140.83 71.6 151.34 80.65 165.93 72.77C180.52 64.89 196.86 46.94 201.83 6.09C201.83 6.09 202.41 0.720003 195.7 0.0500029C188.99 -0.619997 148.86 6.38 129.89 34.54C129.89 34.54 119.64 49.63 130.23 60.62C130.23 60.62 111.64 76.24 113.94 94.38C113.94 94.38 104.49 87.75 98.94 86.37L102.31 81.08C102.31 81.08 106.79 72.43 104.4 62.58C102.01 52.73 89.48 12.6 6.84 2.01C6.84 2.01 2.9 1.98 1.13 4.37C1.13 4.37 0 5.59 0 10.07C0 14.55 16.61 124.56 78.45 104.35C88.41 101.09 89.77 95.24 89.77 95.24C89.77 95.24 110.78 100.9 115.99 111.04V169.68C115.99 169.68 91.05 164.65 71.87 181.69C71.87 181.69 31.04 173.52 31.59 217.36C31.59 217.36 20.08 224.21 15.97 239.83C15.97 239.83 14.87 244.24 20.63 246.01C26.38 247.78 219.86 246.01 219.86 246.01C219.86 246.01 224.79 245.31 225.34 241.47C225.89 237.63 220.46 229.14 212.35 225.3L212.34 225.31Z" fill="white"/>
</svg>
