<?xml version="1.0" encoding="UTF-8"?><svg id="Layer_1" xmlns="http://www.w3.org/2000/svg" viewBox="0 0 160 50"><defs><style>.cls-1{fill:#a7ff00;fill-rule:evenodd;stroke-width:0px;}</style></defs><path class="cls-1" d="M41.22,41.49v-1.94c-1.48,1.6-3.6,2.65-6.3,2.65-4.95,0-7.87-3.54-7.87-9.16v-14.63h6.48v13.45c0,2.93,1.16,4.44,3.56,4.44s4.12-1.94,4.12-5.29v-12.6h6.48v23.09h-6.46Z"/><path class="cls-1" d="M62.3,32.99l5.74-14.59h6.71l-9.11,23.09h-6.71l-9.07-23.09h6.71l5.73,14.59Z"/><path class="cls-1" d="M111.32,17.68c-2.51,0-4.4.99-5.7,2.65v-1.94h-6.48v23.09h6.48v-12.32c0-3.83,1.44-5.43,3.28-5.43,1.73,0,2.61,1.14,2.64,3.5h6.34c.06-6.95-2.54-9.55-6.57-9.55Z"/><path class="cls-1" d="M150.31,17.67c-5.14,0-9.63,3.02-9.35,8.79h5.8c.13-2.11,1.41-3.45,3.69-3.45s3.47,1.27,3.47,2.84v.81l-4.35.81c-5.64.99-8.7,3.3-8.7,7.83,0,3.3,2.55,6.89,7.63,6.89,2.87,0,4.67-1.55,5.47-2.97v2.27h6.02v-15.46c-.01-4.96-3.34-8.36-9.69-8.36ZM153.93,32.12c0,2.84-1.71,4.57-4.16,4.57-1.67,0-2.78-.9-2.78-2.21,0-1.75,1.57-2.36,3.43-2.74l3.52-.66v1.03Z"/><path class="cls-1" d="M85.8,36.55c-2.96,0-5.08-1.79-5.74-4.96h15.74v-2.54c0-6.65-4.03-11.33-10.32-11.33-6.86,0-11.34,5.34-11.34,12.27s4.59,12.18,11.58,12.18c5.32,0,9.77-3.35,10.55-8.31h-6.15c-.76,1.69-2.32,2.69-4.31,2.69ZM85.48,23.15c2.83,0,4.63,1.84,4.72,3.92h-9.99c.79-2.45,2.73-3.92,5.28-3.92Z"/><path class="cls-1" d="M138.64,32.87h-6.11c0,2.21-1.07,3.39-2.68,3.39s-2.64-.99-2.64-2.78v-9.45h8.38v-5.67h-8.38v-6.47h-6.48v21.3c0,5.53,3.47,8.97,9.44,8.97,5.01,0,8.75-3.54,8.47-9.3Z"/><path class="cls-1" d="M15.2,21.56l7.78-13.14h7.41l-11.94,19.99v13.09h-6.49v-13.09L0,8.42h7.27l7.93,13.14Z"/></svg>