<?xml version="1.0" encoding="UTF-8"?><svg id="Layer_1" xmlns="http://www.w3.org/2000/svg" viewBox="0 0 187 176"><defs><style>.cls-1{fill:#a7ff00;}.cls-1,.cls-2{stroke-width:0px;}.cls-2{fill:#b2b7b8;}</style></defs><path class="cls-1" d="M104.76,21.31c.48-2.24,1.57-4.3,3.15-5.96-.24.58-.43,1.18-.56,1.8-.59,2.7-.09,5.52,1.39,7.86.12.21.23.36.33.5l.11.15c1.16,1.59,2.72,2.75,5.55,4.61.6.39,1.08.94,1.39,1.59.1.19.17.39.2.6v.14c.02.23.02.47,0,.7,0,.23-.03.46-.08.68-.05.25-.14.5-.26.72-.16.28-.34.54-.55.79-.2.23-.44.4-.72.51-.28.11-.58.15-.88.12-3.13-.82-5.83-2.83-7.52-5.59-1.69-2.76-2.25-6.08-1.55-9.24h0ZM113.37,13.76c-.09.51-.11,1.03-.08,1.55.03.48.1.95.22,1.42l.07.21c.14.48.35.94.61,1.37.69,1.12,1.68,2.04,2.84,2.65,2.57,1.35,3.97,2.19,4.89,3.2l.11.12c.07.09.14.15.24.3.63.79,1.07,1.71,1.3,2.7.23.98.23,2.01.02,3-.11.54-.29,1.07-.55,1.56-.72,1.5-1.96,2.7-3.49,3.37.06-.16.1-.33.13-.49.09-.42.14-.84.16-1.27.02-.48,0-.97-.08-1.45l-.05-.22c-.1-.5-.26-.98-.48-1.44-.6-1.2-1.5-2.22-2.61-2.96-1.75-.98-3.32-2.24-4.65-3.73l-.09-.14-.22-.32c-.99-1.57-1.33-3.46-.94-5.28.17-.78.47-1.52.89-2.19.46-.75,1.05-1.41,1.76-1.94h0ZM116.98,13.66c.23-.51.61-.94,1.08-1.24.48-.29,1.03-.44,1.59-.41,1.12.08,2.21.39,3.2.92,2.22,1.19,4.04,3.02,5.21,5.26,1.17,2.23,1.65,4.77,1.37,7.27-.06.42-.14.85-.24,1.26-.41,1.9-1.26,3.68-2.48,5.2.09-.29.16-.58.23-.88.33-1.48.33-3.02-.01-4.5s-1-2.87-1.94-4.06l-.37-.45-.12-.14c-1.29-1.44-2.93-2.42-5.88-3.98-.62-.33-1.14-.81-1.51-1.4-.1-.18-.18-.36-.24-.56v-.14c-.06-.22-.09-.44-.1-.67-.02-.33,0-.66.08-.98.02-.17.06-.34.13-.5h0ZM113.26,39.54c.61.15,1.24.27,1.86.34,3.94.48,7.93-.53,11.16-2.83,3.24-2.3,5.5-5.74,6.33-9.62.11-.5.2-1.03.26-1.56.43-3.58-.36-7.2-2.25-10.27-1.89-3.07-4.77-5.4-8.17-6.62l-.21-.08c-1.98-.69-4.07-.99-6.17-.88-2.09.12-4.14.64-6.03,1.55-1.89.91-3.58,2.18-4.98,3.74-1.4,1.56-2.47,3.39-3.17,5.37-.22.62-.4,1.25-.54,1.89-.11.52-.2,1.1-.26,1.56-.44,3.78.48,7.6,2.6,10.76,2.12,3.16,5.29,5.47,8.95,6.51v.09l.6.05Z"/><path class="cls-2" d="M172.74,9.55c.11.24.29.43.51.57.22.14.48.2.74.2.26,0,.51-.09.73-.24.21-.15.38-.36.47-.6.09-.24.11-.51.05-.76-.06-.25-.19-.48-.38-.66-.19-.18-.43-.3-.68-.34-.26-.05-.52-.01-.76.09-.16.07-.31.17-.43.3-.12.13-.22.28-.28.44-.06.16-.09.34-.09.51,0,.17.05.35.12.51h0ZM177.94,17.71c.58-.25,1.07-.67,1.4-1.2.33-.53.5-1.15.47-1.77-.02-.63-.22-1.23-.59-1.74-.37-.51-.88-.9-1.47-1.12l-.68-.26c-.39.46-.88.83-1.44,1.08-.55.25-1.16.37-1.77.36l-.23.65c-.23.59-.28,1.23-.14,1.84s.46,1.17.92,1.6c.46.43,1.04.71,1.67.81.63.1,1.27.01,1.84-.25h0ZM170.86,6.4c.39-.46.87-.83,1.42-1.08.55-.25,1.15-.37,1.75-.36l.26-.65c.23-.59.27-1.23.13-1.84-.14-.61-.46-1.17-.92-1.6-.46-.43-1.04-.72-1.66-.82-.62-.11-1.26-.03-1.84.23-.58.26-1.07.68-1.4,1.21-.34.53-.51,1.15-.49,1.78s.22,1.24.59,1.75c.37.51.88.91,1.47,1.13l.7.26ZM178.67,9.34c.38.16.79.24,1.21.24s.83-.08,1.21-.24c.39-.17.75-.42,1.04-.72.43-.46.72-1.03.82-1.66.1-.62.01-1.26-.25-1.83-.25-.57-.67-1.06-1.21-1.39-.53-.33-1.16-.5-1.79-.47-.43.03-.85.12-1.25.28-.76.35-1.35.98-1.64,1.76l-.26.67c.46.39.83.88,1.09,1.43.25.55.38,1.15.37,1.75l.65.18ZM168.26,14.82c.43-.03.85-.12,1.25-.28.76-.35,1.35-.98,1.64-1.76l.26-.67c-.46-.39-.83-.88-1.09-1.43-.25-.55-.38-1.15-.37-1.75l-.65-.23c-.38-.16-.79-.24-1.21-.24s-.83.08-1.21.24c-.39.18-.75.43-1.04.75-.42.46-.7,1.03-.8,1.64-.1.61-.01,1.24.24,1.81.26.57.68,1.04,1.21,1.38.53.33,1.15.5,1.77.49v.05Z"/><path class="cls-1" d="M143.42,24.11c-.57.12-1.09.4-1.49.82-.41.41-.68.94-.79,1.51-.11.57-.04,1.16.19,1.69.23.53.61.99,1.1,1.3s1.06.48,1.63.47c.58,0,1.14-.19,1.62-.51.48-.33.85-.79,1.06-1.33.21-.54.26-1.13.14-1.7-.08-.38-.23-.73-.45-1.05-.22-.32-.5-.59-.82-.8-.32-.21-.68-.35-1.06-.42-.38-.07-.77-.06-1.14.02h0ZM143,22.09l.4-.09.22.75c.8-.08,1.61.09,2.32.47l.47-.62.34.24.35.22-.38.67c.63.52,1.1,1.21,1.35,1.99l.75-.11.08.4.09.4-.75.2c.07.8-.09,1.61-.47,2.33l.62.47-.23.34-.21.35-.7-.39c-.51.63-1.19,1.1-1.96,1.34l.11.77-.42.08-.39.09-.22-.77c-.8.07-1.61-.09-2.32-.47l-.47.63-.34-.23-.35-.22.39-.7c-.62-.5-1.08-1.17-1.34-1.92l-.78.11-.07-.42-.09-.39.75-.22c-.08-.8.08-1.61.44-2.33l-.63-.48.24-.34.22-.35.67.39c.53-.63,1.22-1.09,2-1.34l-.11-.75.42-.12ZM143.69,25.39c.31-.07.64-.04.94.08.3.12.56.32.74.59.18.27.28.58.29.9,0,.32-.09.64-.27.91-.18.27-.43.48-.73.61-.3.13-.62.16-.94.1-.32-.06-.61-.22-.84-.44-.23-.23-.39-.52-.45-.83-.04-.21-.04-.42,0-.63.04-.21.12-.41.24-.58.12-.18.27-.33.44-.45.18-.12.37-.2.58-.25h0Z"/><path class="cls-1" d="M153,27.62c.2-.1.42-.18.65-.23.28-1.27,1.06-2.4,2.2-3.17,1.14-.77,2.55-1.13,3.96-1.01.17.01.33.08.44.19.12.11.18.26.19.41,0,.06,0,.13,0,.19-.26,1.32-1.02,2.52-2.16,3.37-1.13.85-2.56,1.31-4.03,1.28h0c-.14-.01-.29.01-.42.06-.13.05-.25.14-.33.24.54,1.16,1.55,2.1,2.82,2.61,1.26.51,2.7.57,4,.15,1.31-.41,2.4-1.27,3.04-2.39.65-1.12.81-2.42.45-3.64-.36-1.22-1.22-2.27-2.39-2.94-1.18-.67-2.58-.9-3.94-.66-1.36.24-2.57.95-3.38,1.98-.81,1.03-1.17,2.29-1,3.55h-.1ZM155.13,27.28c.26-.74.74-1.39,1.39-1.88.65-.49,1.44-.8,2.28-.9-.29.71-.79,1.34-1.43,1.82-.65.48-1.42.8-2.24.92v.04Z"/><path class="cls-1" d="M181.98,23.5c-.11.1-.18.22-.22.35-.03.13-.02.27.04.4.06.13.16.23.29.31.13.08.28.12.43.12s.3-.04.43-.12c.13-.08.23-.18.29-.31.06-.13.07-.26.04-.4-.03-.13-.11-.26-.22-.35-.14-.13-.34-.2-.54-.2s-.4.07-.54.2h0ZM178.51,27.35c.25.23.57.39.92.46.35.07.72.05,1.06-.07.34-.11.63-.31.84-.57.21-.26.33-.57.34-.89v-.37c-.33-.11-.63-.29-.87-.52-.24-.23-.42-.5-.52-.8h-.4c-.36,0-.72.08-1.02.25s-.55.42-.7.71c-.15.29-.19.62-.14.93.06.32.22.61.47.84v.03ZM183.35,22.08c.33.11.62.29.86.52.24.23.42.5.52.8h.4c.36.01.72-.07,1.03-.24.31-.17.55-.42.68-.72.11-.22.16-.45.15-.69,0-.24-.08-.47-.2-.68-.12-.21-.29-.39-.5-.54-.21-.14-.45-.25-.71-.3-.26-.05-.53-.05-.79,0-.26.05-.51.15-.72.29-.21.14-.39.33-.51.54-.12.21-.19.44-.2.68v.34ZM183.23,26.33c-.01.21.03.42.11.62.09.2.22.38.38.53.17.16.37.29.6.38.33.13.7.18,1.05.12.36-.05.69-.2.95-.42.26-.22.44-.51.52-.82.08-.31.05-.64-.09-.94-.09-.2-.22-.39-.39-.55-.16-.15-.36-.27-.58-.36-.22-.08-.45-.13-.69-.13h-.42c-.12.29-.32.55-.58.77-.26.21-.57.37-.91.46l.03.34ZM178.24,22.2c.09.2.22.39.39.55.16.15.36.27.58.36.22.08.45.13.69.13h.42c.12-.29.32-.55.58-.77.26-.21.57-.37.91-.46v-.36c0-.21-.03-.42-.12-.62-.08-.2-.21-.38-.38-.53-.16-.16-.37-.29-.6-.37-.33-.13-.69-.17-1.05-.12-.36.05-.68.2-.95.42-.26.22-.44.5-.52.81-.08.31-.05.64.08.93h-.03Z"/><path class="cls-1" d="M86.09,53.33c-.16-.46-.23-.95-.19-1.44.03-.47.16-.93.37-1.34.21-.42.51-.79.87-1.09l.62-.53c.6.33,1.26.53,1.94.58.68.05,1.36-.06,2-.3l.53.62c.31.35.55.76.7,1.2.15.44.21.91.18,1.38-.02.5-.15.99-.37,1.44-.32.64-.82,1.16-1.44,1.52-.62.35-1.33.51-2.04.46-.71-.05-1.39-.31-1.95-.75s-.98-1.03-1.21-1.71v-.03ZM94.57,47.8l-.53-.6c.34-.6.54-1.26.59-1.94.04-.69-.06-1.37-.3-2.02l.6-.53c.54-.47,1.21-.77,1.91-.86.71-.09,1.43.03,2.07.35.64.32,1.17.82,1.52,1.44.35.62.52,1.33.47,2.05-.05.71-.31,1.4-.75,1.96-.44.56-1.03.99-1.71,1.21-.68.23-1.41.25-2.1.06-.69-.19-1.31-.58-1.77-1.12h0ZM90.12,43.48c.3.02.58.13.82.31.24.18.41.43.51.71.1.28.11.59.03.87-.08.29-.23.55-.46.75-.22.2-.5.33-.79.37-.29.04-.59,0-.86-.13-.27-.13-.49-.33-.65-.59-.15-.26-.23-.55-.21-.85,0-.21.05-.41.13-.6.08-.19.2-.36.35-.5.15-.14.33-.25.52-.32.19-.07.4-.1.61-.09v.07ZM81.13,47.71c-.48-.23-.91-.57-1.25-.99-.34-.42-.58-.91-.7-1.43-.12-.52-.13-1.07-.02-1.59.11-.53.34-1.02.67-1.45.33-.43.75-.77,1.23-1.02.48-.24,1.01-.38,1.54-.39.54-.01,1.07.09,1.56.31.49.22.93.55,1.27.95l.53.6c-.34.6-.54,1.26-.59,1.94-.04.69.06,1.37.3,2.02l-.6.53c-.54.46-1.21.74-1.91.82-.7.08-1.42-.06-2.04-.38v.07ZM88.32,40.69l-.53-.6c-.31-.35-.55-.76-.7-1.21-.15-.44-.21-.92-.18-1.38.03-.5.15-.99.37-1.44.32-.64.82-1.16,1.44-1.52s1.33-.51,2.04-.46c.71.05,1.39.31,1.95.75.56.44.98,1.03,1.21,1.71.23.68.26,1.41.07,2.1-.19.69-.58,1.31-1.12,1.77l-.6.53c-.6-.34-1.26-.54-1.94-.59-.68-.05-1.36.04-2,.27v.07ZM95.52,55.27c.4-.8.64-1.67.7-2.56.01-.18.01-.36,0-.55,1.07.16,2.17.06,3.19-.29,1.26-.42,2.36-1.2,3.18-2.25.81-1.05,1.3-2.31,1.39-3.64.09-1.32-.21-2.65-.86-3.8-.66-1.15-1.64-2.08-2.83-2.68-.97-.48-2.04-.73-3.12-.72v-.55c.12-1.55-.3-3.1-1.19-4.38-.89-1.28-2.2-2.2-3.7-2.62-1.5-.42-3.1-.3-4.52.34-1.42.64-2.58,1.75-3.27,3.14-.4.8-.64,1.67-.7,2.56-.01.19-.01.37,0,.56-1.07-.17-2.17-.07-3.19.27-1.26.42-2.36,1.2-3.18,2.25-.81,1.05-1.3,2.31-1.39,3.64-.09,1.32.21,2.65.86,3.8.66,1.15,1.64,2.08,2.83,2.68.97.49,2.04.73,3.12.72v.55c-.12,1.55.3,3.1,1.19,4.38.89,1.28,2.2,2.2,3.7,2.62,1.5.42,3.1.3,4.52-.34,1.42-.64,2.58-1.75,3.27-3.14h0Z"/><path class="cls-1" d="M139.64,38c-.35.9-.57,1.93-.64,3,.31-.52.64-.98,1-1.39l-.36-1.61Z"/><path class="cls-1" d="M142.75,38.32c.41-.2.83-.36,1.25-.5l-.53-1.82c-.9.05-1.76.46-2.47,1.18l.54,1.82c.39-.26.79-.48,1.21-.68h0Z"/><path class="cls-1" d="M145,36l.64,2c.79-.09,1.58-.09,2.36,0-.85-.94-1.88-1.62-3-2h0Z"/><path class="cls-1" d="M139.02,43.36c.13.34,1.15.75,2.98.61l-1.14-2.97c-1.46,1.02-1.98,2.03-1.84,2.36Z"/><path class="cls-1" d="M140,45.03c.85.46,1.88.79,3,.97l-.64-1c-.78.06-1.58.07-2.36.03h0Z"/><path class="cls-1" d="M144.86,39c-1,.22-1.96.57-2.86,1.03l1.16,2.97c.5-.11.99-.25,1.47-.42.47-.17.93-.37,1.37-.61l-1.14-2.97Z"/><path class="cls-1" d="M147,45.82l-.55-1.82c-.39.26-.78.48-1.19.68-.41.2-.83.36-1.26.5l.54,1.82c.9-.06,1.76-.47,2.46-1.18h0Z"/><path class="cls-1" d="M148.98,39.64c-.13-.34-1.15-.75-2.98-.61l1.14,2.97c1.46-1.07,1.98-2.03,1.84-2.36Z"/><path class="cls-1" d="M148.36,44c.35-.6.57-1.29.64-2-.31.34-.64.66-1,.93l.36,1.07Z"/><path class="cls-1" d="M159.19,47c-.12-.2-.2-.42-.24-.65-1.4-.27-2.65-1.06-3.51-2.19-.85-1.14-1.25-2.55-1.12-3.96.01-.17.08-.33.21-.45.12-.12.29-.19.46-.2h.21c1.46.25,2.78,1.01,3.72,2.15.94,1.13,1.44,2.57,1.41,4.04-.01.14,0,.29.07.42s.15.25.26.33c1.28-.54,2.31-1.55,2.87-2.81.56-1.26.62-2.69.17-4-.46-1.31-1.39-2.39-2.62-3.04-1.23-.65-2.66-.81-4.01-.45-1.34.36-2.5,1.21-3.24,2.39-.74,1.17-1,2.58-.73,3.94.27,1.36,1.04,2.56,2.17,3.37,1.13.81,2.52,1.17,3.9,1v.12ZM158.84,44.87c-.81-.25-1.54-.74-2.09-1.39-.55-.65-.89-1.45-1-2.29.79.29,1.5.78,2.04,1.43.54.65.9,1.42,1.04,2.25h0Z"/><path class="cls-1" d="M177.68,51.28c.05-.14.07-.28.04-.43-.03-.14-.1-.27-.21-.38-.1-.1-.24-.17-.38-.2-.14-.03-.29,0-.43.05-.13.06-.25.15-.33.28-.08.12-.12.27-.12.41,0,.15.05.29.13.41.08.12.2.21.34.26.18.07.38.07.56-.01.18-.08.32-.22.39-.4ZM178.91,46.13c-.32-.13-.67-.16-1.01-.09-.34.07-.65.24-.88.49-.24.25-.4.56-.46.9-.06.34-.01.69.12,1l.16.37c.33-.03.66.02.97.14.31.12.58.31.8.55l.35-.16c.32-.13.59-.36.78-.64.19-.29.29-.62.29-.96s-.1-.68-.29-.96c-.19-.29-.46-.51-.78-.64h-.06ZM177.16,53.2c-.33.02-.66-.03-.96-.15s-.58-.31-.81-.54l-.37.16c-.32.13-.59.36-.78.64-.19.29-.29.62-.29.96s.1.68.29.96c.19.29.46.51.78.64.32.13.67.16,1.01.09.34-.07.64-.24.88-.49.24-.25.4-.56.46-.9.06-.34.02-.69-.12-1l-.08-.37ZM175.33,48.96c-.09-.21-.22-.39-.38-.55-.16-.16-.36-.28-.57-.35-.22-.09-.45-.13-.68-.13-.34,0-.68.12-.96.31-.28.2-.5.47-.62.79-.13.32-.15.67-.08,1,.07.33.24.64.49.88.17.16.38.28.6.37.21.09.43.13.65.13s.45-.04.65-.13l.37-.16c-.03-.33.02-.66.14-.97.12-.31.31-.58.55-.8l-.16-.4ZM181.47,50.96c-.17-.16-.38-.28-.6-.37-.21-.09-.43-.13-.65-.13s-.45.05-.65.13l-.37.16c.03.33-.02.66-.14.97-.12.31-.31.58-.55.8l.16.35c.18.42.52.75.95.92.22.08.45.13.68.13.34,0,.68-.12.96-.31.28-.2.5-.47.62-.79.13-.32.15-.67.08-1-.07-.33-.24-.64-.49-.88v.03Z"/><path class="cls-1" d="M108.43,66.86c-.13-.18-.24-.38-.32-.59-1.29-.04-2.53-.6-3.46-1.58-.94-.98-1.51-2.31-1.62-3.72-.02-.17.02-.34.12-.48.09-.14.23-.24.38-.27h.17c1.34,0,2.64.53,3.66,1.49,1.02.96,1.69,2.29,1.89,3.76,0,.15.05.29.12.41.07.12.17.22.29.29,1.07-.74,1.84-1.9,2.17-3.24.32-1.34.18-2.77-.42-4-.59-1.23-1.58-2.16-2.78-2.62-1.19-.46-2.5-.4-3.65.16-1.16.56-2.08,1.58-2.58,2.85-.5,1.27-.54,2.71-.12,4.02.42,1.31,1.28,2.39,2.4,3.04,1.12.64,2.42.8,3.64.43l.11.06ZM107.77,64.81c-.77-.1-1.5-.45-2.09-1.01-.59-.55-1.02-1.29-1.23-2.11.75.15,1.46.52,2.04,1.07.58.55,1.02,1.26,1.28,2.05h0Z"/><path class="cls-1" d="M130.89,56.77s0-.08,0-.12h0c.02-.52-.07-1.03-.25-1.51l-.08-.17c-.21-.44-.51-.82-.87-1.11-.03-.03-.06-.06-.09-.08-.45-.35-.98-.53-1.52-.53-.51-.02-1.02.11-1.48.38-.46.27-.84.67-1.12,1.16-.28.49-.44,1.05-.47,1.63-.03.58.07,1.16.3,1.68s.57.97.99,1.3c.42.33.92.53,1.43.58.51.05,1.03-.05,1.5-.3.47-.24.87-.62,1.17-1.09.34-.53.51-1.18.49-1.84h0ZM129.44,52.04c.1-.03.19-.09.27-.17.16-.17.28-.38.36-.62.07-.27.07-.55,0-.81,0-.06,0-.11,0-.17-.02-.06-.05-.11-.09-.16-.04-.04-.09-.08-.14-.1-.31-.12-.71.24-.88.8-.06.24-.06.5,0,.74,0,.08.03.16.07.23.02.06.05.11.09.16.04.04.09.08.14.1.06.02.12.02.19,0ZM132.37,55.05c-.09.16-.13.35-.11.54v.14c.05.11.13.21.21.29.19.14.41.24.64.28.23.04.46.03.69-.03h.08c.71-.2,1.18-.77,1.1-1.26,0-.05,0-.1,0-.15-.15-.22-.36-.39-.6-.49-.24-.1-.49-.11-.73-.05h-.19c-.38.09-.73.31-1,.63l-.11.11ZM133.61,58.75c.04-.12.04-.25,0-.38-.03-.06-.07-.12-.11-.18-.15-.19-.34-.34-.55-.43-.21-.09-.44-.11-.66-.07-.1.03-.19.07-.28.14-.04.02-.07.05-.1.09-.03.04-.05.08-.06.12-.04.12-.04.26,0,.38l.12.21c.15.18.35.32.56.39.47.2.97.2,1.08-.21v-.06ZM131.73,51.23c.56-.5,1.25-.57,1.54-.2.03.04.06.09.08.14.06.28.04.56-.04.83-.08.27-.23.5-.42.68-.03.04-.06.07-.09.11-.29.3-.66.48-1.05.51h-.13c-.08,0-.17-.02-.25-.06-.08-.04-.15-.1-.21-.17v-.11s0-.09,0-.14c0-.08,0-.15,0-.23.02-.25.08-.5.18-.73.11-.23.25-.42.43-.58l-.04-.06Z"/><path class="cls-2" d="M154.09,65c.41-.82.72-1.85.91-3-.31.45-.65.81-1,1.1l.09,1.9Z"/><path class="cls-2" d="M150.87,64.27c-.62.06-1.24.09-1.87.1l.29,1.56c1.26.17,2.56.04,3.71-.37l-.29-1.56c-.61.12-1.22.21-1.85.27h0Z"/><path class="cls-2" d="M148,65l-.19-.81c-.61-.03-1.22-.1-1.81-.19.51.41,1.2.75,2,1h0Z"/><path class="cls-2" d="M156,60.15c0-.33-1.03-.91-3-1.15l.48,3c1.8-.66,2.57-1.46,2.51-1.85Z"/><path class="cls-2" d="M155,58c-.52-.83-1.21-1.51-2-2l.19,1.6c.61.07,1.22.2,1.81.4h0Z"/><path class="cls-2" d="M149.39,63c.88-.01,1.76-.16,2.61-.44l-.39-3.56c-.44,0-.88.05-1.31.12-.44.07-.87.18-1.3.33l.39,3.56Z"/><path class="cls-2" d="M148,55.66l.29,2.34c.61-.18,1.22-.31,1.85-.4.62-.09,1.24-.13,1.87-.15l-.29-2.34c-1.26-.25-2.56-.06-3.71.55h0Z"/><path class="cls-2" d="M145,61.23c0,.22,1.03.61,3,.77l-.48-2c-1.8.52-2.57,1.05-2.51,1.23Z"/><path class="cls-2" d="M146.82,57c-.82.55-1.44,1.23-1.82,2,.63-.3,1.3-.54,2-.73l-.18-1.27Z"/><path class="cls-1" d="M167.7,69.26s0-.06,0-.1c.14-.44.19-.91.12-1.37v-.23c-.1-.44-.29-.86-.56-1.22h0v-.1c-.35-.42-.82-.73-1.34-.87-.61-.21-1.26-.21-1.87,0-.61.2-1.14.6-1.5,1.14-.41.6-.6,1.33-.53,2.06.07.73.39,1.4.91,1.91.52.51,1.2.8,1.91.84.71.04,1.42-.18,1.99-.63.43-.37.74-.87.87-1.43h0ZM167.44,64.74c.1-.01.21-.04.31-.08.2-.1.37-.25.5-.44.14-.2.22-.44.24-.68,0-.05,0-.11,0-.16,0-.06-.02-.12-.05-.17-.03-.05-.07-.1-.11-.13-.27-.19-.74,0-1.04.45-.13.19-.21.4-.24.63,0,.07,0,.15,0,.22.02.12.07.22.16.3.07.04.16.06.24.07h0ZM169.53,68.24c-.14.11-.22.27-.24.45,0,.04,0,.08,0,.12-.01.04-.01.09,0,.14.02.07.05.13.09.18.15.17.33.31.53.41s.42.15.65.16h.09c.72,0,1.34-.33,1.34-.79v-.14c-.09-.24-.25-.44-.45-.59-.2-.15-.44-.24-.69-.26h-.13c-.39-.03-.79.06-1.12.26l-.07.05ZM169.82,71.82c.02-.05.04-.11.04-.17s-.01-.12-.04-.17c0-.06,0-.12,0-.18-.1-.21-.24-.39-.43-.53-.18-.14-.4-.22-.63-.25-.1-.02-.2-.02-.29,0-.08.03-.16.08-.21.15-.02.05-.03.11-.03.16s.01.11.03.16c0,.08.03.15.07.22.09.21.24.38.43.51.38.33.88.37,1.07.1h0ZM169.82,64.69c.66-.27,1.34-.15,1.54.27v.14c.07.4-.27.89-.83,1.2l-.12.07c-.35.18-.76.22-1.14.14-.04,0-.09,0-.13,0-.08-.03-.15-.07-.22-.13-.06-.06-.12-.12-.15-.2v-.23c0-.07,0-.14,0-.2.07-.22.2-.42.36-.59.16-.17.35-.3.57-.38l.13-.08Z"/><path class="cls-1" d="M40,74.17c.58.4,1.26.68,2,.83-.31-.31-.59-.65-.82-1l-1.18.17Z"/><path class="cls-2" d="M74.6,82.95c1.05.32,2.12.58,3.19.78,1.08.2,2.17.34,3.27.4l-.69,3.73c-2.22.3-4.47-.11-6.45-1.17l.68-3.74ZM68.53,80.07c.99.69,2.05,1.28,3.15,1.77l-.5,2.76c-1.23-1.27-2.14-2.81-2.65-4.5v-.03ZM75.13,79.9l1.28-6.99c2.19.13,4.35.52,6.45,1.18l-1.27,6.99c-1.1-.06-2.19-.18-3.27-.37-1.08-.19-2.15-.45-3.19-.78v-.03ZM68.24,75.03c.12-.65,1.81-1.71,5.05-2.04l-1.04,5.76c-2.92-1.45-4.13-3.04-4.01-3.68v-.03ZM86.33,72.16l.5-2.76c1.24,1.27,2.15,2.83,2.65,4.53-.97-.68-2.01-1.27-3.09-1.76h-.06ZM74.37,67.12l-.5,2.76c-1.21.07-2.41.25-3.58.55,1.07-1.42,2.47-2.55,4.09-3.3h0ZM77.65,66.16c2.22-.29,4.47.12,6.45,1.18l-.68,3.74c-2.09-.65-4.26-1.05-6.45-1.18l.68-3.74ZM89.77,78.96c-.12.65-1.81,1.71-5.05,2.04l1.04-5.76c2.92,1.5,4.13,3.08,4.01,3.73h0ZM83.64,86.89l.5-2.76c1.21-.07,2.41-.25,3.58-.55-1.07,1.43-2.47,2.57-4.09,3.32h0ZM92.77,79.51c.5-2.72.17-5.54-.93-8.08s-2.93-4.7-5.26-6.2c-2.33-1.5-5.05-2.28-7.82-2.23-2.77.05-5.46.91-7.74,2.49-2.28,1.58-4.04,3.79-5.05,6.37-1.02,2.58-1.25,5.4-.66,8.1.59,2.71,1.96,5.18,3.95,7.1s4.51,3.22,7.23,3.71c3.65.66,7.41-.15,10.46-2.26,3.05-2.11,5.14-5.34,5.81-8.99h0Z"/><path class="cls-1" d="M111.59,83.76c.79.83,1.33,1.86,1.57,2.98-.17-.26-.36-.51-.58-.73-.95-1.01-2.26-1.6-3.65-1.65h-.4c-1.21.12-2.39.45-3.48.99-.33.13-.69.18-1.05.12-.11-.01-.21-.04-.31-.09h-.07c-.11-.05-.21-.11-.3-.19-.09-.07-.18-.14-.26-.22-.09-.09-.17-.2-.23-.31-.07-.14-.12-.29-.16-.44-.03-.14-.03-.29,0-.43.03-.14.1-.28.19-.39,1.22-1.07,2.81-1.64,4.43-1.57,1.63.07,3.16.76,4.28,1.94h0ZM112.27,89.45c-.19-.18-.4-.34-.62-.47-.2-.13-.42-.23-.65-.3h-.1c-.24-.07-.49-.12-.74-.13-.66-.03-1.32.11-1.91.42-.83.52-1.75.89-2.71,1.11h-.27c-.51.03-1.01-.04-1.49-.23-.47-.19-.9-.47-1.24-.84-.19-.2-.35-.43-.49-.67-.42-.73-.56-1.57-.4-2.4.05.07.11.14.16.2.15.16.31.3.49.43.19.15.4.28.62.38l.11.04c.23.1.48.17.73.21.66.1,1.34.02,1.96-.24.9-.43,1.87-.71,2.86-.82h.28c.94.03,1.83.42,2.47,1.1.27.29.49.63.64.99.17.39.27.8.29,1.23h0ZM111.29,90.96c.15.24.22.51.21.79-.01.28-.1.55-.27.77-.35.44-.79.8-1.29,1.06-1.12.58-2.39.81-3.64.67s-2.44-.67-3.39-1.49c-.16-.14-.31-.28-.45-.43-.66-.7-1.16-1.55-1.44-2.47.09.12.19.24.3.35.52.57,1.16,1.01,1.87,1.3.71.29,1.48.41,2.25.35h.38c1.17-.23,2.29-.67,3.3-1.29.31-.16.66-.24,1.01-.22.1,0,.2.02.3.05h.07c.11.04.21.09.31.16.14.08.27.18.38.3.04.03.08.07.12.11h0ZM101.65,82.1c-.23.21-.46.44-.67.67-1.31,1.49-2.01,3.41-1.98,5.38.03,1.98.8,3.87,2.15,5.32.18.19.38.38.58.55,1.35,1.19,3.07,1.88,4.86,1.97,1.8.09,3.57-.43,5.03-1.48l.09-.07c.85-.62,1.57-1.4,2.11-2.29.55-.9.91-1.89,1.07-2.93s.12-2.09-.13-3.11c-.25-1.02-.7-1.98-1.32-2.83-.19-.26-.4-.51-.63-.75-.18-.2-.38-.39-.57-.56-1.44-1.25-3.28-1.95-5.19-1.97-1.91-.02-3.76.63-5.23,1.85h0l-.2.25Z"/><path class="cls-2" d="M126.28,74.42c-.18-.13-.34-.28-.47-.46-1.4.26-2.85.04-4.09-.62-1.23-.66-2.15-1.71-2.58-2.94-.06-.15-.05-.31.01-.45.07-.14.19-.26.34-.33l.19-.07c1.44-.3,2.96-.12,4.27.5,1.31.62,2.34,1.65,2.89,2.9h0c.04.13.12.24.23.33.11.09.24.16.38.19h0c.97-.91,1.52-2.12,1.55-3.38.03-1.26-.47-2.49-1.4-3.43-.93-.94-2.21-1.53-3.6-1.64-1.38-.11-2.77.25-3.87,1.03-1.1.77-1.84,1.9-2.06,3.14-.23,1.25.08,2.53.85,3.58.77,1.05,1.95,1.8,3.3,2.09,1.35.29,2.78.11,3.99-.51l.07.07ZM125.11,72.75c-.85.08-1.71-.07-2.47-.43-.76-.36-1.39-.91-1.8-1.6.84-.03,1.68.13,2.43.49.75.36,1.38.88,1.84,1.53h0Z"/><path class="cls-2" d="M145.91,74.89c-.4.42-.66.96-.76,1.53-.1.57-.02,1.16.22,1.69.24.53.63.98,1.12,1.29.49.31,1.07.47,1.65.45.58-.02,1.14-.21,1.62-.54.47-.34.84-.81,1.04-1.35.21-.54.25-1.14.12-1.7-.13-.57-.43-1.08-.85-1.48-.28-.27-.61-.47-.97-.61-.36-.14-.75-.2-1.13-.19-.39.01-.76.1-1.12.26-.35.16-.67.39-.93.67ZM144.43,73.54l.27-.31.61.5c.62-.52,1.38-.86,2.18-.96v-.77h.83l.07.77c.81.07,1.58.38,2.22.88l.57-.53.3.3.31.28-.51.59c.52.62.85,1.38.96,2.19h.77v.82l-.79.08c-.07.81-.37,1.57-.86,2.21l.53.58-.3.28-.27.31-.62-.5c-.62.51-1.37.84-2.17.94v.78h-.82l-.08-.81c-.79-.06-1.54-.35-2.17-.84l-.58.54-.3-.3-.31-.27.5-.61c-.51-.62-.85-1.37-.97-2.17h-.78v-.82l.78-.07c.07-.82.38-1.61.88-2.27l-.53-.55.3-.3ZM146.87,75.86c.22-.23.5-.39.82-.47.31-.07.64-.05.94.07.3.11.56.31.74.58.19.26.29.57.3.89,0,.32-.08.64-.25.91-.17.27-.42.49-.71.62-.29.13-.61.17-.93.12-.32-.05-.61-.2-.84-.42-.16-.15-.29-.32-.39-.52-.09-.2-.14-.41-.15-.63,0-.22.03-.44.11-.64.08-.2.2-.39.35-.55v.04Z"/><path class="cls-1" d="M169.04,96c.41-.54.74-1.22.96-2-.32.27-.65.49-1,.66l.04,1.34Z"/><path class="cls-1" d="M165.45,95.16c-.48.03-.97.03-1.45,0l.09,1.69c.96.25,1.98.19,2.91-.17l-.1-1.68c-.48.08-.96.13-1.45.16Z"/><path class="cls-1" d="M163,97l-.1-1.5c-.65-.11-1.29-.27-1.9-.5.48.81,1.17,1.5,2,2Z"/><path class="cls-1" d="M171,91.35c0-.35-.98-.99-3-1.35l.22,3c1.93-.64,2.8-1.32,2.78-1.65Z"/><path class="cls-1" d="M170,89c-.49-.41-1.18-.75-2-1l.1.74c.65.05,1.29.14,1.9.26h0Z"/><path class="cls-1" d="M164.18,93.97c.94.08,1.89.01,2.82-.2l-.18-3.73c-.94-.09-1.89-.02-2.82.2l.18,3.73Z"/><path class="cls-1" d="M164,87.32l.1,1.68c.48-.08.96-.13,1.45-.16.48-.03.97-.03,1.45,0l-.09-1.69c-.96-.25-1.98-.19-2.91.17h0Z"/><path class="cls-1" d="M160,92.65c0,.35.65.99,2,1.35l-.15-3c-1.28.53-1.86,1.32-1.85,1.65Z"/><path class="cls-1" d="M161.96,88c-.41.54-.74,1.22-.96,2,.32-.27.65-.49,1-.66l-.04-1.34Z"/><path class="cls-1" d="M46.96,81.69c.4.73.59,1.57.55,2.42s-.31,1.66-.78,2.34c-.47.68-1.11,1.2-1.85,1.49-.74.29-1.54.34-2.31.15-.77-.2-1.46-.63-2-1.25-.54-.62-.9-1.39-1.03-2.23-.13-.84-.03-1.69.29-2.47.32-.77.84-1.43,1.51-1.89.46-.3.97-.51,1.5-.6.53-.09,1.07-.07,1.59.06.52.13,1.01.38,1.45.72.43.34.8.77,1.08,1.26ZM40.63,77.73l-1.16.79.48.96c-.16.14-.3.3-.44.46l-.88-.59-.79,1.21.79.71c-.11.21-.2.43-.28.66l-1.02-.17-.31,1.44.99.32v.66l-1,.26.24,1.44,1.02-.12c.07.23.15.47.24.69l-.83.65.74,1.25.91-.53c.13.17.27.33.42.49l-.54.95,1.12.86.66-.86.62.29-.16,1.11,1.34.33.29-1.08c.2.01.4.01.6,0l.24,1.09,1.34-.24-.09-1.12c.21-.07.42-.16.62-.26l.62.91,1.18-.79-.51-.98c.16-.14.31-.3.46-.46l.88.59.8-1.21-.8-.71c.09-.22.19-.43.27-.66l1.03.19.31-1.44-1-.32c.01-.22.01-.44,0-.66l1-.26-.23-1.44-1.03.1c-.07-.23-.15-.45-.23-.68l.83-.65-.74-1.27-.91.53c-.13-.17-.27-.34-.41-.49l.54-.94-1.12-.86-.66.85c-.2-.12-.4-.22-.62-.3l.16-1.09-1.34-.33-.29,1.06c-.21-.01-.41-.01-.62,0l-.23-1.08-1.34.24.09,1.09c-.21.07-.43.16-.63.26l-.6-.86ZM44.83,83.14c.22.38.29.84.19,1.28-.1.44-.35.82-.7,1.05-.36.24-.78.31-1.19.21-.41-.1-.76-.37-.98-.76-.11-.19-.18-.4-.22-.62-.03-.22-.03-.44.02-.66.05-.22.13-.42.25-.6.12-.18.27-.33.45-.45.18-.12.37-.2.58-.23.2-.04.41-.03.61.02.2.05.39.14.56.27.17.13.31.29.42.48h0ZM41.02,85.75c.32.53.77.95,1.31,1.21.54.25,1.13.33,1.71.22.58-.11,1.11-.4,1.54-.83.43-.44.72-1,.85-1.61s.09-1.26-.13-1.85c-.21-.59-.58-1.1-1.06-1.46s-1.05-.57-1.64-.58c-.59-.02-1.17.15-1.66.49-.66.46-1.13,1.18-1.31,2s-.04,1.69.38,2.41h0Z"/><path class="cls-1" d="M63,60.96c-.23-.94-.72-1.8-1.41-2.48-.99-.94-2.32-1.47-3.69-1.48-1.38,0-2.7.51-3.7,1.45-.08.1-.13.22-.16.34s-.02.25.01.37c.04.13.1.26.17.38.06.09.12.18.2.26l.23.18.25.15c.09.01.18.01.27,0,.3.03.61-.02.89-.14.92-.48,1.91-.8,2.94-.93h.08c.08,0,.17,0,.25,0,1.18,0,2.31.46,3.15,1.28.19.19.36.4.52.61Z"/><path class="cls-1" d="M61.79,62.89c.19.1.37.23.53.38,0-.39-.08-.77-.24-1.13-.15-.3-.35-.57-.59-.81-.28-.27-.61-.49-.97-.64-.36-.15-.75-.22-1.14-.22h-.27c-.85.13-1.66.41-2.42.81-.52.23-1.09.32-1.66.26-.22-.03-.43-.08-.63-.15h-.08c-.19-.08-.38-.18-.55-.29l-.42-.35-.14-.17c-.11.7.03,1.42.41,2.02.13.2.27.38.44.54.31.3.68.53,1.09.68.41.14.84.2,1.28.16h.2c.81-.21,1.58-.55,2.28-1.02.49-.27,1.04-.41,1.6-.4.22,0,.44.03.65.08h.08c.19.07.38.15.56.25Z"/><path class="cls-1" d="M61.76,65.28c0-.25-.08-.49-.23-.7-.04-.04-.09-.08-.14-.11-.1-.1-.21-.18-.34-.25-.08-.06-.17-.1-.27-.13h-.25c-.3,0-.6.07-.86.22-.86.56-1.81.97-2.81,1.2h-.32c-.65.06-1.3-.02-1.91-.23-.61-.22-1.16-.57-1.62-1.02l-.27-.28c.27.78.71,1.49,1.31,2.06l.39.35c.84.67,1.86,1.08,2.93,1.17,1.07.09,2.15-.14,3.09-.66.42-.23.78-.55,1.07-.93.15-.2.23-.45.23-.7Z"/><path class="cls-1" d="M126.32,83.69c-.16.63-.13,1.29.08,1.9.21.61.6,1.15,1.12,1.54.52.39,1.14.62,1.78.65.64.04,1.29-.12,1.84-.45.56-.33,1-.82,1.28-1.4.28-.58.38-1.24.29-1.88-.09-.64-.37-1.24-.8-1.73-.43-.48-.99-.83-1.62-.99-.84-.21-1.73-.08-2.48.36-.75.44-1.29,1.16-1.51,2ZM124.12,83.1l.09-.45.85.17c.33-.85.89-1.59,1.62-2.14l-.37-.75.4-.23.39-.26.49.72c.82-.36,1.73-.48,2.62-.35l.27-.81.45.14.45.11-.18.84c.84.33,1.57.9,2.1,1.64l.76-.39.22.39.25.39-.73.51c.35.8.48,1.69.36,2.56l.82.27-.14.44-.1.45-.87-.17c-.33.84-.88,1.57-1.6,2.11l.39.77-.39.23-.39.26-.51-.74c-.81.35-1.69.47-2.56.35l-.28.84-.43-.14-.45-.11.16-.87c-.84-.32-1.57-.87-2.11-1.6l-.78.39-.22-.39-.24-.39.72-.5c-.38-.84-.51-1.77-.36-2.68l-.82-.27.12-.35ZM127.75,84.05c.09-.35.28-.66.54-.9.27-.24.6-.39.95-.44.35-.05.71,0,1.03.16.32.16.59.4.77.71.18.31.27.66.25,1.02-.02.36-.15.7-.36.99-.21.29-.51.5-.84.62-.34.12-.7.13-1.04.04-.23-.06-.45-.17-.64-.31-.19-.15-.35-.33-.47-.54-.12-.21-.2-.44-.23-.68-.03-.24-.01-.48.05-.72v.05Z"/><path class="cls-2" d="M34.26,97.43c1.7-.34,3.46-.17,5.06.49,1.6.66,2.97,1.78,3.94,3.22.97,1.44,1.48,3.13,1.49,4.87,0,1.73-.51,3.43-1.47,4.87-.96,1.44-2.33,2.57-3.93,3.24-1.6.67-3.36.84-5.06.51-1.7-.33-3.26-1.17-4.49-2.39-1.23-1.22-2.07-2.79-2.41-4.49-.23-1.13-.23-2.29-.01-3.42.22-1.13.66-2.21,1.3-3.16.64-.96,1.46-1.78,2.41-2.42.96-.64,2.03-1.09,3.16-1.31ZM22,107.3l.59,2.88,2.17-.29c.15.42.32.84.52,1.24l-1.77,1.34,1.65,2.46,1.91-1.09c.33.36.67.71,1.04,1.04l-1.11,1.92,2.47,1.65,1.35-1.76c.4.2.81.37,1.22.52l-.29,2.2,2.88.59.59-2.14c.48.03.96.03,1.44,0l.58,2.14,2.88-.59-.3-2.2c.42-.14.83-.31,1.22-.5l1.44,1.78,2.47-1.65-1.12-1.93c.36-.32.69-.67,1.01-1.04l1.96,1.12,1.64-2.49-1.78-1.35c.19-.4.37-.81.52-1.22l2.22.3.59-2.88-2.16-.59c.03-.48.03-.96,0-1.44l2.17-.59-.59-2.88-2.22.3c-.14-.41-.31-.82-.5-1.21l1.78-1.44-1.65-2.48-1.94,1.12c-.32-.36-.65-.7-1.01-1.02l1.11-1.94-2.46-1.64-1.44,1.77c-.39-.19-.8-.36-1.21-.5l.29-2.22-2.88-.59-.59,2.16h-1.44l-.59-2.16-2.88.59.29,2.2c-.42.14-.83.31-1.22.5l-1.35-1.77-2.43,1.63,1.09,1.91c-.37.32-.72.66-1.04,1.04l-1.93-1.11-1.64,2.48,1.76,1.35c-.2.4-.37.8-.52,1.22l-2.19-.29-.59,2.88,2.13.57c-.04.48-.04.96,0,1.44l-2.14.65ZM35.32,102.72c.65-.13,1.32-.07,1.94.18.61.25,1.14.68,1.51,1.23.37.55.57,1.2.57,1.86s-.19,1.31-.56,1.87c-.37.55-.89.99-1.5,1.24-.61.26-1.28.33-1.94.2-.65-.13-1.25-.44-1.72-.91-.47-.47-.79-1.06-.93-1.71-.09-.43-.09-.88,0-1.31.08-.43.25-.85.5-1.21.24-.37.56-.68.92-.93.37-.25.78-.42,1.21-.51h0ZM37.25,112.28c1.24-.25,2.37-.87,3.26-1.76.89-.9,1.49-2.04,1.73-3.28.24-1.24.11-2.52-.38-3.69-.49-1.17-1.31-2.16-2.36-2.86-1.05-.7-2.29-1.07-3.55-1.07-1.26,0-2.5.38-3.54,1.08-1.05.7-1.86,1.7-2.35,2.87-.48,1.17-.61,2.45-.36,3.69.16.83.49,1.61.96,2.31.47.7,1.07,1.3,1.77,1.76.7.47,1.49.79,2.31.95.83.16,1.68.16,2.5-.01h0Z"/><path class="cls-2" d="M63.27,88.38c-.14.22-.32.4-.55.53l-.23.09c-.12.04-.26.04-.38,0-.08-.06-.14-.15-.18-.24-.02-.11-.02-.22,0-.33.01-.26.09-.51.23-.73.14-.22.33-.4.56-.53h.21c.12-.05.26-.05.38,0,.26.11.26.7-.05,1.21ZM62.4,94.72c-.44.69-1.1,1.19-1.88,1.43-.78.24-1.61.2-2.36-.13-.75-.32-1.36-.9-1.72-1.62-.36-.73-.45-1.56-.25-2.35.15-.58.46-1.1.89-1.51l.11-.08c.38-.33.83-.58,1.32-.71h.26c.5-.12,1.02-.12,1.51,0h.12c.59.17,1.12.52,1.51,1,.49.52.8,1.19.88,1.9.09.71-.05,1.43-.4,2.05v.02ZM55.14,90.73h-.24c-.26-.02-.51-.1-.73-.24-.5-.3-.76-.83-.56-1.15.04-.05.08-.1.14-.13.05-.03.12-.06.18-.06h.18c.28,0,.54.09.77.24.22.13.4.31.53.53.06.11.09.23.11.35.02.09.02.18,0,.27-.05.06-.1.1-.17.13-.07.03-.14.05-.21.05v.02ZM55.5,85.73h.15c.45-.11,1,.24,1.41.86.03.04.06.09.08.14.22.39.31.84.23,1.29,0,.05,0,.1,0,.15-.06.19-.18.34-.35.44-.04,0-.08,0-.12,0h-.14c-.07.02-.15.02-.23,0-.25-.07-.49-.2-.68-.37-.2-.17-.36-.38-.47-.62v-.11c-.42-.77-.33-1.56.12-1.8v.02ZM58.83,86.27c0-.06,0-.11,0-.17h0c0-.28.09-.55.24-.79.15-.24.37-.42.62-.54.05-.01.11-.01.17,0,.51,0,.95.68.97,1.51v.11c0,.26-.05.52-.14.76-.1.24-.25.46-.43.64-.1.08-.22.13-.35.17h-.14c-.1,0-.19-.03-.28-.08-.09-.04-.16-.11-.22-.18l-.11-.11c-.27-.39-.38-.86-.33-1.33v.02ZM63.96,85.7c-.43-.26-.94-.36-1.44-.29-.11-.63-.42-1.21-.89-1.64-.47-.43-1.07-.7-1.7-.75-.2-.02-.4-.02-.61,0-.39.11-.76.3-1.08.56-.31.26-.57.59-.74.96-.32-.25-.69-.42-1.08-.52-.39-.09-.8-.1-1.2-.03-.19.05-.38.12-.56.21-.55.33-.98.84-1.2,1.44-.23.6-.25,1.26-.05,1.88-.46.16-.86.47-1.12.88-.16.3-.25.63-.28.97-.03.34.01.68.11,1,.1.32.27.62.49.88.22.26.49.47.79.63.31.2.64.33,1,.41-.1.82,0,1.64.3,2.41.29.77.76,1.46,1.38,2,.61.55,1.35.94,2.15,1.14.8.2,1.63.21,2.43.02.8-.19,1.54-.56,2.17-1.1.62-.54,1.11-1.21,1.42-1.98.31-.76.42-1.59.34-2.41s-.36-1.6-.8-2.29c.29-.23.54-.51.73-.83.39-.6.55-1.31.47-2.01-.05-.32-.16-.62-.34-.89-.17-.27-.41-.5-.68-.67v.02Z"/><path class="cls-2" d="M88.38,107.34c-.26.21-.57.34-.9.39-.11.02-.22.02-.32,0-.17-.02-.32-.1-.43-.23-.07-.11-.11-.25-.1-.38,0-.15.04-.3.1-.43.14-.32.35-.59.62-.8.27-.21.59-.34.92-.38.09-.01.19-.01.28,0,.17.02.32.1.43.23.28.4,0,1.14-.61,1.61ZM84.34,114.81c-.47.36-1,.62-1.56.77-.56.15-1.15.18-1.73.09-.58-.09-1.13-.29-1.63-.6-.5-.31-.93-.72-1.28-1.2-.56-.78-.87-1.73-.87-2.7s.31-1.92.87-2.71c.45-.68,1.09-1.22,1.83-1.53l.17-.06h.1c.63-.24,1.3-.32,1.96-.25h.34c.66.13,1.29.41,1.83.82l.07.06.13.09c.64.52,1.11,1.22,1.35,2.02.31.93.33,1.93.04,2.87-.28.94-.85,1.75-1.62,2.33h0ZM77.49,106.29c-.11-.02-.21-.05-.31-.09-.3-.14-.56-.36-.75-.64-.46-.64-.52-1.43-.14-1.71.07-.05.15-.08.23-.1.08-.02.17-.02.25,0,.08.01.15.03.23.06.32.14.59.36.8.64.21.28.35.61.4.96.03.16.03.32,0,.48-.03.12-.1.23-.2.31-.07.05-.16.09-.24.1-.09.01-.18.01-.26-.01h0ZM80.29,100.22h.21c.59.08,1.1.79,1.28,1.76v.2c.08.59-.04,1.19-.33,1.71l-.12.17c-.15.21-.38.34-.63.38h-.17l-.18-.05c-.1-.03-.19-.07-.27-.13-.26-.22-.48-.49-.64-.8s-.25-.65-.27-.99v-.15c-.03-1.05.46-1.99,1.11-2.06v-.04ZM84.03,102.51l.1-.19v-.05c.13-.36.36-.66.66-.88.3-.22.66-.35,1.02-.36h.2c.62.27.82,1.32.45,2.36v.13c-.12.32-.3.61-.53.86-.23.25-.51.44-.81.58-.16.06-.33.07-.5.05-.06,0-.11-.03-.17-.05-.23-.11-.41-.31-.5-.56l-.06-.18c-.12-.55-.07-1.13.14-1.65v-.05ZM90.48,104.32c-.39-.54-.96-.91-1.6-1.06.18-.83.09-1.7-.27-2.47-.36-.77-.95-1.39-1.69-1.77-.24-.1-.49-.17-.74-.21-.53-.06-1.07,0-1.58.17-.51.17-.97.46-1.36.84-.27-.47-.63-.87-1.06-1.18-.43-.31-.92-.51-1.44-.6-.26-.04-.52-.04-.78,0-.82.14-1.57.57-2.13,1.2-.56.64-.89,1.45-.95,2.3-.63-.04-1.25.16-1.76.55-1.38,1.06-1.51,3.19-.3,4.86.27.39.6.73.98,1.01-.5.97-.77,2.05-.78,3.14-.01,1.1.23,2.18.71,3.16.48.98,1.18,1.82,2.04,2.46.86.64,1.86,1.06,2.91,1.21s2.12.05,3.13-.31,1.91-.97,2.64-1.76c.73-.8,1.26-1.77,1.55-2.82.29-1.05.33-2.17.12-3.24.45-.15.88-.37,1.26-.67.74-.55,1.27-1.36,1.5-2.27.12-.42.14-.86.07-1.3-.07-.43-.23-.84-.48-1.2v-.04Z"/><path class="cls-1" d="M122.03,122.73c.34-2.33.41-4.69.22-7.04l4.06.13c.67,2.31.59,4.76-.22,7.02l-4.06-.12h0ZM119.97,129.62c.58-1.16,1.04-2.38,1.37-3.64l3.01.09c-1.15,1.52-2.66,2.73-4.38,3.55ZM118.74,122.64l-7.62-.24c-.22-2.34-.14-4.71.23-7.03l7.61.24c.24,2.34.16,4.71-.22,7.03h0ZM114.62,130.71c-.71,0-2.06-1.63-2.97-5.03l6.25.19c-1.04,3.33-2.53,4.9-3.23,4.83h-.05ZM108.68,112.02l-3.01-.09c1.15-1.52,2.65-2.74,4.38-3.55-.56,1.17-1,2.39-1.32,3.64h-.05ZM105.25,125.48l3.01.09c.26,1.27.64,2.52,1.15,3.71-1.66-.92-3.07-2.22-4.11-3.8h-.05ZM103.71,122.16c-.66-2.31-.59-4.77.22-7.03l4.11.13c-.35,2.32-.42,4.68-.22,7.02l-4.11-.12ZM115.34,107.29c.71,0,2.06,1.63,2.97,5.03l-6.25-.19c1.14-3.33,2.63-4.86,3.33-4.83h-.05ZM124.72,112.51l-3.01-.09c-.26-1.27-.64-2.51-1.15-3.7,1.7.9,3.15,2.2,4.22,3.79h-.05ZM115.47,104.01c-2.97-.09-5.89.7-8.41,2.27s-4.51,3.86-5.73,6.56c-1.22,2.71-1.61,5.71-1.12,8.64.49,2.93,1.84,5.64,3.88,7.8,2.04,2.16,4.67,3.67,7.56,4.33,2.89.66,5.92.46,8.69-.6,2.77-1.06,5.17-2.91,6.89-5.33,1.72-2.42,2.68-5.29,2.77-8.26.1-3.96-1.37-7.79-4.08-10.67-2.72-2.88-6.46-4.57-10.41-4.71l-.03-.04Z"/><path class="cls-2" d="M139.8,95c-.38.57-.66,1.26-.8,2,.31-.32.65-.59,1-.82l-.2-1.18Z"/><path class="cls-2" d="M143.19,95.49c.6-.14,1.2-.24,1.81-.31l-.46-2.15c-1.24-.12-2.48.17-3.54.84l.46,2.14c.57-.2,1.15-.38,1.74-.51h0Z"/><path class="cls-2" d="M146,94l.29.87c.57,0,1.15.05,1.71.13-.53-.44-1.22-.78-2-1h0Z"/><path class="cls-2" d="M139,100.03c.06.34.73.87,2,.97l-.5-3c-1.11.84-1.55,1.69-1.49,2.03Z"/><path class="cls-2" d="M140,102c.53.88,1.22,1.57,2,2l-.29-1.74c-.57-.01-1.15-.1-1.71-.26h0Z"/><path class="cls-2" d="M145.21,97c-1.1.1-2.18.33-3.21.68l.79,3.32c.55-.04,1.09-.12,1.63-.24.54-.12,1.07-.26,1.58-.44l-.79-3.32Z"/><path class="cls-2" d="M147,103.42l-.46-1.42c-.57.14-1.15.25-1.74.34-.6.09-1.2.16-1.81.2l.46,1.44c1.24.08,2.48-.11,3.54-.56h0Z"/><path class="cls-2" d="M148.99,97.65c-.06-.23-.73-.58-2-.65l.5,2c1.11-.56,1.55-1.07,1.49-1.35Z"/><path class="cls-2" d="M148.2,102c.38-.57.66-1.26.8-2-.31.32-.65.59-1,.82l.2,1.18Z"/><path class="cls-1" d="M56.54,107.71c1.38-.42,2.87-.29,4.16.36,1.29.65,2.26,1.78,2.73,3.15.46,1.36.38,2.85-.25,4.15-.62,1.3-1.73,2.3-3.08,2.8h0c-.12-.09-.21-.21-.27-.34-.06-.14-.08-.28-.06-.43h0c.05-1.48-.43-2.93-1.36-4.08-.93-1.16-2.24-1.95-3.7-2.23h-.2c-.17,0-.34.07-.47.19-.13.12-.21.28-.22.45-.17,1.42.21,2.86,1.05,4.02.84,1.16,2.09,1.97,3.5,2.26.04.23.12.44.23.65-1.39.15-2.79-.23-3.91-1.06-1.12-.83-1.89-2.06-2.14-3.43-.26-1.37.02-2.79.77-3.96.75-1.18,1.92-2.03,3.27-2.38l-.04-.11ZM58.24,116.31c-.82-.25-1.55-.75-2.09-1.41-.54-.67-.87-1.48-.94-2.33.79.31,1.49.82,2.02,1.49.53.67.86,1.47.98,2.31l.03-.06ZM59.9,119.68c1.33-.37,2.52-1.13,3.42-2.18.9-1.05,1.47-2.33,1.63-3.7.16-1.37-.08-2.75-.71-3.98-.63-1.23-1.6-2.25-2.81-2.92-1.21-.68-2.58-.98-3.96-.88-1.38.1-2.7.61-3.79,1.46s-1.9,2-2.33,3.31c-.43,1.31-.47,2.71-.1,4.04.24.89.65,1.72,1.22,2.46.56.73,1.27,1.34,2.07,1.8.8.46,1.69.75,2.61.86.92.11,1.85.04,2.74-.21v-.06Z"/><path class="cls-1" d="M144.39,112.34c-.13-.07-.28-.1-.43-.09-.15.01-.29.07-.41.16-.12.09-.2.22-.25.36-.04.14-.05.29,0,.43.04.14.12.27.24.36.11.1.25.16.4.17.15.02.3,0,.43-.08.13-.07.24-.17.32-.3.05-.09.08-.18.09-.28.01-.1,0-.2-.02-.3s-.07-.19-.14-.26c-.06-.08-.14-.14-.23-.19h0ZM139.23,110.34c-.17.31-.25.67-.22,1.02.03.35.16.69.39.97.22.28.52.49.86.6.34.11.71.12,1.05.03l.39-.12c.03-.34.13-.67.3-.97.17-.3.4-.56.68-.76l-.1-.38c-.09-.34-.28-.64-.54-.88s-.59-.39-.94-.44c-.37-.06-.74,0-1.07.16-.33.16-.61.43-.78.75h0ZM146.34,113.17c-.02.34-.12.68-.29.97-.17.3-.4.56-.69.75l.12.38c.09.34.28.65.54.88.26.23.59.38.94.43.36.04.72-.02,1.05-.18.32-.16.59-.42.76-.73.17-.31.25-.67.22-1.02-.03-.35-.16-.69-.39-.97-.22-.28-.52-.49-.86-.6-.34-.11-.71-.12-1.05-.03l-.36.12ZM141.74,114.45c-.23.06-.45.17-.64.31-.19.14-.35.32-.46.53-.12.21-.2.45-.22.69-.04.35.02.71.18,1.03s.42.58.74.75c.31.18.67.26,1.04.23.36-.03.7-.17.98-.39.19-.15.35-.33.48-.54.23-.42.28-.9.15-1.36l-.12-.38c-.34-.03-.68-.13-.98-.3-.3-.17-.56-.4-.76-.68l-.39.1ZM144.7,108.41c-.19.15-.35.33-.47.55-.23.41-.28.9-.15,1.35l.12.38c.34.03.68.13.98.3.3.17.56.4.76.68l.39-.1c.23-.06.44-.17.63-.31.19-.14.34-.32.46-.53.13-.21.21-.45.24-.69.04-.35-.03-.71-.19-1.03-.16-.32-.42-.58-.73-.75-.31-.19-.68-.27-1.04-.24-.36.03-.71.17-.99.4h.01Z"/><path class="cls-1" d="M45.61,122.85c.86.37,1.59.97,2.12,1.74-.21-.15-.44-.27-.67-.38-1.03-.45-2.19-.48-3.25-.09l-.23.09c-.87.47-1.65,1.09-2.31,1.83-.2.21-.46.36-.75.43h-.25c-.09.01-.19.01-.28,0l-.27-.09c-.1-.04-.19-.09-.27-.16l-.27-.28c-.07-.1-.12-.21-.15-.33s-.01-.25.03-.36c.58-1.15,1.58-2.04,2.8-2.49,1.22-.44,2.56-.41,3.75.09h0ZM47.92,126.86c-.2-.08-.41-.13-.62-.16-.19-.02-.38-.02-.58,0h-.09c-.2.02-.4.06-.59.13-.52.18-.98.49-1.34.91-.46.65-1.03,1.22-1.68,1.68h-.07l-.13.07c-.37.18-.78.27-1.19.27s-.82-.09-1.19-.27c-.21-.09-.4-.21-.58-.35-.53-.42-.9-1-1.05-1.66l.19.08c.16.08.32.14.5.17.19.05.38.08.58.09h.09c.21,0,.42-.03.62-.08.51-.15.97-.42,1.34-.79.54-.61,1.17-1.14,1.88-1.55h0l.15-.07c.71-.27,1.49-.24,2.19.07.3.12.57.31.79.53.33.26.6.58.79.95v-.04ZM47.65,128.31c.19.13.33.32.41.53.08.21.09.45.03.67-.12.44-.34.84-.63,1.19-.66.79-1.54,1.36-2.53,1.64-.99.28-2.04.27-3.02-.05l-.47-.19c-.72-.32-1.36-.81-1.86-1.42l.32.16c.56.25,1.18.38,1.8.37.62-.01,1.23-.16,1.78-.43h.28c.81-.55,1.51-1.23,2.08-2.02.18-.22.42-.39.68-.48h.58c.13.02.25.06.38.11.08-.03.16-.04.24-.04l-.07-.04ZM37.63,124.68c-.11.24-.2.48-.28.72-.53,1.53-.46,3.21.19,4.69.65,1.49,1.84,2.67,3.32,3.33l.6.24c1.39.46,2.9.44,4.28-.06s2.55-1.45,3.31-2.69v-.08c.44-.73.74-1.54.87-2.38.13-.84.09-1.7-.12-2.53-.21-.83-.57-1.61-1.08-2.29-.51-.69-1.15-1.26-1.88-1.7-.23-.14-.47-.26-.71-.36-.2-.09-.4-.17-.6-.24-1.47-.49-3.07-.43-4.5.15-1.44.58-2.62,1.65-3.33,3.02h0l-.07.19Z"/><path class="cls-2" d="M59.5,132.01c2.3-1.69,5.17-2.43,8-2.06,2.83.37,5.42,1.82,7.21,4.04,1.79,2.23,2.66,5.06,2.41,7.91-.24,2.85-1.58,5.49-3.72,7.38h-.12c-.28-.09-.53-.25-.73-.46-.2-.21-.34-.48-.41-.76-.93-2.82-2.84-5.22-5.38-6.76-2.54-1.54-5.54-2.13-8.48-1.66-.13.03-.26.07-.39.13-.32.13-.58.37-.74.68-.16.31-.2.66-.11,1,.69,2.78,2.39,5.21,4.76,6.82,2.37,1.61,5.26,2.28,8.1,1.89.24.39.54.74.88,1.05-2.5,1.19-5.35,1.4-8,.59-2.65-.81-4.9-2.57-6.31-4.96-1.41-2.38-1.88-5.2-1.32-7.91.56-2.71,2.12-5.11,4.36-6.74l-.03-.19ZM68.68,147.18c-1.72.07-3.41-.36-4.88-1.25-1.47-.89-2.64-2.19-3.38-3.74,1.69.03,3.35.51,4.8,1.38,1.45.88,2.64,2.12,3.46,3.61h0ZM74.14,152.39c2.25-1.61,3.98-3.86,4.96-6.45.98-2.59,1.16-5.42.53-8.12-.63-2.7-2.05-5.15-4.07-7.04-2.02-1.89-4.56-3.14-7.3-3.59-2.74-.45-5.54-.07-8.06,1.07-2.52,1.15-4.65,3.02-6.11,5.38-1.46,2.36-2.18,5.09-2.09,7.87.1,2.77,1.02,5.45,2.64,7.7,2.17,3,5.44,5.02,9.09,5.62,3.65.6,7.39-.27,10.41-2.42Z"/><path class="cls-1" d="M89.42,138.16c-.2-.14-.38-.32-.52-.53-.26-.41-.34-.9-.24-1.37l.09-.39c.35-.04.68-.16.97-.35.3-.19.56-.44.74-.74l.41.1c.23.05.46.14.65.27.2.13.37.3.5.5.13.21.22.44.27.68.07.36.03.73-.12,1.06-.15.33-.39.61-.7.81-.31.2-.67.3-1.04.29-.37,0-.72-.12-1.02-.33h0ZM91.22,133.35l-.41-.09c-.04-.35-.17-.68-.35-.98-.19-.29-.44-.53-.74-.71l.09-.41c.08-.35.27-.67.53-.92s.59-.41.95-.48c.36-.06.73-.02,1.06.12.33.14.62.38.82.68.2.3.31.66.31,1.02s-.11.72-.31,1.02c-.21.31-.51.54-.85.68-.35.13-.73.16-1.09.07h0ZM88.05,132.91c.13-.08.28-.12.43-.12.15,0,.3.05.42.14.12.09.22.21.27.35.05.14.07.29.03.44-.03.15-.11.28-.22.38-.11.1-.25.17-.4.2-.15.03-.3,0-.44-.05-.14-.06-.26-.16-.34-.29-.06-.08-.1-.18-.11-.28-.02-.1-.02-.2,0-.3.02-.1.06-.19.12-.27.06-.08.13-.15.22-.2h0ZM85.64,137.28c-.36.07-.73.03-1.07-.11s-.62-.38-.82-.69c-.2-.3-.31-.66-.31-1.02s.11-.72.31-1.02c.2-.3.5-.53.84-.66.34-.13.71-.16,1.07-.08l.41.09c.04.35.17.68.35.98.19.29.44.53.74.71l-.09.41c-.06.35-.22.68-.46.94-.24.26-.56.44-.91.52l-.06-.06ZM86.45,132.25l-.41-.09c-.23-.05-.46-.14-.65-.27-.2-.13-.37-.3-.5-.5-.13-.21-.22-.44-.27-.69-.07-.36-.03-.72.11-1.06.14-.33.39-.61.7-.81.31-.2.67-.31,1.03-.31s.73.11,1.03.31c.2.15.38.32.52.53.13.2.21.42.25.65.04.23.03.47-.02.7l-.09.41c-.35.04-.69.16-.99.35-.3.22-.55.5-.72.83v-.06ZM93.83,136c-.08-.44-.24-.87-.49-1.25l-.16-.23c.49-.26.91-.63,1.22-1.08.38-.55.59-1.2.59-1.87,0-.67-.18-1.32-.55-1.89-.37-.56-.89-1.01-1.51-1.28-.62-.27-1.31-.35-1.97-.24-.54.1-1.04.33-1.48.66l-.13-.25c-.25-.38-.58-.71-.96-.96-.56-.38-1.22-.59-1.89-.6-.68-.01-1.34.17-1.92.54-.57.36-1.02.88-1.29,1.49-.27.61-.35,1.29-.24,1.95.08.45.25.87.5,1.25.05.08.1.16.16.23-.4.23-.76.54-1.03.91-.28.37-.48.79-.59,1.23-.11.45-.13.91-.05,1.36.08.45.25.89.5,1.27.25.39.58.72.96.98.38.26.82.44,1.28.52.46.09.93.08,1.38-.01.45-.1.88-.28,1.26-.55.04.08.09.16.15.23.25.38.57.71.94.98.56.38,1.22.59,1.9.6.68.01,1.35-.18,1.92-.54.57-.36,1.02-.89,1.29-1.5s.35-1.3.23-1.96h-.03Z"/><path class="cls-2" d="M29.37,153.46c-.74-.05-1.46-.25-2.12-.58-.63-.32-1.19-.77-1.65-1.31-.46-.54-.8-1.17-1.01-1.85l-.39-1.18c.82-.64,1.48-1.45,1.95-2.38.47-.93.72-1.94.75-2.98l1.18-.38c.67-.23,1.38-.33,2.09-.28.71.05,1.4.24,2.03.56.66.33,1.25.79,1.73,1.35.7.82,1.15,1.83,1.28,2.91.13,1.07-.06,2.16-.55,3.13-.49.97-1.25,1.77-2.19,2.3-.94.53-2.02.77-3.09.69ZM26.61,138.34l-1.16.38c-.64-.82-1.45-1.49-2.37-1.95-.92-.47-1.94-.73-2.98-.76l-.39-1.17c-.34-1.03-.36-2.13-.07-3.18.29-1.04.88-1.98,1.7-2.68.82-.71,1.83-1.15,2.9-1.28,1.07-.13,2.16.06,3.13.55.96.49,1.76,1.25,2.29,2.19.53.94.77,2.02.69,3.1-.08,1.08-.48,2.11-1.14,2.96-.67.85-1.57,1.49-2.6,1.83ZM17.89,141.98c.2-.41.52-.74.92-.97.4-.22.85-.33,1.3-.29.45.03.89.2,1.24.48s.63.66.77,1.09c.14.43.15.9.03,1.34-.12.44-.37.83-.71,1.13-.34.3-.77.49-1.22.54-.45.06-.91-.02-1.31-.23-.27-.13-.51-.32-.71-.55-.2-.23-.35-.49-.45-.78-.1-.29-.13-.59-.11-.89.02-.3.1-.6.24-.87h.01ZM18.51,157.05c-.61.53-1.34.91-2.12,1.12-.78.21-1.6.25-2.39.11-.79-.14-1.55-.46-2.21-.93-.66-.47-1.21-1.08-1.6-1.78-.4-.71-.63-1.49-.69-2.29-.06-.81.06-1.62.36-2.37.29-.75.75-1.43,1.33-1.99.59-.56,1.29-.98,2.05-1.23l1.16-.38c.64.82,1.45,1.49,2.37,1.95.92.47,1.94.73,2.98.75l.39,1.17c.35,1.03.37,2.14.08,3.19-.3,1.05-.9,1.98-1.73,2.68h.01ZM12.94,142.84l-1.16.39c-.67.23-1.38.33-2.09.28-.71-.05-1.4-.24-2.03-.57-1.15-.56-2.06-1.5-2.59-2.66-.53-1.16-.63-2.47-.3-3.7.33-1.23,1.09-2.31,2.13-3.04,1.04-.73,2.31-1.08,3.58-.98.74.06,1.46.26,2.12.6.63.32,1.2.76,1.66,1.31.46.54.81,1.17,1.02,1.85l.38,1.16c-.82.63-1.49,1.44-1.95,2.37-.48.92-.74,1.94-.77,2.99h.01ZM37.5,141.38c-.88-1.03-1.95-1.88-3.15-2.49-.25-.13-.51-.25-.77-.35,1.27-2.07,1.77-4.52,1.39-6.92-.37-2.4-1.59-4.59-3.43-6.17-1.84-1.58-4.18-2.45-6.61-2.45-2.42,0-4.77.86-6.62,2.44-1.27,1.07-2.27,2.42-2.91,3.95-.23-.16-.47-.3-.73-.42-1.21-.61-2.53-.97-3.88-1.06-2.34-.14-4.65.53-6.55,1.89-1.9,1.37-3.27,3.35-3.89,5.61-.61,2.26-.43,4.67.52,6.81.95,2.14,2.61,3.89,4.7,4.95.25.13.51.25.76.35-.84,1.41-1.34,2.99-1.45,4.63-.13,1.99.33,3.98,1.32,5.71.99,1.73,2.46,3.14,4.24,4.04,1.78.9,3.78,1.26,5.76,1.04,1.98-.23,3.85-1.03,5.38-2.31,1.28-1.06,2.27-2.41,2.91-3.95.25.15.48.29.73.41,1.21.61,2.53.97,3.88,1.08,2,.15,4-.31,5.75-1.29,1.75-.99,3.16-2.48,4.07-4.27.91-1.79,1.26-3.82,1.02-5.82s-1.06-3.88-2.37-5.41h-.06Z"/><path class="cls-1" d="M102.42,147.16c.24.02.47.08.69.18.21.1.39.25.54.42.15.17.26.38.34.6l.13.37c-.26.21-.48.48-.63.78-.14.3-.22.64-.23.97l-.38.13c-.21.08-.44.11-.67.1-.23-.01-.45-.08-.65-.18-.22-.1-.41-.25-.56-.42-.23-.26-.38-.58-.43-.93-.05-.35,0-.7.16-1.01.15-.31.39-.58.69-.75.3-.18.64-.26.99-.24h.03ZM103.36,152.05l.37-.13c.22.26.48.47.78.62.3.15.64.22.97.23l.13.38c.12.33.13.69.04,1.03-.09.34-.28.65-.54.88-.26.23-.59.38-.94.42s-.7-.01-1.01-.17c-.31-.15-.58-.4-.75-.7-.18-.3-.26-.65-.24-1,.02-.35.15-.68.36-.96s.51-.49.84-.6h0ZM106.18,150.83c-.06.13-.17.24-.29.31-.13.07-.27.11-.41.1-.14,0-.28-.06-.4-.15-.11-.09-.2-.21-.25-.35-.05-.14-.05-.29-.02-.43.04-.14.11-.27.22-.36.11-.1.24-.16.39-.18.14-.02.29,0,.42.07.09.04.16.1.23.18.06.07.11.16.14.25.03.09.04.19.03.29,0,.1-.03.19-.08.28h.01ZM105.93,145.96c.26-.23.59-.38.93-.42.35-.04.7.01,1.01.17.32.15.59.39.76.7.18.31.25.66.22,1.01-.02.35-.15.68-.36.96-.21.28-.5.48-.84.59l-.37.13c-.22-.26-.48-.47-.78-.62-.3-.15-.64-.22-.97-.23l-.13-.38c-.12-.33-.13-.69-.04-1.03.09-.34.27-.65.54-.88h.01ZM107.77,150.54l.38-.13c.22-.08.45-.11.68-.1.23.01.46.08.66.18.21.1.4.25.56.42.23.26.37.59.42.94.05.35-.01.7-.17,1.01-.15.32-.39.59-.7.76-.31.18-.66.25-1.01.22-.24-.01-.47-.07-.68-.18-.21-.1-.39-.24-.54-.42-.15-.18-.26-.38-.33-.6l-.13-.37c.26-.21.47-.48.62-.78.14-.31.21-.64.21-.97h.01ZM99.85,151.1c.28.33.63.6,1.03.79l.24.11c-.27.46-.43.97-.47,1.5-.04.65.11,1.29.44,1.86.33.56.81,1.02,1.39,1.3.58.29,1.24.4,1.88.31.64-.09,1.25-.36,1.73-.79.4-.35.72-.79.92-1.29l.23.14c.4.19.83.3,1.27.32.76.05,1.51-.17,2.13-.61.62-.45,1.06-1.09,1.26-1.83.19-.74.13-1.52-.19-2.21-.32-.69-.86-1.26-1.55-1.59l-.25-.11c.27-.45.43-.97.47-1.5.04-.65-.11-1.3-.43-1.86-.32-.56-.81-1.02-1.39-1.31-.58-.29-1.24-.4-1.88-.31-.64.08-1.25.36-1.74.79-.4.35-.71.79-.9,1.29l-.24-.13c-.39-.19-.82-.3-1.25-.32-.65-.05-1.3.09-1.86.42-.56.33-1.02.82-1.29,1.4-.31.59-.43,1.26-.35,1.92.08.66.37,1.28.81,1.77v-.06Z"/><path class="cls-1" d="M44.97,166.36c-.58-1.28-.64-2.73-.19-4.07.45-1.33,1.39-2.44,2.63-3.11,1.24-.67,2.68-.84,4.04-.48,1.36.36,2.53,1.21,3.29,2.4h0c-.07.13-.17.24-.29.32-.12.08-.27.12-.42.12h0c-1.47.2-2.83.92-3.82,2.03-.99,1.11-1.56,2.53-1.6,4.02,0,.07,0,.13,0,.2.04.17.13.32.27.42.14.1.31.15.48.14,1.44-.07,2.8-.68,3.81-1.7,1.01-1.02,1.61-2.39,1.66-3.83.22-.07.42-.19.59-.33.38,1.35.24,2.79-.4,4.03-.64,1.24-1.72,2.2-3.03,2.68-1.31.48-2.76.45-4.05-.09-1.29-.54-2.33-1.55-2.91-2.82l-.07.06ZM53.28,163.24c-.12.85-.48,1.65-1.06,2.29-.57.64-1.32,1.1-2.16,1.31.16-.83.55-1.61,1.11-2.24.56-.64,1.29-1.11,2.1-1.37h0ZM56.33,161.02c-.59-1.25-1.54-2.3-2.72-3.01-1.19-.71-2.56-1.06-3.94-.99-1.38.07-2.71.54-3.83,1.36-1.11.82-1.96,1.96-2.43,3.26-.47,1.3-.54,2.71-.21,4.06.33,1.34,1.06,2.56,2.08,3.49,1.02.93,2.3,1.54,3.67,1.75,1.37.21,2.77,0,4.02-.59.83-.39,1.58-.94,2.2-1.62.62-.68,1.1-1.48,1.41-2.34.31-.87.45-1.78.41-2.7-.04-.92-.27-1.82-.66-2.65h0Z"/><path class="cls-2" d="M77.45,160.72c.84.1,1.64.44,2.29.98.65.54,1.12,1.27,1.36,2.08.24.81.23,1.67-.02,2.48-.25.81-.73,1.52-1.39,2.06-.66.54-1.46.86-2.3.95-.84.08-1.69-.08-2.44-.48-.75-.4-1.37-1-1.77-1.74-.41-.74-.58-1.58-.51-2.43.12-1.15.69-2.2,1.59-2.93.9-.73,2.05-1.08,3.2-.96h0ZM70.14,163.58l-.14,1.43,1.08.17c-.01.22-.01.44,0,.66l-1.03.39.42,1.43,1.08-.24c.1.22.22.44.35.64l-.81.74.93,1.16.89-.64.52.43-.46,1,1.29.7.6-.93c.23.09.46.16.69.21v1.1l1.44.16.19-1.09c.22-.01.44-.03.66-.07l.39,1.04,1.44-.41-.24-1.09c.22-.1.43-.21.63-.33l.76.82,1.15-.95-.65-.9c.15-.16.29-.32.42-.5l1.02.46.72-1.29-.95-.6c.09-.22.16-.45.22-.69h1.12l.14-1.43-1.11-.19c.01-.21.01-.43,0-.64l1.06-.39-.43-1.43-1.09.24c-.1-.21-.22-.43-.33-.64l.82-.76-.93-1.15-.91.66c-.17-.16-.33-.3-.5-.43l.46-1-1.31-.71-.59.94c-.23-.08-.46-.16-.69-.21v-1.12l-1.44-.14-.19,1.09c-.22-.01-.44-.01-.66,0l-.39-1.04-1.44.43.24,1.06-.65.34-.75-.8-1.15.93.63.9c-.16.16-.3.32-.43.5l-1.01-.46-.7,1.3.93.59c-.08.23-.16.46-.22.69l-1.11.06ZM77.17,163.37c.33.03.65.16.91.38.26.21.45.5.54.82.09.32.09.66-.01.98-.1.32-.3.6-.56.81-.26.21-.58.33-.92.35-.33.02-.67-.05-.96-.22-.29-.17-.53-.42-.67-.72-.15-.3-.2-.64-.15-.97.07-.43.3-.82.65-1.08.35-.26.79-.38,1.22-.32l-.04-.03ZM76.68,168.19c.63.06,1.26-.07,1.81-.37.55-.3,1.01-.75,1.3-1.31.3-.55.42-1.18.36-1.81-.06-.62-.31-1.22-.71-1.7-.4-.49-.93-.84-1.54-1.03-.6-.18-1.25-.18-1.85,0-.6.18-1.14.54-1.54,1.02s-.65,1.07-.72,1.7c-.04.42,0,.84.12,1.25.12.4.32.78.59,1.11.27.33.6.6.97.8.37.2.78.32,1.2.37v-.03Z"/><path class="cls-2" d="M38.96,166c.19.12.35.27.49.45,1.24-.45,2.58-.38,3.77.2,1.19.58,2.15,1.62,2.68,2.92.07.16.08.33.03.5-.04.16-.14.3-.28.4-.04.05-.1.08-.16.09-1.27.5-2.66.48-3.92-.05-1.26-.53-2.31-1.53-2.96-2.84h0c-.05-.13-.14-.25-.25-.33-.11-.09-.23-.14-.36-.16-.76,1.11-1.12,2.49-.99,3.88.13,1.38.73,2.66,1.68,3.58.95.92,2.18,1.41,3.44,1.37,1.26-.04,2.47-.61,3.37-1.58.9-.98,1.43-2.29,1.48-3.68.05-1.39-.37-2.75-1.19-3.81-.82-1.06-1.98-1.73-3.23-1.89-1.26-.16-2.52.21-3.54,1.04l-.07-.07ZM40.22,167.7c.75-.17,1.53-.1,2.25.21.72.3,1.34.82,1.8,1.5-.75.13-1.52.04-2.23-.26-.71-.3-1.34-.8-1.82-1.45h0Z"/></svg>