<?xml version="1.0" encoding="UTF-8"?><svg id="Layer_1" xmlns="http://www.w3.org/2000/svg" viewBox="0 0 417.02 148.79"><defs><style>.cls-1{fill-rule:evenodd;}.cls-1,.cls-2,.cls-3{stroke-width:0px;}.cls-1,.cls-3{fill:#b2b7b8;}.cls-2{fill:#a7ff00;}</style></defs><path class="cls-2" d="M44.37,129.25c-4.7-.53-9.17-2.33-12.91-5.23,1.25.37,2.52.63,3.82.77,5.68.65,11.38-.97,15.86-4.51.4-.29.7-.55.97-.78l.29-.26c3.03-2.72,5.09-6.17,8.32-12.38.68-1.32,1.71-2.43,2.98-3.2.37-.24.77-.42,1.2-.53l.29-.03c.48-.09.96-.14,1.44-.15.47-.03.94-.02,1.42.02.53.06,1.05.19,1.54.39.61.26,1.19.59,1.74.96.51.36.92.83,1.21,1.38.29.55.44,1.16.43,1.78-1.04,6.62-4.59,12.58-9.92,16.64-5.33,4.06-12.03,5.89-18.68,5.13h0ZM27.04,113.11c1.07.07,2.14.01,3.2-.17.98-.16,1.94-.41,2.86-.75l.41-.18c.96-.4,1.87-.92,2.69-1.55,2.16-1.66,3.84-3.87,4.87-6.4,2.24-5.56,3.68-8.63,5.57-10.73l.23-.25c.17-.15.29-.33.56-.56,1.5-1.46,3.3-2.56,5.28-3.24,1.98-.68,4.08-.9,6.16-.66,1.14.11,2.26.38,3.32.8,3.24,1.18,5.96,3.47,7.66,6.47-.34-.08-.69-.14-1.04-.17-.88-.09-1.77-.12-2.65-.07-1,.05-1.99.21-2.96.46l-.44.16c-1,.31-1.96.75-2.85,1.29-2.34,1.48-4.25,3.54-5.55,5.99-1.64,3.8-3.91,7.29-6.7,10.35l-.28.21-.61.52c-3.02,2.37-6.84,3.46-10.66,3.04-1.63-.18-3.22-.64-4.7-1.37-1.64-.78-3.12-1.87-4.36-3.2h0ZM26.08,105.71c-1.1-.36-2.07-1.05-2.77-1.97-.7-.92-1.11-2.03-1.18-3.19-.08-2.32.34-4.63,1.23-6.78,1.99-4.82,5.37-8.94,9.72-11.82,4.35-2.88,9.46-4.39,14.67-4.34.89.03,1.77.11,2.65.23,4,.45,7.84,1.82,11.21,4.01-.61-.12-1.23-.22-1.85-.29-3.12-.37-6.28-.04-9.25.97-2.97,1-5.69,2.66-7.94,4.84l-.85.86-.27.28c-2.69,2.96-4.37,6.53-6.96,12.93-.54,1.34-1.43,2.52-2.57,3.41-.34.25-.71.45-1.1.61l-.29.03c-.44.17-.89.29-1.36.34-.67.12-1.35.13-2.02.05-.36,0-.72-.06-1.07-.17h0ZM80.09,107.94c.18-1.29.29-2.6.31-3.91.17-8.21-2.74-16.19-8.16-22.37-5.42-6.18-12.95-10.1-21.11-11.01-1.06-.12-2.16-.19-3.26-.21-7.45-.14-14.74,2.25-20.65,6.79-5.92,4.54-10.12,10.95-11.92,18.18l-.11.45c-1.01,4.21-1.19,8.59-.51,12.87.68,4.28,2.19,8.39,4.46,12.09,2.26,3.7,5.24,6.91,8.74,9.46,3.51,2.55,7.48,4.38,11.7,5.39,1.31.32,2.65.56,3.99.71,1.08.12,2.3.18,3.26.22,7.87.12,15.52-2.58,21.59-7.59,6.07-5.02,10.15-12.03,11.51-19.78l.18-.02v-1.25Z"/><path class="cls-3" d="M17.67,49.88c.42-.25.76-.62.97-1.06.21-.44.29-.93.23-1.42-.07-.49-.27-.94-.59-1.31-.32-.37-.74-.63-1.21-.76-.47-.13-.97-.11-1.43.04-.46.16-.87.44-1.16.83-.3.39-.48.85-.51,1.34-.04.49.07.98.31,1.41.16.29.38.54.64.75.26.2.56.35.87.44.32.09.65.11.97.06.33-.04.64-.15.92-.32h0ZM31.9,38.62c-.58-1.03-1.45-1.86-2.5-2.39-1.05-.52-2.24-.71-3.4-.55-1.17.15-2.26.65-3.14,1.43-.88.78-1.51,1.81-1.81,2.95l-.35,1.31c.94.64,1.72,1.49,2.29,2.47.57.99.92,2.09,1.01,3.22l1.25.31c1.14.32,2.34.29,3.46-.09s2.1-1.08,2.81-2.03c.72-.94,1.13-2.08,1.2-3.27.07-1.19-.22-2.37-.82-3.39h0ZM12.15,53.98c-.93-.63-1.72-1.47-2.29-2.45s-.92-2.07-1.01-3.2l-1.25-.36c-1.14-.31-2.34-.27-3.45.11-1.11.38-2.09,1.08-2.81,2.02-.72.94-1.14,2.07-1.22,3.26-.08,1.18.19,2.37.78,3.39.59,1.03,1.46,1.86,2.52,2.39,1.06.53,2.24.73,3.41.58,1.17-.15,2.26-.65,3.15-1.43.89-.78,1.52-1.81,1.83-2.95l.35-1.36ZM16.15,38.85c.23-.75.3-1.53.22-2.3-.08-.78-.31-1.53-.68-2.21-.39-.7-.92-1.31-1.55-1.81-.94-.73-2.07-1.15-3.25-1.22-1.18-.07-2.35.21-3.37.82-1.02.58-1.85,1.45-2.36,2.51-.52,1.06-.7,2.25-.54,3.42.13.8.39,1.56.77,2.28.8,1.34,2.08,2.32,3.59,2.73l1.3.36c.64-.94,1.48-1.72,2.46-2.3.98-.57,2.07-.92,3.19-1.03l.21-1.25ZM28.34,57.23c-.13-.8-.39-1.56-.77-2.28-.8-1.34-2.08-2.32-3.59-2.73l-1.3-.36c-.64.94-1.48,1.72-2.46,2.3-.98.57-2.07.92-3.19,1.03l-.31,1.26c-.23.75-.3,1.53-.22,2.3.08.78.31,1.53.68,2.21.41.7.95,1.31,1.59,1.8.93.7,2.05,1.11,3.22,1.18,1.16.07,2.32-.21,3.33-.8,1.01-.59,1.82-1.46,2.34-2.51.52-1.05.72-2.23.58-3.4h.1Z"/><path class="cls-3" d="M47.51,54.98c.33,1.04.96,1.95,1.81,2.63.85.68,1.88,1.09,2.97,1.18,1.08.09,2.17-.14,3.12-.67.95-.53,1.72-1.32,2.22-2.29.5-.97.7-2.06.57-3.14-.12-1.08-.56-2.1-1.27-2.93-.7-.83-1.64-1.43-2.68-1.73-1.05-.3-2.16-.28-3.19.05-.69.22-1.33.57-1.88,1.03-.55.47-1.01,1.03-1.34,1.68-.33.64-.53,1.34-.59,2.06-.06.72.03,1.44.25,2.13h0ZM43.83,56.14l-.25-.73,1.36-.54c-.29-1.49-.14-3.03.44-4.43l-1.24-.76.39-.67.33-.69,1.32.57c.85-1.27,2.05-2.27,3.46-2.88l-.34-1.38.74-.23.73-.25.52,1.37c1.49-.28,3.02-.13,4.43.44l.76-1.24.67.36.69.33-.59,1.38c1.27.83,2.27,2.02,2.88,3.41l1.41-.35.23.76.25.71-1.39.55c.28,1.49.13,3.02-.44,4.43l1.27.76-.36.67-.33.69-1.38-.59c-.82,1.25-1.97,2.24-3.33,2.87l.35,1.43-.76.2-.71.25-.54-1.36c-1.48.3-3.01.16-4.42-.39l-.78,1.27-.67-.39-.69-.33.6-1.33c-1.27-.87-2.27-2.07-2.89-3.48l-1.38.34-.3-.75ZM49.84,54.23c-.19-.58-.2-1.19-.03-1.78.17-.58.5-1.1.96-1.49.46-.39,1.03-.64,1.63-.7.6-.07,1.21.04,1.75.32.54.28.98.71,1.27,1.24.29.53.42,1.14.36,1.74-.05.6-.29,1.18-.67,1.65-.38.47-.89.82-1.47.99-.38.12-.78.16-1.17.13-.4-.03-.78-.15-1.13-.33-.35-.18-.67-.43-.92-.74-.26-.3-.45-.66-.57-1.03h0Z"/><path class="cls-2" d="M74.14,59.39c1.75.48,3.71.69,5.72.63-1.02-.47-1.96-1.01-2.79-1.6l-2.93.97Z"/><path class="cls-2" d="M74.15,53.54c-.44-.73-.83-1.48-1.17-2.24l-3.3,1.34c.27,1.67,1.2,3.2,2.66,4.38l3.3-1.36c-.55-.68-1.05-1.39-1.49-2.12h0Z"/><path class="cls-2" d="M69.39,49.78l3.61-1.56c-.32-1.45-.47-2.93-.45-4.41-1.59,1.76-2.67,3.81-3.16,5.98h0Z"/><path class="cls-2" d="M84.27,59.53c.6-.31,1.18-2.29.57-5.67l-5.33,2.68c2.18,2.54,4.16,3.3,4.76,2.99Z"/><path class="cls-2" d="M87.19,57.39c.69-1.67,1.11-3.66,1.23-5.78l-1.74,1.37c.25,1.45.42,2.93.51,4.41h0Z"/><path class="cls-2" d="M75.02,49.46c.6,1.82,1.43,3.55,2.46,5.15l5.33-2.74c-.3-.91-.65-1.8-1.06-2.65-.41-.85-.87-1.66-1.39-2.44l-5.33,2.69Z"/><path class="cls-2" d="M87.34,44.18l-3.3,1.37c.55.67,1.05,1.37,1.49,2.09.44.73.83,1.49,1.17,2.26l3.3-1.35c-.29-1.66-1.22-3.19-2.66-4.37h0Z"/><path class="cls-2" d="M75.42,41.66c-.6.31-1.18,2.29-.57,5.67l5.33-2.68c-2.27-2.53-4.16-3.3-4.76-2.99Z"/><path class="cls-2" d="M83.68,41.99c-1.19-.54-2.51-.82-3.85-.82.7.51,1.34,1.07,1.92,1.69l1.93-.87Z"/><path class="cls-2" d="M87.22,21.21c-.35.25-.75.45-1.16.57-.25,2.67-1.47,5.14-3.43,6.95-1.96,1.81-4.52,2.82-7.18,2.84-.32.01-.63-.1-.88-.3-.25-.21-.41-.5-.45-.82l-.04-.39c.19-2.77,1.36-5.38,3.3-7.35,1.94-1.97,4.52-3.18,7.26-3.39.27,0,.53-.07.76-.2.23-.13.43-.32.57-.55-1.26-2.28-3.33-4.01-5.79-4.82-2.47-.81-5.14-.65-7.49.45-2.35,1.1-4.2,3.05-5.17,5.47-.97,2.42-1,5.12-.07,7.56.93,2.44,2.74,4.43,5.07,5.58,2.33,1.15,5,1.37,7.48.61,2.48-.76,4.58-2.43,5.88-4.69,1.3-2.26,1.7-4.93,1.12-7.47l.22-.05ZM83.3,22.28c-.32,1.57-1.08,3.01-2.2,4.16-1.11,1.14-2.53,1.94-4.08,2.29.39-1.54,1.18-2.94,2.28-4.07,1.1-1.13,2.48-1.95,4-2.38h0Z"/><path class="cls-2" d="M46.23,8.25c-.26-.08-.54-.07-.8.01-.26.08-.49.24-.66.46-.17.21-.27.47-.3.75-.02.27.04.55.17.79.13.24.34.43.58.56.24.12.52.17.79.14.27-.03.53-.15.73-.33.21-.18.36-.42.43-.68.1-.35.05-.72-.13-1.04-.18-.32-.47-.55-.82-.65h0ZM36.39,6.93c-.18.62-.17,1.28.03,1.9.2.61.58,1.16,1.08,1.56.51.4,1.12.64,1.77.68.64.05,1.29-.1,1.85-.42l.66-.36c-.11-.61-.09-1.23.08-1.83s.47-1.14.88-1.61l-.36-.63c-.31-.57-.77-1.03-1.34-1.33-.57-.3-1.21-.43-1.86-.36-.64.07-1.25.32-1.74.73-.5.41-.86.96-1.05,1.57v.11ZM49.92,8.86c.1.61.07,1.23-.1,1.82-.17.59-.46,1.14-.86,1.61l.36.66c.31.57.77,1.03,1.34,1.33.57.3,1.21.43,1.86.36.64-.07,1.25-.32,1.74-.73.5-.41.86-.96,1.05-1.57.18-.62.17-1.28-.03-1.9-.2-.61-.58-1.16-1.08-1.56-.51-.4-1.12-.64-1.77-.68-.64-.05-1.29.1-1.85.42l-.67.23ZM42.35,13.07c-.37.2-.7.48-.95.81-.26.33-.45.72-.55,1.13-.12.42-.16.86-.11,1.29.08.64.35,1.24.77,1.72.42.49.97.84,1.59,1.01.62.17,1.27.16,1.89-.04.61-.2,1.15-.57,1.55-1.07.27-.35.46-.75.57-1.18.12-.4.17-.82.12-1.24-.04-.42-.17-.82-.37-1.19l-.36-.66c-.61.11-1.23.09-1.83-.08-.59-.17-1.14-.47-1.6-.88l-.71.37ZM44.93,1.23c-.27.35-.46.75-.57,1.18-.12.4-.17.82-.12,1.24.04.42.17.82.37,1.19l.36.66c.61-.11,1.23-.09,1.83.08.59.17,1.14.47,1.6.88l.63-.36c.75-.42,1.3-1.12,1.54-1.94.12-.42.15-.86.11-1.29-.08-.64-.35-1.24-.77-1.72-.42-.49-.97-.84-1.59-1.01s-1.27-.16-1.89.04c-.61.2-1.15.57-1.55,1.07h.05Z"/><path class="cls-1" d="M99.49,101.48c.26-1.04.57-2.07.95-3.08l-3.57-.95c-1.15,1.9-1.68,4.14-1.53,6.38l3.57.95c.13-1.11.33-2.22.58-3.31ZM97.53,106.81c.5,1.35,1.27,2.57,2.24,3.54-.18-.98-.29-1.97-.3-2.96l-1.94-.58ZM102.32,96.9l-2.13-.99c.96-1.46,2.16-2.46,3.47-2.92-.53,1.21-.98,2.52-1.34,3.91ZM103.27,113.74c.65.15,2.33-.98,3.99-3.95l-5.77-1.49c.14,3.43,1.14,5.26,1.79,5.44ZM113.09,111.51c-1.59.84-3.47,1.46-5.47,1.81.9-.67,1.7-1.38,2.39-2.13l3.08.32ZM104.42,100.45c-.66,1.79-1.1,3.65-1.32,5.55l5.81,1.53c.33-.87.61-1.76.82-2.66.23-.92.4-1.87.51-2.81l-5.82-1.6ZM112.37,101.53l3.57.96c.14,2.24-.4,4.47-1.53,6.37l-3.57-.96c.37-1.01.69-2.05.95-3.1.25-1.08.45-2.17.59-3.27ZM108.2,94.43c-.64-.08-2.36.74-4.11,2.78l5.7.81c-.02-2.3-.99-3.48-1.6-3.59ZM113.37,95.77c.98.97,1.75,2.18,2.25,3.54l-1.94-.58c-.02-.99-.12-1.98-.3-2.96Z"/><path class="cls-2" d="M110.81,72.15c-.08,0-.15,0-.22.02h0c-.97.06-1.91.32-2.76.76l-.29.18c-.78.48-1.44,1.1-1.91,1.83-.06.05-.1.12-.12.19-.56.9-.8,1.92-.69,2.93.06.96.4,1.89.99,2.69.59.8,1.41,1.45,2.37,1.88.96.43,2.04.63,3.13.57,1.09-.05,2.15-.36,3.08-.88.93-.52,1.7-1.25,2.23-2.1.53-.85.81-1.81.8-2.78,0-.97-.29-1.91-.83-2.74-.54-.83-1.32-1.51-2.26-1.98-1.06-.53-2.3-.73-3.52-.57h0ZM102.27,75.75c-.08-.18-.2-.33-.36-.47-.35-.26-.77-.45-1.22-.55-.51-.07-1.03-.02-1.52.15-.1,0-.21.01-.31.03-.11.05-.2.11-.27.19s-.13.18-.16.28c-.17.59.58,1.27,1.65,1.49.46.07.94.02,1.38-.14.15-.03.29-.09.41-.17.11-.04.2-.11.28-.19.08-.08.13-.18.16-.28.02-.12,0-.24-.04-.35ZM107.33,69.72c.32.14.68.17,1.03.1l.25-.03c.2-.12.36-.27.49-.45.23-.39.37-.82.41-1.25.04-.44-.02-.87-.18-1.28l-.02-.15c-.5-1.28-1.66-2.06-2.57-1.82-.09,0-.19,0-.28.03-.39.33-.66.75-.8,1.21-.13.46-.12.94.04,1.38l.04.35c.23.7.71,1.31,1.37,1.74l.22.18ZM114,66.71c-.23-.05-.48-.02-.7.07-.11.07-.22.15-.32.23-.33.31-.57.69-.69,1.1-.12.41-.12.84,0,1.25.07.18.17.35.31.5.05.07.11.12.18.17s.15.07.24.09c.23.06.48.03.7-.07l.37-.26c.31-.32.52-.71.62-1.12.28-.91.18-1.85-.6-1.97h-.11ZM100.32,71.64c-1.03-.95-1.3-2.23-.66-2.84.07-.07.15-.12.24-.18.5-.15,1.04-.18,1.55-.08.51.1.98.33,1.34.66.08.04.15.1.21.15.61.49,1.02,1.14,1.15,1.86l.03.25c.01.16,0,.32-.07.47-.06.15-.15.29-.27.42l-.2.02c-.08.02-.17.03-.25.03-.14.03-.28.04-.42.04-.48.02-.95-.05-1.39-.21-.44-.15-.84-.39-1.17-.69l-.1.09Z"/><path class="cls-3" d="M110.92,13.34c-1.61-.61-3.59-.99-5.77-1.13.89.5,1.64,1.06,2.24,1.66l3.53-.53Z"/><path class="cls-3" d="M110.16,19.49c.22,1.14.4,2.3.54,3.46l2.86-.83c.07-2.38-.41-4.78-1.39-6.86l-2.86.83c.34,1.11.62,2.25.85,3.4h0Z"/><path class="cls-3" d="M112.07,24.7l-1.47.51c.06,1.15.05,2.29-.02,3.41.67-1.04,1.18-2.38,1.49-3.92h0Z"/><path class="cls-3" d="M101.52,10.7c-.62.06-1.51,2.1-1.59,5.81l5.5-1.47c-1.57-3.24-3.2-4.52-3.92-4.34Z"/><path class="cls-3" d="M97.69,12.97c-1.45,1.13-2.59,2.54-3.35,4.11l2.94-.66c.01-1.15.15-2.31.41-3.45h0Z"/><path class="cls-3" d="M108.08,22.49c-.19-1.64-.64-3.25-1.32-4.78l-6.56,1.4c.1.82.26,1.62.47,2.42.22.8.5,1.59.85,2.36l6.56-1.4Z"/><path class="cls-3" d="M94.64,26.48l4.32-.98c-.45-1.1-.82-2.23-1.1-3.37-.28-1.14-.49-2.29-.63-3.45l-4.32.98c-.23,2.4.38,4.79,1.73,6.82h0Z"/><path class="cls-3" d="M105.61,31.01c.41-.04.94-2.05.87-5.74l-3.64,1.28c1.31,3.26,2.45,4.59,2.77,4.46Z"/><path class="cls-3" d="M97.38,28.43c1.18,1.42,2.58,2.46,4.08,3.01-.67-1.12-1.26-2.32-1.75-3.59l-2.33.58Z"/><path class="cls-2" d="M262.07,17.83c-.06,0-.12,0-.18.02-.85-.19-1.73-.17-2.57.03h-.13s-.2.03-.31.04c-.81.26-1.55.7-2.16,1.28h0l-.18.02c-.72.73-1.2,1.66-1.38,2.67-.27,1.17-.15,2.4.35,3.49.5,1.1,1.34,2,2.41,2.59,1.19.65,2.59.86,3.93.59,1.34-.27,2.55-1,3.39-2.06.84-1.06,1.27-2.38,1.21-3.73s-.61-2.62-1.55-3.59c-.78-.73-1.77-1.21-2.84-1.35h0ZM253.68,19.17c-.05-.19-.12-.38-.21-.56-.23-.35-.54-.64-.91-.84-.4-.22-.86-.33-1.32-.32-.1,0-.21,0-.31.03-.11.02-.21.06-.3.12-.09.06-.17.14-.23.24-.31.54.14,1.37,1.04,1.86.37.2.79.31,1.22.33.14,0,.27-.02.41-.04.21-.05.4-.18.53-.36.06-.15.09-.3.08-.46h0ZM259.81,14.6c.24.23.55.36.89.36.08,0,.15,0,.23-.02.09.01.17,0,.26-.03.12-.05.23-.12.31-.21.3-.31.52-.67.67-1.07.15-.4.21-.82.18-1.24l-.02-.17c-.14-1.35-.87-2.44-1.73-2.35l-.25.03c-.42.22-.77.55-1.01.95-.24.4-.36.86-.35,1.33h0l.02.25c.01.74.26,1.45.7,2.05l.12.11ZM266.43,13.4c-.11-.03-.22-.05-.33-.04-.11.01-.22.05-.31.1-.11,0-.22.01-.33.03-.38.22-.69.53-.91.9-.22.37-.34.79-.35,1.22-.02.19,0,.37.06.55.07.15.18.28.32.37.1.03.21.04.31.03.1-.01.21-.04.3-.09.14-.03.28-.09.4-.17.37-.21.67-.52.86-.9.54-.76.52-1.72-.02-2.02h0ZM253.13,14.75c-.63-1.17-.54-2.47.22-2.93l.26-.03c.73-.2,1.71.33,2.4,1.32l.15.21c.4.63.56,1.37.47,2.1.02.08.03.17.02.25-.03.16-.1.3-.19.43-.09.13-.21.24-.35.33l-.2.02c-.2.02-.15.02-.23.02-.13.03-.25.04-.38.04-.43-.1-.83-.29-1.17-.55-.34-.27-.62-.6-.82-.99l-.18-.23Z"/><path class="cls-2" d="M137.53,97.43c2.44-2.85,5.63-4.96,9.21-6.1-.8.64-1.53,1.35-2.2,2.13-2.97,3.43-4.47,7.91-4.16,12.45l.13,1.29c.78,3.91,2.26,7.65,4.38,11.03.55,1.04.81,2.21.75,3.38,0,.35-.07.7-.19,1.03l.02.24c-.13.36-.3.71-.52,1.03-.18.32-.4.63-.64.91-.28.33-.59.62-.94.86-.45.26-.91.49-1.4.69-.45.16-.94.21-1.42.15-.48-.06-.93-.23-1.33-.49-3.91-3.62-6.28-8.62-6.59-13.95-.31-5.33,1.44-10.57,4.9-14.63h0ZM155.87,93.33c-.52.67-.97,1.4-1.33,2.18-.34.71-.61,1.46-.78,2.23l.03.32c-.15.81-.22,1.64-.18,2.47.12,2.17.81,4.27,2,6.08,1.97,2.55,3.5,5.41,4.53,8.46l.03.3.06.59c.28,1.64.2,3.32-.25,4.93-.45,1.6-1.24,3.08-2.33,4.34-.6.68-1.27,1.29-2.01,1.81-2.23,1.6-4.95,2.35-7.69,2.11.21-.19.41-.39.59-.6.46-.54.87-1.12,1.24-1.73.42-.68.76-1.4,1.03-2.15l.1-.36c.24-.79.38-1.61.43-2.44.1-2.2-.39-4.39-1.43-6.33-1.71-2.8-2.93-5.87-3.64-9.07l-.09-.91c-.23-3.07.77-6.11,2.78-8.44.86-.97,1.88-1.79,3.01-2.43,1.21-.69,2.53-1.14,3.91-1.35h0ZM161.14,96.03c.73-.56,1.6-.89,2.51-.95.91-.06,1.82.15,2.61.61,1.55,1,2.88,2.32,3.9,3.87,2.27,3.47,3.44,7.53,3.38,11.67-.06,4.14-1.36,8.17-3.73,11.56-.4.56-.81,1.12-1.25,1.62-2.07,2.4-4.66,4.29-7.58,5.53.36-.34.71-.7,1.03-1.08,1.68-1.88,2.91-4.12,3.61-6.54.69-2.43.83-4.98.4-7.47l-.1-.94-.03-.3c-1.14-3.74-2.94-7.24-5.31-10.34-.64-.95-1.01-2.06-1.06-3.21-.02-.33,0-.66.06-.99l-.03-.24c.1-.36.23-.71.41-1.05.22-.49.51-.94.87-1.34.09-.15.2-.3.31-.44h0ZM135.41,130.45c.77.7,1.58,1.35,2.43,1.96,5.29,3.77,11.79,5.43,18.23,4.67,6.44-.76,12.37-3.89,16.64-8.79.56-.65,1.11-1.36,1.61-2.07,3.42-4.81,5.12-10.63,4.81-16.53-.31-5.9-2.6-11.51-6.51-15.94l-.24-.28c-2.3-2.56-5.09-4.65-8.19-6.14-3.11-1.49-6.47-2.35-9.91-2.53-3.44-.18-6.88.31-10.12,1.46-3.25,1.15-6.23,2.93-8.79,5.23-.79.72-1.54,1.48-2.24,2.29-.58.66-1.14,1.37-1.64,2.04-3.61,5.11-5.28,11.35-4.72,17.58.56,6.24,3.32,12.07,7.77,16.46h0l.87.56Z"/><path class="cls-3" d="M143.47,66.21c-.21.37-.46.69-.76.97.75,2.56.62,5.32-.37,7.74-.99,2.42-2.77,4.34-5,5.38-.26.13-.57.16-.85.06-.28-.09-.52-.3-.68-.58l-.16-.35c-.83-2.63-.79-5.49.12-8.06.91-2.57,2.63-4.67,4.85-5.94h0c.23-.11.43-.27.58-.49.15-.22.25-.47.28-.74h0c-1.88-1.63-4.24-2.43-6.6-2.24-2.36.19-4.55,1.36-6.13,3.27-1.58,1.91-2.43,4.42-2.38,7.02.05,2.6.99,5.11,2.65,7.01,1.65,1.9,3.89,3.06,6.26,3.25,2.37.18,4.7-.62,6.51-2.26,1.82-1.64,2.99-3.98,3.28-6.56.29-2.58-.32-5.2-1.71-7.34l.11-.15ZM140.58,68.71c.31,1.57.2,3.2-.33,4.69-.53,1.49-1.44,2.76-2.63,3.66-.22-1.57-.07-3.17.45-4.63.52-1.46,1.39-2.75,2.51-3.72h0Z"/><path class="cls-2" d="M120.3,47.87c.86.66,1.91,1.06,3,1.13,1.09.07,2.17-.18,3.12-.72.94-.54,1.71-1.36,2.19-2.33.48-.98.67-2.08.52-3.16-.14-1.08-.6-2.09-1.32-2.91-.72-.82-1.67-1.41-2.72-1.69-1.05-.28-2.17-.25-3.2.11-1.03.35-1.94,1-2.6,1.86-.44.57-.77,1.23-.96,1.93-.19.7-.24,1.43-.14,2.15.1.72.33,1.41.69,2.04.36.63.85,1.17,1.42,1.61ZM118.06,50.89l-.63-.44.82-1.23c-1.09-1.06-1.86-2.41-2.2-3.89l-1.44.15-.16-1.56,1.42-.27c-.02-1.52.4-3.02,1.21-4.31l-1.09-.96.5-.61.47-.63,1.21.84c1.06-1.09,2.42-1.85,3.9-2.2l-.14-1.43.78-.08.75-.08.3,1.47c1.51-.02,3.01.39,4.29,1.19l.98-1.09.58.5.63.44-.81,1.25c1.07,1.06,1.82,2.4,2.17,3.87l1.46-.15.08.78.08.75-1.5.3c.04,1.48-.36,2.95-1.15,4.21l1.12.98-.5.61-.44.63-1.23-.81c-1.07,1.08-2.4,1.84-3.87,2.22l.15,1.46-.76.08-.78.08-.27-1.45c-1.55.02-3.07-.39-4.4-1.2l-.93,1.09-.61-.5ZM121.93,45.9c-.47-.37-.83-.86-1.02-1.43-.19-.57-.21-1.18-.06-1.76.16-.58.48-1.1.93-1.49.45-.39,1.01-.65,1.6-.73.6-.08,1.2.02,1.74.29.54.26.99.68,1.29,1.2.3.52.44,1.11.4,1.71s-.25,1.17-.62,1.65c-.24.33-.54.61-.9.82-.35.21-.74.35-1.15.4-.4.06-.82.03-1.21-.08-.39-.11-.76-.29-1.08-.55l.07-.03Z"/><path class="cls-2" d="M160.66,9.07c-1.08-.67-2.42-1.15-3.91-1.4.57.54,1.04,1.13,1.42,1.74l2.5-.34Z"/><path class="cls-2" d="M159.77,15.93c.15.89.24,1.8.27,2.7l3.13-.49c.29-1.84-.02-3.73-.87-5.39l-3.11.51c.24.88.43,1.77.57,2.67Z"/><path class="cls-2" d="M163.68,20.15l-2.79.46c-.08,1.23-.27,2.45-.56,3.65,1.42-1.05,2.58-2.46,3.35-4.11Z"/><path class="cls-2" d="M151.62,6.3c-.64.07-1.66,2.02-1.95,5.85l5.55-.98c-1.57-3.47-2.99-4.97-3.6-4.87Z"/><path class="cls-2" d="M147.42,8.61c-.67.99-1.18,2.34-1.49,3.92l1.37-.32c-.02-1.22.02-2.43.12-3.6h0Z"/><path class="cls-2" d="M157.79,18.53c-.03-1.78-.34-3.53-.91-5.23l-6.92,1.04c.01,1.78.32,3.53.91,5.23l6.92-1.04Z"/><path class="cls-2" d="M145.44,20.12l3.11-.51c-.24-.88-.43-1.77-.57-2.67-.15-.89-.24-1.8-.28-2.7l-3.13.49c-.29,1.84.02,3.73.87,5.39h0Z"/><path class="cls-2" d="M156.13,26.57c.64-.07,1.72-1.41,2.14-3.99l-5.57.85c1.22,2.3,2.82,3.23,3.43,3.14Z"/><path class="cls-2" d="M147.08,23.81c1.08.67,2.42,1.15,3.91,1.4-.57-.54-1.04-1.13-1.42-1.74l-2.5.34Z"/><path class="cls-2" d="M162.66,61.14c1.2.18,2.43,0,3.54-.52,1.1-.52,2.03-1.34,2.65-2.38.63-1.04.93-2.24.88-3.45-.05-1.21-.47-2.37-1.19-3.35-.72-.97-1.72-1.71-2.86-2.13-1.14-.41-2.39-.48-3.57-.19-1.18.29-2.25.92-3.07,1.81-.82.89-1.36,2.01-1.55,3.21-.23,1.61.18,3.24,1.14,4.55.97,1.31,2.41,2.18,4.03,2.44ZM161.98,65.36l-.86-.08.15-1.62c-1.65-.46-3.14-1.36-4.3-2.61l-1.33.84-.5-.71-.55-.68,1.26-1.06c-.83-1.47-1.23-3.14-1.14-4.83l-1.57-.35.17-.86.11-.86,1.61.18c.46-1.63,1.39-3.1,2.66-4.23l-.88-1.35.69-.49.68-.55,1.09,1.27c1.43-.81,3.06-1.21,4.71-1.16l.35-1.59.84.17.86.11-.14,1.65c1.63.45,3.1,1.35,4.24,2.59l1.36-.87.5.68.55.68-1.28,1.09c.8,1.44,1.19,3.07,1.13,4.71l1.63.37-.17.84-.11.86-1.66-.14c-.44,1.63-1.33,3.1-2.58,4.24l.88,1.38-.69.49-.68.52-1.06-1.25c-1.49.87-3.21,1.28-4.93,1.18l-.35,1.59-.67-.16ZM163.07,58.42c-.66-.1-1.28-.39-1.78-.84-.5-.45-.85-1.04-1.01-1.68-.16-.65-.12-1.33.11-1.96.23-.63.64-1.17,1.18-1.57s1.19-.62,1.86-.65c.67-.03,1.33.14,1.91.48.57.35,1.03.85,1.31,1.46.28.6.38,1.28.28,1.94-.07.45-.22.87-.46,1.26-.24.39-.55.72-.91.98-.37.26-.79.45-1.23.55-.44.1-.9.11-1.35.03h.08Z"/><path class="cls-2" d="M226.59,71.78c-6.18-.27-12.37.17-18.45,1.31l-.73-10.64c5.84-2.36,12.28-2.82,18.39-1.3l.76,10.64h.03ZM245.13,75.32c-3.19-1.2-6.5-2.07-9.87-2.6l-.56-7.89c4.27,2.61,7.85,6.21,10.43,10.5ZM227.22,80.4l1.41,19.96c-6.07,1.19-12.25,1.62-18.43,1.28l-1.4-19.93c6.06-1.24,12.25-1.68,18.42-1.31h0ZM249.39,88.99c.19,1.85-3.72,5.8-12.34,9.09l-1.15-16.38c8.98,1.83,13.48,5.3,13.48,7.15v.14ZM202.16,109.48l.56,7.89c-4.28-2.6-7.85-6.2-10.43-10.5,3.19,1.15,6.49,1.98,9.85,2.47v.13ZM238.25,114.87l-.56-7.89c3.25-1.01,6.4-2.35,9.39-3.99-1.96,4.57-4.99,8.6-8.84,11.75v.14ZM229.98,119.78c-5.85,2.35-12.3,2.81-18.42,1.31l-.74-10.78c6.16.29,12.34-.14,18.39-1.3l.77,10.77ZM188.04,93.34c-.19-1.85,3.72-5.8,12.34-9.1l1.15,16.38c-9-2.1-13.4-5.58-13.5-7.42v.13ZM199.19,67.46l.56,7.89c-3.25,1.01-6.38,2.35-9.36,3.99,1.89-4.67,4.91-8.8,8.79-12.02v.13ZM179.44,93.89c.55,7.77,3.39,15.21,8.16,21.37,4.77,6.16,11.27,10.76,18.66,13.22,7.39,2.46,15.35,2.68,22.86.62,7.51-2.06,14.25-6.3,19.35-12.19,5.1-5.89,8.34-13.16,9.31-20.89.97-7.73-.38-15.58-3.87-22.54-3.49-6.96-8.98-12.74-15.75-16.59-6.78-3.85-14.54-5.6-22.31-5.03-10.36.79-19.99,5.64-26.79,13.5-6.8,7.86-10.22,18.08-9.52,28.45l-.1.09Z"/><path class="cls-3" d="M180.44,48.28c1.14.61,2.47.99,3.88,1.11-.65-.52-1.23-1.09-1.72-1.71l-2.16.6Z"/><path class="cls-3" d="M180.7,41.85c-.37-1.09-.68-2.19-.92-3.31l-3.93,1.26c0,2.33.79,4.59,2.24,6.45l3.9-1.25c-.49-1.03-.92-2.08-1.29-3.15h0Z"/><path class="cls-3" d="M177.39,36.9l1.57-.71c-.1-1.07-.12-2.15-.08-3.21-.72,1.07-1.23,2.42-1.49,3.92h0Z"/><path class="cls-3" d="M189.96,48.81c.62-.17,1.48-1.53,1.44-3.91l-5.5,1.51c1.77,1.9,3.44,2.57,4.06,2.4Z"/><path class="cls-3" d="M193.46,46.57c1.54-1.16,2.69-2.57,3.35-4.11l-3.19.88c.09,1.07.03,2.16-.16,3.23h0Z"/><path class="cls-3" d="M183.14,37.8c.39,2.03,1.02,4,1.87,5.87l6.05-2.1c-.19-1.01-.44-2.01-.76-2.99-.32-.98-.69-1.94-1.12-2.87l-6.05,2.1Z"/><path class="cls-3" d="M194.78,33.25l-2.57,1.12c.36,1.04.69,2.1.97,3.18.28,1.09.52,2.21.72,3.33l2.59-1.12c-.08-2.32-.68-4.6-1.71-6.51h0Z"/><path class="cls-3" d="M183.63,30.62c-.41.15-.94,1.47-.83,3.85l3.64-1.32c-1.25-1.96-2.29-2.69-2.8-2.53Z"/><path class="cls-3" d="M191.9,31.28c-1.14-.61-2.47-.99-3.88-1.11.65.52,1.23,1.09,1.73,1.71l2.16-.6Z"/><path class="cls-2" d="M211.91,36.42c-.11.26-.14.54-.08.82.05.27.18.53.38.73.2.2.44.34.71.39.27.06.55.03.81-.07.26-.1.48-.28.64-.51.16-.23.24-.5.25-.78,0-.28-.07-.55-.22-.79-.15-.24-.37-.42-.62-.53-.17-.08-.36-.12-.54-.12-.19,0-.37.03-.55.1-.17.07-.33.17-.47.31-.13.13-.24.29-.31.46h0ZM209.15,46.44c.61.26,1.29.34,1.95.22.66-.12,1.26-.44,1.74-.9.48-.47.81-1.07.96-1.72.14-.66.09-1.34-.15-1.97l-.29-.7c-.64.01-1.28-.11-1.86-.37-.59-.26-1.11-.64-1.54-1.13l-.69.27c-.61.24-1.15.65-1.53,1.18-.39.54-.61,1.17-.63,1.84-.04.69.14,1.38.51,1.97.37.59.91,1.05,1.54,1.32h0ZM213.08,32.63c.64-.02,1.28.1,1.87.36.59.26,1.11.65,1.53,1.14l.69-.29c.62-.23,1.15-.64,1.54-1.18.39-.54.6-1.18.62-1.84.01-.68-.17-1.35-.54-1.92-.37-.57-.89-1.02-1.51-1.29-.61-.26-1.29-.34-1.95-.22-.66.12-1.26.44-1.74.9-.48.47-.81,1.07-.96,1.72-.14.66-.09,1.34.15,1.97l.29.64ZM216.35,40.97c.16.42.4.8.7,1.12.3.32.67.58,1.07.77.42.18.88.28,1.33.28.67.02,1.33-.17,1.89-.54.56-.37,1-.89,1.26-1.52.28-.62.36-1.31.24-1.97-.12-.67-.44-1.28-.92-1.76-.32-.33-.69-.6-1.11-.78-.82-.34-1.74-.35-2.56-.02l-.69.29c.01.65-.11,1.29-.37,1.88-.26.59-.64,1.12-1.12,1.55l.27.7ZM204.51,36.58c.32.33.69.6,1.11.78.82.34,1.74.35,2.56.02l.69-.29c-.01-.65.11-1.29.37-1.88.26-.59.64-1.12,1.12-1.55l-.26-.7c-.16-.41-.4-.79-.7-1.11-.3-.32-.67-.58-1.07-.75-.42-.2-.87-.31-1.34-.31-.67,0-1.32.18-1.88.55-.56.37-1,.89-1.27,1.51-.29.62-.37,1.32-.25,1.99.12.67.45,1.29.94,1.77v-.03Z"/><path class="cls-3" d="M272.76,102.78c.38.27.7.63.93,1.05.23.39.39.83.47,1.28.07.46.06.92-.04,1.37l-.16.79c-.62.07-1.22.29-1.74.66-.53.35-.98.83-1.32,1.4l-.78-.32c-.42-.09-.82-.28-1.18-.54-.36-.27-.66-.61-.89-1-.24-.42-.4-.88-.48-1.36-.1-.69-.01-1.4.26-2.03.27-.63.7-1.16,1.25-1.52.55-.36,1.19-.54,1.83-.51.65.03,1.28.26,1.81.67l.03.05ZM269.57,112.15l.74.18c.08.67.3,1.32.64,1.9.34.58.79,1.07,1.32,1.43l-.16.79c-.14.68-.47,1.31-.94,1.79-.47.48-1.07.79-1.71.91-.64.11-1.3.02-1.9-.28-.6-.29-1.11-.77-1.46-1.37-.35-.6-.54-1.29-.52-2,.01-.7.22-1.38.59-1.96.37-.57.89-1.01,1.5-1.26.61-.25,1.27-.3,1.91-.14ZM275.27,113.09c-.23.16-.5.24-.78.24-.28,0-.55-.1-.78-.27-.23-.17-.41-.41-.51-.69-.1-.28-.13-.59-.07-.88.06-.29.19-.56.39-.77.2-.21.45-.34.72-.39.27-.05.56-.01.81.11.26.12.47.32.62.58.2.34.26.74.19,1.13-.07.39-.28.73-.59.95h0ZM279.55,104.47c.48-.08.97-.04,1.43.11.47.15.9.41,1.27.75.37.35.66.78.86,1.26.2.48.3,1,.29,1.52,0,.52-.12,1.03-.33,1.5-.21.47-.52.87-.9,1.2-.38.32-.82.55-1.29.67-.47.12-.96.12-1.44,0l-.74-.18c-.08-.67-.3-1.32-.64-1.9-.34-.58-.79-1.07-1.32-1.43l.16-.79c.13-.69.46-1.32.93-1.8.47-.48,1.07-.8,1.72-.91h0ZM278.1,114.3l.74.18c.42.1.83.29,1.18.56.36.27.66.61.89,1.01.24.41.4.86.48,1.33.1.69.01,1.4-.26,2.03-.27.63-.71,1.16-1.25,1.52-.55.36-1.19.54-1.83.51-.65-.03-1.28-.26-1.81-.67-.37-.27-.68-.62-.93-1.02-.24-.4-.39-.84-.47-1.3-.07-.46-.06-.93.04-1.39l.16-.79c.62-.07,1.22-.3,1.75-.65.53-.36.98-.84,1.31-1.41v.09ZM264.83,106.78c.14.88.44,1.71.89,2.46l.28.43c-.88.49-1.64,1.21-2.21,2.09-.84,1.3-1.21,2.89-1.05,4.48.16,1.59.84,3.07,1.91,4.18,1.08,1.11,2.48,1.78,3.96,1.88,1.48.1,2.93-.37,4.09-1.33l.26.46c.45.75,1.03,1.41,1.71,1.92,1,.78,2.18,1.21,3.41,1.26,1.22.04,2.42-.31,3.45-1.01,1.03-.69,1.85-1.7,2.33-2.9.49-1.2.62-2.54.38-3.84-.13-.88-.44-1.72-.89-2.46l-.29-.46c.87-.5,1.62-1.21,2.18-2.09.72-1.05,1.11-2.33,1.13-3.64.02-1.32-.33-2.61-1.01-3.72-.46-.79-1.07-1.46-1.78-1.99-.72-.52-1.52-.88-2.37-1.05-.85-.17-1.71-.15-2.54.06-.83.21-1.61.61-2.29,1.16l-.26-.49c-.77-1.31-1.93-2.29-3.29-2.79-1.36-.49-2.82-.47-4.15.07-1.33.54-2.43,1.57-3.12,2.9s-.93,2.89-.68,4.41h-.05Z"/><path class="cls-3" d="M276.53,91.54c.65-.8,1.25-1.65,1.78-2.54.54-.88,1.02-1.79,1.43-2.72l3.04,1.86c-.48,2.05-1.61,3.89-3.22,5.24l-3.04-1.84ZM271.97,95.88c.94-.64,1.83-1.36,2.63-2.17l2.26,1.37c-1.54.65-3.22.92-4.89.8h0ZM274.1,90.05l-5.79-3.48c.84-1.88,1.92-3.64,3.22-5.24l5.79,3.46c-.42.94-.9,1.85-1.43,2.72-.54.89-1.14,1.74-1.81,2.54h.03ZM267.5,94.41c-.52-.3-.9-2.13-.08-5.1l4.61,2.84c-2.23,2.07-4.03,2.58-4.55,2.26h.03ZM271.11,77.75l-2.26-1.37c1.54-.66,3.22-.94,4.89-.8-.95.59-1.85,1.28-2.67,2.04l.04.13ZM262.61,86.36l2.26,1.37c-.37,1.08-.62,2.2-.75,3.33-.88-1.42-1.4-3.04-1.51-4.71ZM262.88,83.15c.49-2.04,1.62-3.88,3.22-5.24l2.91,1.88c-1.28,1.61-2.36,3.37-3.22,5.24l-2.91-1.88ZM278.19,76.9c.52.3.9,2.14.08,5.1l-4.69-2.83c2.35-2.06,4.1-2.48,4.61-2.23v-.03ZM283.06,84.93l-2.26-1.37c.36-1.08.61-2.2.75-3.33.88,1.43,1.4,3.06,1.51,4.73v-.03ZM279.68,74.41c-2.22-1.35-4.79-2.02-7.38-1.91-2.6.11-5.1.98-7.2,2.51s-3.7,3.65-4.6,6.08c-.9,2.44-1.05,5.08-.44,7.61s1.96,4.81,3.87,6.57c1.91,1.76,4.3,2.91,6.87,3.31,2.57.4,5.2.04,7.55-1.06,2.36-1.09,4.34-2.85,5.69-5.07,1.8-2.96,2.35-6.52,1.54-9.89-.82-3.37-2.93-6.28-5.89-8.1v-.05Z"/><path class="cls-2" d="M268.21,49.42c-.09.24-.15.49-.18.74,0,.21.02.42.06.63l.06.55.21.53c.08.16.18.3.3.41.38.42.86.71,1.39.86,1.8.37,3.53,1.08,5.1,2.11h0l.36.32c1.65,1.41,2.72,3.47,3,5.71.09.5.14,1,.15,1.51.69-1.69.93-3.57.7-5.42l-.1-1.02c-.52-2.43-1.83-4.58-3.68-6.07-1.86-1.48-4.13-2.19-6.41-2-.24.07-.46.21-.63.41-.17.2-.28.45-.33.71h0ZM274.04,57.86l-.22-.2c-1.33-.8-2.76-1.37-4.24-1.68-1.02-.23-1.96-.78-2.71-1.58-.28-.29-.52-.62-.71-.98l-.02-.16c-.18-.35-.32-.71-.42-1.09-.07-.34-.11-.69-.11-1.04l-.04-.41c-.9.92-1.47,2.17-1.6,3.52-.06.45-.06.91-.01,1.36.1.82.36,1.61.78,2.32.41.7.97,1.3,1.62,1.74l.25.17c1.36.64,2.8,1.04,4.27,1.17.98.19,1.9.63,2.68,1.31.28.28.54.57.78.89l.02.16c.2.32.37.67.51,1.03.17.39.29.81.36,1.24.35-.61.6-1.28.74-1.99.12-.63.14-1.28.06-1.92-.07-.75-.28-1.48-.62-2.14-.34-.66-.8-1.24-1.35-1.71h0ZM272.21,64.95l-.32-.36c-.41-.36-.9-.61-1.42-.71-1.81-.15-3.59-.67-5.25-1.52h0l-.38-.27c-.97-.67-1.79-1.57-2.41-2.62-.61-1.06-1-2.24-1.14-3.48l-.08-.74c-.48,1.49-.63,3.09-.44,4.68.03.33.07.69.1,1.02.44,2.01,1.42,3.85,2.82,5.27,1.4,1.42,3.15,2.36,5.02,2.69.85.12,1.71.04,2.52-.26.41-.12.77-.38,1.03-.73.26-.35.42-.79.45-1.25l-.04-.36c0-.27-.02-.53-.08-.79-.08-.19-.19-.35-.33-.49l-.06-.08Z"/><path class="cls-2" d="M317.7,141.56c-5.32.48-10.62-1.11-14.81-4.43-4.18-3.32-6.93-8.13-7.67-13.42-.74-5.29.58-10.66,3.69-15.01,3.11-4.34,7.77-7.33,13.02-8.33l.16.2c.36.42.61.92.72,1.46.11.54.08,1.1-.08,1.62l.02.19c-1.23,5.44-.47,11.14,2.13,16.08,2.6,4.93,6.88,8.78,12.06,10.84.24.09.49.15.75.17.64.09,1.3-.05,1.85-.4.55-.35.95-.89,1.14-1.51,1.56-5.15,1.17-10.69-1.11-15.56-2.27-4.87-6.27-8.74-11.22-10.84-.01-.86-.14-1.72-.39-2.54,5.17.5,9.97,2.91,13.46,6.76,3.48,3.85,5.4,8.87,5.38,14.07-.02,5.2-1.99,10.19-5.52,14.01-3.52,3.82-8.35,6.18-13.52,6.63h-.05ZM317.55,108.27c2.83,1.54,5.15,3.88,6.66,6.73,1.51,2.85,2.15,6.08,1.84,9.29-2.71-1.68-4.92-4.04-6.42-6.86-1.49-2.82-2.21-5.98-2.08-9.16h0ZM313.77,94.65c-5.17.44-10.1,2.4-14.16,5.63-4.06,3.24-7.07,7.6-8.64,12.55s-1.65,10.25-.22,15.24,4.32,9.44,8.29,12.79,8.84,5.45,13.99,6.03c5.16.58,10.37-.38,14.99-2.76,4.61-2.38,8.42-6.08,10.93-10.62,2.51-4.54,3.62-9.73,3.19-14.9-.29-3.44-1.25-6.79-2.83-9.85-1.58-3.07-3.75-5.79-6.39-8.01-2.63-2.23-5.68-3.91-8.97-4.96-3.29-1.05-6.75-1.43-10.18-1.14h0Z"/><path class="cls-3" d="M328.13,71.84c-.9.22-1.84.22-2.73-.01-.28-.08-.55-.19-.8-.35-.19-.09-.35-.21-.49-.36-.14-.15-.24-.33-.31-.52-.07-.19-.09-.39-.07-.6.02-.2.07-.4.17-.58.18-.35.43-.68.72-.95.69-.61,1.54-1.04,2.45-1.25.91-.2,1.86-.18,2.76.08.25.08.49.19.72.33.21.11.39.25.53.43.14.18.25.38.31.6.32,1.32-1.17,2.7-3.26,3.18ZM309.84,85.51c-2.87.69-5.9.35-8.52-.96-2.62-1.31-4.67-3.5-5.75-6.18-1.09-2.67-1.14-5.64-.16-8.36s2.94-5.01,5.51-6.44c1.9-1.16,4.1-1.74,6.33-1.68.15-.03.31-.04.46-.05l.27-.03c1.81.11,3.57.62,5.15,1.47l.58.34.26.13c1.53,1.03,2.8,2.38,3.73,3.96l.02.21.23.38c1.05,1.92,1.48,4.1,1.24,6.26-.16,2.55-1.15,4.99-2.83,6.96-1.68,1.97-3.96,3.37-6.51,3.99h0ZM301.54,57.68c-.26-.15-.49-.34-.69-.57-.61-.66-1.03-1.47-1.22-2.35-.48-2,.2-3.96,1.48-4.25.47-.08.95.03,1.34.29l.51.4c.7.69,1.18,1.57,1.38,2.52.21.88.19,1.8-.06,2.67-.11.41-.31.78-.6,1.1-.22.26-.51.45-.85.54-.44,0-.86-.16-1.19-.44l-.1.09ZM315.2,46.21c.18.06.36.14.52.24.75.7,1.27,1.61,1.51,2.6.24.99.17,2.03-.18,2.99l-.11.54c-.46,1.5-1.41,2.82-2.7,3.76-.15.1-.3.18-.46.26-.62.32-1.35.4-2.03.21-.15-.05-.29-.12-.43-.2-.14-.08-.27-.17-.38-.28-.21-.18-.4-.38-.55-.61-.44-.8-.7-1.69-.76-2.6-.06-.91.07-1.82.39-2.68l.15-.39c1.12-2.69,3.37-4.47,5.14-3.93l-.1.09ZM322.37,55.67l.43-.36.16-.02c.73-.69,1.64-1.16,2.64-1.37.99-.21,2.02-.14,2.98.19l.42.36c1.31,1.3.66,4.06-1.39,6.15l-.25.26c-.65.64-1.42,1.16-2.27,1.5-.85.35-1.77.52-2.69.52-.46-.05-.9-.2-1.3-.43l-.39-.31c-.46-.52-.7-1.19-.66-1.88l-.05-.5c.27-1.6,1.1-3.06,2.37-4.12ZM336.69,66.82c-.42-1.72-1.44-3.23-2.89-4.28,1.36-1.81,2.06-4.01,1.98-6.25-.08-2.24-.93-4.38-2.41-6.08-.49-.51-1.05-.95-1.66-1.32-1.26-.71-2.66-1.15-4.11-1.28-1.45-.13-2.92.04-4.29.51-.18-1.41-.66-2.76-1.42-3.97-.76-1.21-1.77-2.24-2.98-3.03-.62-.36-1.28-.65-1.97-.86-2.24-.54-4.6-.33-6.7.6-2.11.93-3.83,2.52-4.9,4.51-1.56-.78-3.35-.99-5.06-.6-4.64,1.06-7.3,6.06-6.06,11.26.29,1.25.8,2.44,1.51,3.52-2.32,1.78-4.17,4.08-5.39,6.71s-1.78,5.49-1.62,8.36c.15,2.87,1.02,5.66,2.52,8.12s3.58,4.55,6.08,6.06,5.34,2.41,8.28,2.62c2.94.21,5.89-.27,8.61-1.4,2.72-1.14,5.12-2.89,7-5.11,1.88-2.22,3.18-4.86,3.8-7.67,1.32.13,2.64.05,3.93-.24,2.49-.54,4.71-1.91,6.3-3.86.71-.88,1.22-1.91,1.47-3,.26-1.09.26-2.23.01-3.32Z"/><path class="cls-2" d="M351.55,113.09c-2.4-1.09-4.3-3.04-5.31-5.47-1.01-2.43-1.07-5.16-.15-7.62.92-2.47,2.74-4.5,5.09-5.68,2.36-1.18,5.07-1.42,7.6-.68v.13c.07.27.07.55-.01.81-.08.26-.22.5-.42.7h0c-1.83,2.1-2.84,4.78-2.87,7.57-.02,2.78.94,5.48,2.73,7.62.07.1.16.19.27.24.27.18.59.27.92.23.32-.03.63-.18.85-.41,1.93-1.88,3.09-4.41,3.25-7.1.16-2.69-.7-5.34-2.4-7.43.2-.38.34-.79.42-1.21,2.18,1.43,3.74,3.63,4.38,6.16.63,2.53.29,5.2-.96,7.49-1.25,2.29-3.32,4.02-5.79,4.86-2.47.84-5.17.71-7.55-.35l-.07.14ZM359.35,98.42c.9,1.34,1.37,2.92,1.36,4.54-.01,1.61-.5,3.19-1.41,4.52-.79-1.38-1.2-2.94-1.19-4.53.01-1.59.44-3.15,1.24-4.52h0ZM360.95,91.54c-2.38-1.04-5.01-1.35-7.57-.9-2.56.46-4.92,1.66-6.79,3.46-1.87,1.8-3.17,4.11-3.72,6.65-.56,2.54-.35,5.18.6,7.6.95,2.42,2.59,4.5,4.72,5.98s4.66,2.3,7.25,2.35c2.6.05,5.15-.67,7.34-2.08,2.19-1.4,3.91-3.42,4.95-5.8,1.38-3.19,1.45-6.8.18-10.03-1.27-3.24-3.77-5.84-6.95-7.24h0Z"/><path class="cls-2" d="M350.68,87.55c-1.84-.43-3.52-1.36-4.87-2.68.47.22.96.39,1.47.5,2.21.51,4.54.13,6.48-1.07.15-.08.3-.16.44-.26h.13c1.55-1.27,2.85-2.8,3.84-4.53.35-.47.8-.85,1.33-1.11.17-.04.34-.06.51-.05h.14c.19-.05.38-.07.57-.07.19.01.37.04.55.08.21.04.41.11.59.21.23.14.44.3.65.48.18.16.33.36.41.59.09.23.12.47.1.71-.73,2.55-2.43,4.72-4.72,6.06-2.3,1.34-5.02,1.75-7.61,1.14h0ZM344.51,80.39c.43.07.86.1,1.29.09.39-.01.78-.05,1.16-.12l.19-.02c.4-.11.77-.28,1.12-.49.94-.54,1.71-1.33,2.22-2.29.67-1.46,1.58-2.8,2.7-3.96h.14s.22-.23.22-.23c.66-.5,1.43-.85,2.25-1.03.82-.17,1.66-.16,2.47.03.45.09.88.24,1.27.47,1.22.61,2.19,1.64,2.72,2.9l-.39-.12c-.35-.07-.7-.12-1.05-.14-.4,0-.8.04-1.18.12h-.05c-.41.08-.81.2-1.19.37-1.01.48-1.87,1.21-2.51,2.13-.82,1.42-1.88,2.69-3.13,3.76-.09.06-.18.12-.28.17-.64.4-1.35.67-2.1.8-.74.12-1.51.09-2.24-.08-.63-.14-1.24-.4-1.79-.74-.69-.42-1.29-.97-1.77-1.61h-.05ZM344.48,77.44c-.42-.19-.77-.51-1.01-.91-.24-.4-.34-.86-.31-1.32.08-.92.35-1.82.79-2.63,1.01-1.8,2.53-3.26,4.38-4.19,1.84-.93,3.93-1.29,5.98-1.04.35-.04.69.12,1.03.19,1.56.36,3.01,1.08,4.24,2.09-.24-.08-.48-.15-.73-.2-1.21-.29-2.48-.3-3.7-.04-1.22.26-2.37.79-3.36,1.55l-.38.28c-1.4,1.37-2.55,2.99-3.38,4.77-.27.51-.66.93-1.15,1.23-.15.07-.31.13-.47.18-.19.05-.38.07-.57.06-.27.02-.54,0-.8-.06l-.57.03ZM365.72,80.71c.14-.5.24-1.01.31-1.52.44-3.23-.34-6.51-2.19-9.19-1.85-2.68-4.65-4.58-7.83-5.31-.4.04-.86-.16-1.27-.22-2.94-.41-5.93.2-8.48,1.71-2.55,1.51-4.51,3.84-5.56,6.61l.02.19c-1.2,3.26-1.05,6.85.4,10,1.46,3.15,4.11,5.59,7.37,6.79.5.2,1.02.35,1.54.47.43-.04.86.18,1.3.25,3.07.4,6.19-.3,8.8-1.97,2.61-1.67,4.54-4.2,5.46-7.15l.13-.64Z"/><path class="cls-2" d="M341.18,53.53c.29-.28.63-.5.99-.66-.03-2.66.85-5.22,2.45-7.18s3.83-3.18,6.24-3.43c.29-.03.58.05.83.24.24.18.42.46.49.77l.04.36c.09,2.76-.72,5.44-2.29,7.56-1.57,2.12-3.79,3.54-6.26,4.01h0c-.25.02-.48.11-.68.27-.2.15-.36.36-.47.6h0c1.34,2.18,3.37,3.73,5.69,4.35,2.32.62,4.74.26,6.79-1.01,2.05-1.27,3.57-3.35,4.25-5.83.68-2.48.48-5.17-.56-7.53-1.05-2.36-2.86-4.21-5.08-5.19-2.22-.97-4.67-1-6.87-.06-2.2.93-3.98,2.75-4.98,5.09-1,2.34-1.15,5.03-.42,7.52l-.16.13ZM344.63,52.12c.13-1.59.68-3.09,1.58-4.31.9-1.23,2.12-2.13,3.5-2.59-.21,1.55-.79,3.01-1.68,4.22-.89,1.21-2.07,2.14-3.4,2.68h0Z"/><path class="cls-2" d="M352.88,25.27c.36-1.06.4-2.2.12-3.29-.29-1.08-.89-2.06-1.73-2.8-.84-.74-1.88-1.21-2.99-1.36-1.11-.15-2.24.04-3.25.53-1.01.49-1.85,1.27-2.41,2.24-.56.97-.82,2.08-.75,3.2.07,1.12.47,2.19,1.15,3.08.68.89,1.61,1.56,2.67,1.92.7.24,1.45.35,2.19.3.74-.05,1.47-.24,2.14-.57.67-.33,1.27-.78,1.76-1.34.49-.56.87-1.21,1.1-1.92h0ZM356.62,26.58l-.24.76-1.45-.4c-.68,1.41-1.74,2.6-3.08,3.42l.55,1.35-.72.33-.72.39-.74-1.31c-1.48.52-3.08.6-4.6.23l-.57,1.36-.76-.29-.76-.24.4-1.45c-1.41-.67-2.59-1.74-3.4-3.07l-1.41.56-.31-.73-.38-.69,1.33-.76c-.52-1.47-.6-3.06-.23-4.57l-1.39-.59.29-.76.24-.75,1.48.4c.68-1.4,1.75-2.58,3.08-3.39l-.59-1.4.73-.31.69-.38.79,1.36c1.43-.52,2.98-.61,4.47-.27l.59-1.39.76.26.76.24-.4,1.48c1.41.67,2.61,1.73,3.45,3.04l1.41-.56.33.72.36.69-1.34.74c.55,1.49.65,3.12.29,4.67l1.36.57-.29.76ZM350.47,24.44c-.2.58-.57,1.09-1.06,1.47-.49.37-1.08.59-1.7.63s-1.23-.11-1.76-.42c-.53-.31-.96-.77-1.23-1.33-.27-.56-.37-1.18-.28-1.79.09-.61.35-1.18.76-1.64.41-.46.95-.79,1.55-.94.6-.15,1.23-.13,1.81.08.78.27,1.42.84,1.78,1.58.36.74.41,1.59.14,2.37h0Z"/><path class="cls-2" d="M373.25,95.13c1.03-1.57,2.49-2.81,4.2-3.57-.36.36-.69.75-.96,1.18-1.27,1.88-1.75,4.18-1.33,6.41l.05.48.02.16c.61,1.87,1.56,3.61,2.8,5.14.34.48.55,1.04.6,1.62l.05.51c-.04.19-.1.38-.19.56l-.25.49c-.12.18-.27.34-.44.48-.2.15-.42.29-.64.42-.2.17-.44.29-.69.34s-.52.04-.77-.03c-2.18-1.57-3.66-3.94-4.12-6.6s.14-5.38,1.67-7.6h0ZM382.1,91.97c-.21.37-.39.76-.53,1.17-.13.37-.22.75-.26,1.14l.02.19c-.01.41.03.81.12,1.21.2,1.07.66,2.07,1.35,2.9,1.15,1.13,2.08,2.46,2.76,3.93v.13s.04.3.04.3c.23.8.29,1.63.16,2.45-.13.82-.43,1.6-.9,2.29-.25.37-.54.71-.87,1.01-1.01.93-2.32,1.47-3.7,1.52l.27-.33c.18-.3.35-.6.5-.92.16-.37.29-.75.37-1.15l-.02-.16c.08-.41.1-.84.06-1.26-.05-1.07-.38-2.1-.96-3-1.03-1.28-1.83-2.72-2.39-4.26l-.05-.46c-.15-.74-.14-1.5,0-2.23.15-.74.44-1.44.86-2.06.8-1.13,1.96-1.96,3.29-2.37l-.14-.04ZM384.91,93.02c.34-.35.78-.58,1.26-.67.48-.08.97-.01,1.41.21.83.4,1.56.98,2.15,1.68,1.33,1.59,2.15,3.54,2.36,5.6.21,2.06-.2,4.13-1.19,5.96-.16.3-.34.59-.54.87-.89,1.32-2.06,2.41-3.45,3.2l.43-.59c.7-1.03,1.16-2.2,1.36-3.43.19-1.23.11-2.49-.24-3.68l-.05-.46-.02-.16c-.77-1.79-1.85-3.43-3.2-4.83-.36-.44-.61-.97-.73-1.53l-.06-.62.14-.53c.09-.26.21-.51.36-.74v-.27ZM374.22,111.61c.43.28.87.56,1.33.81,2.86,1.57,6.2,2.01,9.36,1.23,3.16-.77,5.93-2.71,7.74-5.42l.68-1.1c1.42-2.59,1.91-5.58,1.4-8.49-.51-2.91-1.99-5.56-4.2-7.51-.04-.06-.09-.1-.15-.12-1.29-1.13-2.8-2-4.43-2.55-1.63-.55-3.35-.77-5.06-.66-1.71.12-3.39.57-4.93,1.34s-2.91,1.83-4.04,3.12c-.36.4-.69.82-.98,1.27-.26.38-.47.75-.67,1.13-1.49,2.74-1.96,5.93-1.3,8.98.65,3.05,2.37,5.78,4.85,7.68l.41.28Z"/><path class="cls-3" d="M373.33,48.67c2.87-4.37,7.36-7.52,12.55-8.8,5.19-1.28,10.67-.58,15.32,1.94s8.09,6.68,9.62,11.61c1.54,4.93,1.04,10.25-1.38,14.87,0,0-.16.02-.24.03-.55.04-1.1-.06-1.6-.28-.5-.22-.93-.57-1.25-1h0c-3.56-4.11-8.53-6.86-14.03-7.74-5.49-.88-11.15.16-15.94,2.93-.22.12-.43.28-.6.45-.47.44-.77,1.02-.83,1.65-.06.63.12,1.25.5,1.76,3.12,4.2,7.75,7.14,12.99,8.24,5.25,1.1,10.74.29,15.44-2.28.69.5,1.45.9,2.26,1.18-3.54,3.71-8.39,6.02-13.59,6.46-5.19.44-10.36-1.01-14.47-4.07-4.11-3.06-6.87-7.51-7.73-12.46-.86-4.95.23-10.05,3.07-14.29l-.1-.2ZM399.73,67.97c-2.94,1.3-6.21,1.74-9.4,1.26-3.19-.48-6.15-1.86-8.52-3.96,2.98-1.14,6.23-1.49,9.39-1.02,3.16.47,6.12,1.76,8.59,3.71h-.05ZM412.81,73.05c2.82-4.22,4.28-9.15,4.2-14.16-.08-5.01-1.7-9.86-4.64-13.96-2.95-4.1-7.1-7.25-11.92-9.06-4.82-1.81-10.11-2.2-15.18-1.11-5.07,1.09-9.71,3.6-13.32,7.22-3.61,3.62-6.04,8.18-6.98,13.11-.94,4.93-.34,10.01,1.72,14.59,2.06,4.58,5.48,8.46,9.84,11.15,2.9,1.79,6.14,3.01,9.53,3.59,3.39.58,6.88.5,10.26-.22,3.38-.72,6.57-2.08,9.41-3.99,2.84-1.91,5.27-4.34,7.14-7.15h-.05Z"/><path class="cls-2" d="M371.6,22.18l.18-.02c.84.24,1.73.28,2.59.11h.13c.13-.03.23-.04.33-.05.82-.21,1.58-.59,2.23-1.13h0c.07-.03.12-.08.17-.14.77-.68,1.32-1.56,1.57-2.55.34-1.15.29-2.38-.14-3.5-.43-1.12-1.22-2.07-2.25-2.72-1.15-.71-2.52-.99-3.88-.8-1.35.19-2.59.84-3.49,1.84-.91,1-1.42,2.28-1.45,3.61-.03,1.33.43,2.63,1.29,3.65.7.82,1.66,1.41,2.72,1.68h0ZM380.06,21.32c-.02.19,0,.39.06.57.21.36.5.67.86.89.38.26.84.39,1.3.4.1,0,.21,0,.31-.03.21-.04.4-.16.53-.33.33-.51-.14-1.37-.92-1.92-.35-.23-.76-.37-1.17-.41-.15,0-.29.02-.43.04-.11.02-.21.05-.3.11-.09.06-.17.13-.23.22-.07.16-.07.34,0,.5v-.05ZM373.63,25.49c-.1-.12-.23-.22-.38-.29-.14-.07-.3-.11-.47-.12-.08-.02-.16,0-.23.02-.09,0-.17,0-.25.03-.12.05-.23.11-.34.19-.62.6-.98,1.41-1.01,2.26l.02.17c0,1.33.71,2.44,1.57,2.48.09,0,.19,0,.28-.03.43-.19.8-.5,1.07-.89.26-.39.42-.84.43-1.3l-.02-.25c.04-.74-.16-1.46-.57-2.08l-.1-.19ZM366.95,26.17c.09.06.2.09.3.11.11.01.22,0,.32-.02.12,0,.24-.01.36-.04.39-.2.72-.49.95-.85.24-.36.38-.77.41-1.2.02-.18,0-.37-.06-.55-.06-.15-.16-.28-.29-.37-.09-.05-.2-.09-.31-.11-.11-.01-.22,0-.32.02-.14-.01-.27,0-.41.04-.39.19-.71.48-.92.85-.52.98-.55,1.94-.03,2.26v-.15ZM380.33,25.74c.54,1.2.25,2.49-.43,2.88l-.26.03c-.74.08-1.67-.43-2.31-1.45l-.03-.25c-.36-.64-.48-1.38-.34-2.1l-.03-.25c.1-.3.31-.56.6-.71.07-.02.15-.03.23-.02.07-.02.15-.03.23-.02.12-.04.25-.05.38-.04.42.12.8.33,1.12.62.32.28.58.64.74,1.03l.08.29Z"/></svg>