<?xml version="1.0" encoding="UTF-8"?><svg id="Layer_1" xmlns="http://www.w3.org/2000/svg" xmlns:xlink="http://www.w3.org/1999/xlink" viewBox="0 0 181 176"><defs><style>.cls-1{fill:#a7ff00;}.cls-1,.cls-2,.cls-3{stroke-width:0px;}.cls-2{fill:#b2b7b8;}.cls-3{fill:none;}.cls-4{clip-path:url(#clippath);}</style><clipPath id="clippath"><rect class="cls-3" width="181" height="176"/></clipPath></defs><g class="cls-4"><path class="cls-1" d="M111.94,20.47c.63-2.94,2.06-5.64,4.13-7.82-.31.76-.56,1.55-.73,2.36-.77,3.54-.12,7.25,1.83,10.31.16.27.3.48.43.66l.14.2c1.53,2.09,3.57,3.61,7.29,6.05.79.51,1.42,1.24,1.83,2.09.13.25.22.52.26.79v.19c.03.31.03.61,0,.92-.01.3-.05.6-.1.89-.07.33-.19.65-.35.95-.21.37-.45.71-.72,1.04-.26.3-.58.53-.95.67-.37.15-.76.2-1.15.16-4.11-1.08-7.65-3.71-9.87-7.34s-2.95-7.98-2.04-12.13ZM123.24,10.56c-.11.67-.15,1.35-.1,2.03.04.63.13,1.25.29,1.86l.09.27c.19.63.46,1.24.81,1.8.91,1.47,2.2,2.67,3.73,3.48,3.37,1.77,5.21,2.88,6.42,4.2l.14.16c.09.12.19.2.32.39.82,1.04,1.41,2.25,1.71,3.54.3,1.29.31,2.64.02,3.93-.15.71-.39,1.4-.72,2.04-.95,1.97-2.57,3.54-4.58,4.42.07-.21.13-.43.17-.65.12-.55.19-1.11.22-1.67.03-.64,0-1.27-.1-1.9l-.07-.29c-.13-.65-.35-1.29-.63-1.89-.78-1.57-1.96-2.91-3.43-3.89-2.29-1.28-4.36-2.94-6.11-4.9l-.11-.19-.29-.42c-1.3-2.06-1.75-4.54-1.24-6.93.22-1.02.61-2,1.17-2.88.6-.99,1.38-1.85,2.3-2.55ZM127.97,10.43c.3-.67.8-1.24,1.42-1.62.63-.39,1.36-.57,2.09-.54,1.47.1,2.9.51,4.2,1.21,2.92,1.56,5.3,3.97,6.84,6.9,1.54,2.93,2.17,6.26,1.8,9.55-.07.56-.18,1.11-.32,1.66-.54,2.5-1.65,4.83-3.25,6.83.12-.37.22-.76.3-1.15.43-1.95.43-3.96-.02-5.9-.44-1.94-1.31-3.76-2.55-5.33l-.49-.59-.16-.19c-1.7-1.89-3.84-3.18-7.72-5.23-.81-.43-1.5-1.06-1.99-1.84-.13-.23-.24-.48-.32-.73v-.19c-.08-.29-.12-.58-.13-.88-.03-.43,0-.86.1-1.28.02-.23.08-.45.17-.66ZM123.09,44.4c.81.2,1.62.35,2.45.45,5.18.63,10.4-.69,14.65-3.71,4.25-3.02,7.21-7.53,8.31-12.63.14-.66.26-1.35.35-2.04.57-4.7-.48-9.45-2.96-13.48-2.48-4.03-6.26-7.09-10.72-8.69l-.27-.1c-2.6-.91-5.35-1.3-8.09-1.15-2.75.15-5.44.84-7.92,2.04-2.48,1.19-4.7,2.86-6.54,4.91-1.83,2.05-3.25,4.44-4.16,7.04-.29.81-.52,1.64-.71,2.48-.14.68-.26,1.44-.35,2.04-.58,4.96.63,9.97,3.41,14.12,2.78,4.15,6.94,7.18,11.75,8.54v.12l.79.07Z"/><path class="cls-2" d="M161.74,9.55c.11.24.29.43.51.57.22.14.48.2.74.2.26,0,.51-.09.73-.24.21-.15.38-.36.47-.6.09-.24.11-.51.05-.76-.06-.25-.19-.48-.38-.66-.19-.18-.43-.3-.68-.34-.26-.05-.52-.01-.76.09-.16.07-.31.17-.43.3-.12.13-.22.28-.28.44-.06.16-.09.34-.09.51,0,.17.05.35.12.51ZM166.94,17.71c.58-.25,1.07-.67,1.4-1.2.33-.53.5-1.15.47-1.77-.02-.63-.22-1.23-.59-1.74-.37-.51-.88-.9-1.47-1.12l-.68-.26c-.39.46-.88.83-1.44,1.08-.55.25-1.16.37-1.77.36l-.23.65c-.23.59-.28,1.23-.14,1.84s.46,1.17.92,1.6c.46.43,1.04.71,1.67.81.63.1,1.27.01,1.84-.25ZM159.86,6.4c.39-.46.87-.83,1.42-1.08.55-.25,1.15-.37,1.75-.36l.26-.65c.23-.59.27-1.23.13-1.84-.14-.61-.46-1.17-.92-1.6-.46-.43-1.04-.72-1.66-.82-.62-.11-1.26-.03-1.84.23-.58.26-1.07.68-1.4,1.21-.34.53-.51,1.15-.49,1.78s.22,1.24.59,1.75c.37.51.88.91,1.47,1.13l.7.26ZM167.67,9.34c.38.16.79.24,1.21.24s.83-.08,1.21-.24c.39-.17.75-.42,1.04-.72.43-.46.72-1.03.82-1.66.1-.62.01-1.26-.25-1.83-.25-.57-.67-1.06-1.21-1.39-.53-.33-1.16-.5-1.79-.47-.43.03-.85.12-1.25.28-.76.35-1.35.98-1.64,1.76l-.26.67c.46.39.83.88,1.09,1.43.25.55.38,1.15.37,1.75l.65.18ZM157.26,14.82c.43-.03.85-.12,1.25-.28.76-.35,1.35-.98,1.64-1.76l.26-.67c-.46-.39-.83-.88-1.09-1.43-.25-.55-.38-1.15-.37-1.75l-.65-.23c-.38-.16-.79-.24-1.21-.24s-.83.08-1.21.24c-.39.18-.75.43-1.04.75-.42.46-.7,1.03-.8,1.64-.1.61-.01,1.24.24,1.81.26.57.68,1.04,1.21,1.38.53.33,1.15.5,1.77.49v.05Z"/><path class="cls-2" d="M155.42,39.11c-.57.12-1.09.4-1.49.82-.41.41-.68.94-.79,1.51-.11.57-.04,1.16.19,1.69.23.53.61.99,1.1,1.3.49.32,1.05.48,1.63.47.58,0,1.14-.19,1.62-.51.48-.33.85-.79,1.06-1.33.22-.54.26-1.13.15-1.7-.08-.38-.23-.73-.45-1.05-.22-.32-.49-.59-.82-.8-.32-.21-.68-.35-1.06-.42-.38-.07-.77-.06-1.14.02ZM155.01,37.09l.4-.09.21.75c.8-.08,1.61.09,2.33.47l.47-.62.34.24.35.21-.38.67c.63.52,1.1,1.21,1.35,1.99l.75-.11.08.4.09.4-.75.2c.07.8-.09,1.61-.47,2.33l.62.47-.23.34-.22.35-.7-.39c-.51.63-1.19,1.1-1.96,1.34l.11.77-.42.08-.39.09-.21-.77c-.8.07-1.61-.09-2.33-.47l-.47.63-.34-.23-.35-.22.39-.7c-.62-.5-1.08-1.17-1.34-1.92l-.78.11-.07-.42-.09-.39.75-.22c-.08-.8.08-1.61.44-2.33l-.63-.48.24-.34.22-.35.67.39c.53-.63,1.22-1.09,2-1.34l-.11-.75.42-.12ZM155.69,40.39c.32-.07.64-.04.94.08.3.12.56.32.74.59.18.27.28.58.29.9,0,.32-.09.64-.27.91s-.43.48-.73.61c-.3.13-.62.16-.94.1s-.61-.22-.84-.44c-.23-.23-.39-.52-.45-.83-.04-.21-.04-.42,0-.63.04-.21.12-.41.24-.58.12-.18.27-.33.44-.45.18-.12.37-.2.58-.25Z"/><path class="cls-1" d="M165,33.62c.2-.1.42-.18.65-.23.28-1.27,1.07-2.4,2.2-3.17,1.14-.77,2.55-1.13,3.96-1.01.17.01.32.08.44.19.12.11.18.26.19.41,0,.06,0,.13,0,.19-.26,1.32-1.02,2.52-2.16,3.37-1.13.85-2.56,1.31-4.03,1.28-.14-.01-.29.01-.42.06-.13.05-.24.14-.33.24.54,1.16,1.55,2.1,2.82,2.61,1.26.51,2.7.57,4.01.15,1.31-.41,2.4-1.27,3.04-2.39.65-1.12.81-2.42.45-3.64-.36-1.22-1.22-2.27-2.39-2.94-1.18-.67-2.58-.9-3.94-.66-1.36.24-2.57.95-3.38,1.98-.81,1.03-1.17,2.29-1,3.55h-.1ZM167.13,33.28c.26-.74.74-1.39,1.39-1.88.65-.49,1.45-.8,2.29-.9-.29.71-.79,1.34-1.43,1.82-.65.48-1.42.8-2.24.92v.04Z"/><path class="cls-1" d="M79.09,53.33c-.16-.46-.23-.95-.19-1.44.03-.47.16-.93.37-1.34.21-.42.51-.79.87-1.09l.62-.53c.6.33,1.26.53,1.94.58.68.05,1.36-.06,2-.3l.53.62c.31.35.55.76.7,1.2.15.44.21.91.18,1.38-.02.5-.15.99-.37,1.44-.32.64-.82,1.16-1.44,1.52-.62.35-1.33.51-2.04.46-.71-.05-1.39-.31-1.95-.75-.56-.44-.98-1.03-1.21-1.71v-.03ZM87.57,47.8l-.53-.6c.34-.6.54-1.26.59-1.94.04-.69-.06-1.37-.3-2.02l.6-.53c.54-.47,1.21-.77,1.91-.86.71-.09,1.43.03,2.07.35.64.32,1.17.82,1.52,1.44.35.62.52,1.33.47,2.05-.05.71-.31,1.4-.75,1.96-.44.56-1.03.99-1.71,1.21-.68.23-1.41.25-2.1.06-.69-.19-1.31-.58-1.77-1.12ZM83.12,43.48c.3.02.58.13.82.31.24.18.41.43.51.71.1.28.11.59.03.87-.08.29-.23.55-.46.75-.22.2-.5.33-.79.37-.29.04-.59,0-.86-.13-.27-.13-.49-.33-.65-.59-.15-.26-.23-.55-.21-.85,0-.21.05-.41.13-.6.08-.19.2-.36.35-.5.15-.14.33-.25.52-.32.19-.07.4-.1.61-.09v.07ZM74.13,47.71c-.48-.23-.91-.57-1.25-.99-.34-.42-.58-.91-.7-1.43-.12-.52-.13-1.07-.02-1.59.11-.53.34-1.02.67-1.45.33-.43.75-.77,1.23-1.02.48-.24,1.01-.38,1.54-.39.54-.01,1.07.09,1.56.31.49.22.93.55,1.27.95l.53.6c-.34.6-.54,1.26-.59,1.94-.04.69.06,1.37.3,2.02l-.6.53c-.54.46-1.21.74-1.91.82-.7.08-1.42-.06-2.04-.38v.07ZM81.32,40.69l-.53-.6c-.31-.35-.55-.76-.7-1.21-.15-.44-.21-.92-.18-1.38.03-.5.15-.99.37-1.44.32-.64.82-1.16,1.44-1.52s1.33-.51,2.04-.46c.71.05,1.39.31,1.95.75.56.44.98,1.03,1.21,1.71.23.68.26,1.41.07,2.1-.19.69-.58,1.31-1.12,1.77l-.6.53c-.6-.34-1.26-.54-1.94-.59-.68-.05-1.36.04-2,.27v.07ZM88.52,55.27c.4-.8.64-1.67.7-2.56.01-.18.01-.36,0-.55,1.07.16,2.17.06,3.19-.29,1.26-.42,2.36-1.2,3.18-2.25.81-1.05,1.3-2.31,1.39-3.64.09-1.32-.21-2.65-.86-3.8-.66-1.15-1.64-2.08-2.83-2.68-.97-.48-2.04-.73-3.12-.72v-.55c.12-1.55-.3-3.1-1.19-4.38-.89-1.28-2.2-2.2-3.7-2.62-1.5-.42-3.1-.3-4.52.34-1.42.64-2.58,1.75-3.27,3.14-.4.8-.64,1.67-.7,2.56-.01.19-.01.37,0,.56-1.07-.17-2.17-.07-3.19.27-1.26.42-2.36,1.2-3.18,2.25-.81,1.05-1.3,2.31-1.39,3.64-.09,1.32.21,2.65.86,3.8.66,1.15,1.64,2.08,2.83,2.68.97.49,2.04.73,3.12.72v.55c-.12,1.55.3,3.1,1.19,4.38.89,1.28,2.2,2.2,3.7,2.62s3.1.3,4.52-.34c1.42-.64,2.58-1.75,3.27-3.14Z"/><path class="cls-2" d="M170.19,60c-.12-.2-.2-.42-.24-.65-1.4-.27-2.65-1.06-3.5-2.19-.86-1.14-1.25-2.55-1.12-3.96.01-.17.09-.33.21-.45.12-.12.29-.19.46-.2h.21c1.46.25,2.78,1.01,3.72,2.15.94,1.13,1.44,2.57,1.41,4.04-.01.14,0,.29.07.42.06.13.15.25.26.33,1.28-.54,2.31-1.55,2.87-2.81.56-1.26.62-2.69.17-4-.46-1.31-1.39-2.39-2.62-3.04-1.23-.65-2.66-.81-4.01-.45-1.34.36-2.5,1.21-3.24,2.39-.74,1.17-.99,2.58-.73,3.94.27,1.36,1.04,2.56,2.17,3.37,1.13.81,2.52,1.17,3.9,1v.12ZM169.84,57.87c-.82-.25-1.54-.74-2.09-1.39-.55-.65-.89-1.45-1-2.29.79.29,1.5.78,2.04,1.43.54.65.9,1.42,1.04,2.25Z"/><path class="cls-1" d="M116.43,61.86c-.13-.18-.24-.38-.32-.59-1.29-.04-2.53-.6-3.47-1.58-.94-.98-1.51-2.31-1.62-3.72-.02-.17.03-.34.12-.48.09-.14.23-.24.38-.27h.17c1.34,0,2.64.53,3.66,1.49,1.02.96,1.69,2.29,1.89,3.76,0,.15.05.29.12.41.07.12.17.22.29.29,1.07-.74,1.84-1.9,2.17-3.24.32-1.34.18-2.77-.42-4-.59-1.23-1.58-2.16-2.78-2.62-1.19-.46-2.5-.4-3.65.16-1.15.56-2.08,1.58-2.58,2.85-.5,1.27-.54,2.71-.12,4.02.42,1.31,1.28,2.39,2.4,3.04,1.12.64,2.42.8,3.64.43l.11.06ZM115.77,59.81c-.77-.1-1.5-.45-2.09-1.01-.59-.55-1.02-1.29-1.23-2.11.75.15,1.46.52,2.04,1.07.58.55,1.02,1.26,1.28,2.05Z"/><path class="cls-1" d="M151.89,57.77s0-.08,0-.12c.02-.52-.07-1.03-.25-1.51l-.08-.17c-.21-.44-.51-.82-.87-1.11-.03-.03-.06-.06-.09-.08-.45-.35-.98-.53-1.52-.53-.51-.02-1.02.11-1.48.38-.46.27-.84.67-1.12,1.16-.28.49-.44,1.05-.47,1.63-.03.58.07,1.16.3,1.68.23.52.57.97.99,1.3.43.33.92.53,1.43.58s1.03-.05,1.5-.3c.47-.24.87-.62,1.17-1.09.34-.53.51-1.18.49-1.84ZM150.44,53.04c.1-.03.19-.09.27-.17.16-.17.28-.38.36-.62.07-.27.07-.55,0-.81,0-.06,0-.11,0-.17-.02-.06-.05-.11-.09-.16-.04-.04-.09-.08-.14-.1-.31-.12-.71.24-.88.8-.06.24-.06.5,0,.74,0,.08.03.16.07.23.02.06.05.11.09.16.04.04.09.08.14.1.06.02.12.02.19,0ZM153.37,56.05c-.09.16-.13.35-.11.54v.14c.05.11.12.21.21.29.19.14.41.24.64.28.23.04.46.03.69-.03h.08c.71-.2,1.18-.77,1.1-1.26,0-.05,0-.1,0-.15-.15-.22-.36-.39-.6-.49-.24-.1-.49-.11-.74-.05h-.19c-.38.09-.73.31-1,.63l-.11.11ZM154.61,59.75c.04-.12.04-.25,0-.38-.03-.06-.07-.12-.11-.18-.15-.19-.34-.34-.55-.43-.21-.09-.44-.11-.66-.07-.1.03-.19.07-.28.14-.04.02-.07.05-.1.09-.03.04-.05.08-.06.12-.04.12-.04.26,0,.38l.12.21c.15.18.35.32.56.39.47.2.97.2,1.08-.21v-.06ZM152.73,52.23c.56-.5,1.25-.57,1.54-.2.03.04.06.09.08.14.05.28.04.56-.04.83-.08.27-.23.5-.42.68-.03.04-.06.07-.09.11-.29.3-.66.48-1.05.51h-.13c-.09,0-.17-.02-.25-.06-.08-.04-.15-.1-.21-.17v-.11s0-.09,0-.14c0-.08,0-.15,0-.23.02-.25.08-.5.18-.73.11-.23.25-.42.43-.58l-.04-.06Z"/><path class="cls-2" d="M78.6,82.95c1.05.32,2.12.58,3.19.78,1.08.2,2.17.34,3.27.4l-.69,3.73c-2.22.3-4.47-.11-6.45-1.17l.68-3.74ZM72.53,80.07c.99.69,2.05,1.28,3.15,1.77l-.5,2.76c-1.23-1.27-2.14-2.81-2.65-4.5v-.03ZM79.13,79.9l1.28-6.99c2.19.13,4.35.52,6.45,1.18l-1.27,6.99c-1.1-.06-2.19-.18-3.27-.37-1.08-.19-2.15-.45-3.19-.78v-.03ZM72.24,75.03c.12-.65,1.81-1.71,5.05-2.04l-1.04,5.76c-2.92-1.45-4.13-3.04-4.01-3.68v-.03ZM90.33,72.16l.5-2.76c1.24,1.27,2.15,2.83,2.65,4.53-.97-.68-2.01-1.27-3.09-1.76h-.06ZM78.37,67.12l-.5,2.76c-1.21.07-2.41.25-3.58.55,1.07-1.42,2.47-2.55,4.09-3.3h0ZM81.65,66.16c2.22-.29,4.47.12,6.45,1.18l-.68,3.74c-2.09-.65-4.26-1.05-6.45-1.18l.68-3.74ZM93.77,78.96c-.12.65-1.81,1.71-5.05,2.04l1.04-5.76c2.92,1.5,4.13,3.08,4.01,3.73h0ZM87.64,86.89l.5-2.76c1.21-.07,2.41-.25,3.58-.55-1.07,1.43-2.47,2.57-4.09,3.32h0ZM96.77,79.51c.5-2.72.17-5.54-.93-8.08-1.1-2.54-2.93-4.7-5.26-6.2-2.33-1.5-5.05-2.28-7.82-2.23-2.77.05-5.46.91-7.74,2.49-2.28,1.58-4.04,3.79-5.05,6.37-1.02,2.58-1.25,5.4-.66,8.1.59,2.71,1.96,5.18,3.95,7.1s4.51,3.22,7.23,3.71c3.65.66,7.41-.15,10.46-2.26,3.05-2.11,5.14-5.34,5.81-8.99h0Z"/><path class="cls-1" d="M122.59,73.76c.79.83,1.33,1.86,1.57,2.98-.17-.26-.36-.51-.58-.73-.95-1.01-2.26-1.6-3.64-1.65h-.4c-1.21.12-2.39.45-3.48.99-.33.13-.69.18-1.05.12-.11-.01-.21-.04-.31-.09h-.07c-.11-.05-.21-.11-.3-.19-.09-.07-.18-.14-.25-.22-.09-.09-.17-.2-.23-.31-.07-.14-.12-.29-.17-.44-.03-.14-.03-.29,0-.43.03-.14.1-.28.19-.39,1.22-1.07,2.81-1.64,4.43-1.57,1.62.07,3.16.76,4.28,1.94ZM123.27,79.45c-.19-.18-.39-.34-.62-.47-.2-.13-.42-.23-.65-.3h-.1c-.24-.07-.49-.12-.74-.13-.66-.03-1.32.11-1.9.42-.83.52-1.75.89-2.71,1.11h-.27c-.51.03-1.01-.04-1.49-.23-.47-.19-.9-.47-1.25-.84-.19-.2-.35-.43-.49-.67-.42-.73-.56-1.57-.4-2.4.05.07.11.14.17.2.15.16.31.3.49.43.19.15.4.28.62.38l.11.04c.23.1.48.17.73.21.66.1,1.34.02,1.96-.24.9-.43,1.87-.71,2.86-.82h.28c.94.03,1.83.42,2.47,1.1.27.29.49.63.64.99.17.39.27.8.29,1.23ZM122.29,80.96c.15.24.22.51.21.79-.01.28-.1.55-.27.77-.35.44-.79.8-1.3,1.06-1.12.58-2.39.81-3.64.67s-2.43-.67-3.39-1.49c-.16-.14-.31-.28-.45-.43-.66-.7-1.16-1.55-1.44-2.47.09.12.19.24.3.35.52.57,1.16,1.01,1.87,1.3.72.29,1.48.41,2.25.35h.38c1.17-.23,2.28-.67,3.3-1.29.31-.16.66-.24,1.01-.22.1,0,.2.02.3.05h.07c.11.04.21.09.31.16.14.08.27.18.38.3.04.03.08.07.12.11ZM112.65,72.1c-.24.21-.46.44-.67.67-1.3,1.49-2.01,3.41-1.98,5.38.03,1.98.8,3.87,2.15,5.32.18.19.38.38.58.55,1.35,1.19,3.07,1.88,4.86,1.97,1.8.09,3.57-.43,5.03-1.48l.09-.07c.85-.62,1.57-1.4,2.11-2.29.55-.9.91-1.89,1.07-2.93.16-1.04.12-2.09-.13-3.11-.25-1.02-.7-1.98-1.32-2.83-.19-.26-.4-.51-.63-.75-.18-.2-.38-.39-.57-.56-1.44-1.25-3.28-1.95-5.19-1.97-1.91-.02-3.76.63-5.23,1.85l-.2.25Z"/><path class="cls-2" d="M138.28,62.42c-.18-.13-.34-.28-.48-.46-1.4.26-2.85.04-4.09-.62-1.23-.66-2.15-1.7-2.59-2.94-.06-.15-.05-.31.01-.45.07-.14.19-.26.34-.33l.19-.07c1.44-.3,2.96-.12,4.27.5,1.31.62,2.34,1.65,2.89,2.9.04.13.12.24.23.33.11.09.24.16.38.19.97-.91,1.52-2.12,1.54-3.38.03-1.26-.47-2.49-1.4-3.43-.93-.94-2.21-1.53-3.6-1.64-1.38-.11-2.76.25-3.86,1.03-1.1.77-1.84,1.9-2.06,3.14-.23,1.25.08,2.53.85,3.58.77,1.05,1.95,1.8,3.3,2.09,1.35.29,2.78.11,3.99-.51l.07.07ZM137.11,60.75c-.85.08-1.71-.07-2.47-.43-.76-.36-1.38-.91-1.8-1.6.84-.03,1.68.13,2.43.49.75.36,1.38.88,1.84,1.53Z"/><path class="cls-1" d="M166.04,75c.41-.54.74-1.22.96-2-.32.27-.65.49-1,.66l.04,1.34Z"/><path class="cls-1" d="M162.45,74.16c-.48.03-.97.03-1.45,0l.09,1.69c.96.25,1.98.19,2.91-.17l-.1-1.68c-.48.08-.96.13-1.45.16Z"/><path class="cls-1" d="M160,76l-.1-1.5c-.65-.11-1.29-.27-1.9-.5.48.81,1.17,1.5,2,2Z"/><path class="cls-1" d="M168,70.35c0-.35-.98-.99-3-1.35l.22,3c1.93-.64,2.8-1.32,2.78-1.65Z"/><path class="cls-1" d="M167,68c-.49-.41-1.18-.75-2-1l.1.74c.65.05,1.29.14,1.9.26Z"/><path class="cls-1" d="M161.18,72.97c.94.08,1.89.01,2.82-.2l-.18-3.73c-.94-.09-1.89-.02-2.82.2l.18,3.73Z"/><path class="cls-1" d="M161,66.32l.1,1.68c.48-.08.96-.13,1.45-.16.48-.03.97-.03,1.45,0l-.09-1.69c-.96-.25-1.98-.19-2.91.17Z"/><path class="cls-1" d="M157,71.65c0,.35.65.99,2,1.35l-.15-3c-1.28.53-1.86,1.32-1.85,1.65Z"/><path class="cls-1" d="M158.96,67c-.41.54-.74,1.22-.96,2,.32-.27.65-.49,1-.66l-.04-1.34Z"/><path class="cls-1" d="M36.14,93.92l-.13-.11c-.59-.42-1.26-.7-1.97-.81h-.38c-.71-.03-1.43.1-2.09.38h-.17c-.78.38-1.43,1.01-1.86,1.81-.55.9-.82,1.97-.76,3.05.06,1.08.43,2.11,1.08,2.94.8,1.03,1.94,1.68,3.18,1.8,1.24.12,2.47-.29,3.43-1.15.77-.69,1.31-1.63,1.54-2.68.23-1.05.15-2.15-.25-3.15-.33-.86-.9-1.59-1.63-2.08ZM29.35,92.37c.03-.17.03-.35,0-.52-.07-.37-.23-.71-.46-.99-.23-.33-.54-.57-.9-.7h-.25c-.09-.01-.18,0-.27.02-.09.03-.17.07-.23.14-.4.34-.27,1.2.23,1.88.22.29.51.52.84.66h.33c.09.02.18.01.26-.01.09-.02.17-.07.24-.12.13-.08.23-.19.29-.34h-.08ZM35.39,90.47c.05.13.12.26.21.36.09.1.21.18.33.23h.42c.1.01.2.01.29,0,.32-.17.6-.4.83-.69.23-.29.4-.63.5-1v-.14c.33-1.17,0-2.26-.61-2.58h-.21c-.61,0-1.32.54-1.71,1.47-.05.07-.08.14-.1.23-.2.62-.2,1.3,0,1.92.03.08.07.15.13.2h-.08ZM40.78,91.57c-.12-.15-.3-.24-.48-.25h-.29c-.35.06-.68.22-.96.47-.28.24-.49.56-.63.91-.02.16-.02.33,0,.5,0,.15.04.29.13.41.12.14.28.23.46.25.12.02.24.02.36,0,.35-.04.68-.18.96-.41.61-.63.86-1.45.54-1.88h-.08ZM30.33,88.41c-.13-1.2.33-2.26,1.02-2.4.08-.02.15-.02.23,0,.61,0,1.19.79,1.44,1.85,0,.07,0,.15,0,.23.12.65.03,1.33-.25,1.92l-.13.2c-.15.23-.37.39-.63.45h-.38c-.11-.02-.21-.07-.29-.14-.29-.22-.54-.51-.72-.84-.18-.33-.3-.7-.34-1.08l.04-.2Z"/><path class="cls-1" d="M53.96,67.69c.4.73.59,1.57.55,2.42-.04.85-.31,1.66-.78,2.34-.47.68-1.11,1.2-1.85,1.49-.74.29-1.54.34-2.31.15-.77-.2-1.46-.63-2-1.25-.54-.62-.9-1.39-1.03-2.23-.13-.84-.03-1.69.29-2.47.32-.77.84-1.43,1.51-1.89.46-.3.97-.51,1.5-.6.53-.09,1.07-.07,1.59.06.52.13,1.01.38,1.45.72.43.34.8.77,1.08,1.26ZM47.63,63.73l-1.16.79.48.96c-.16.14-.3.3-.44.46l-.88-.59-.79,1.21.79.71c-.11.21-.2.43-.28.66l-1.02-.17-.31,1.44.99.32v.66l-1,.26.24,1.44,1.02-.12c.07.23.15.47.24.69l-.83.65.74,1.25.91-.53c.13.17.27.33.42.49l-.54.95,1.12.86.66-.86.62.29-.16,1.11,1.34.33.29-1.08c.2.01.4.01.6,0l.24,1.09,1.34-.24-.09-1.12c.21-.07.42-.16.62-.26l.62.91,1.18-.79-.51-.98c.16-.14.31-.3.46-.46l.88.59.8-1.21-.8-.71c.09-.22.19-.43.27-.66l1.03.19.31-1.44-1-.32c.01-.22.01-.44,0-.66l1-.26-.23-1.44-1.03.1c-.07-.23-.15-.45-.23-.68l.83-.65-.74-1.27-.91.53c-.13-.17-.27-.34-.42-.49l.54-.94-1.12-.86-.66.85c-.2-.12-.4-.22-.62-.3l.16-1.09-1.34-.33-.29,1.06c-.21-.01-.41-.01-.62,0l-.23-1.08-1.34.24.09,1.09c-.21.07-.43.16-.63.26l-.6-.86ZM51.83,69.14c.22.38.29.84.19,1.28-.1.44-.35.82-.7,1.05-.36.24-.78.31-1.19.21-.41-.1-.76-.37-.98-.76-.11-.19-.18-.4-.22-.62-.03-.22-.03-.44.02-.66.05-.22.13-.42.25-.6.12-.18.27-.33.45-.45.18-.12.37-.2.58-.23.2-.04.41-.03.61.02.2.05.39.14.56.27.17.13.31.29.42.48ZM48.02,71.75c.32.53.77.95,1.31,1.21.54.25,1.13.33,1.71.22.58-.11,1.11-.4,1.54-.83.43-.44.72-1,.85-1.61s.09-1.26-.13-1.85c-.21-.59-.58-1.1-1.06-1.46-.48-.36-1.05-.57-1.64-.58-.59-.02-1.17.15-1.66.49-.66.46-1.13,1.18-1.31,2-.17.83-.04,1.69.38,2.41Z"/><path class="cls-2" d="M73,96.96c-.23-.94-.72-1.8-1.41-2.48-.99-.94-2.32-1.47-3.69-1.48-1.38,0-2.7.51-3.7,1.45-.08.1-.13.22-.16.34-.02.12-.02.25.01.37.04.13.1.26.17.38.06.09.12.18.2.26l.23.18.25.15c.09.01.18.01.27,0,.3.03.61-.02.89-.14.92-.48,1.91-.8,2.94-.93h.08c.08,0,.17,0,.25,0,1.18,0,2.31.46,3.15,1.28.19.19.36.4.52.61Z"/><path class="cls-2" d="M71.79,98.89c.19.1.37.23.53.38,0-.39-.08-.77-.24-1.13-.15-.3-.35-.57-.59-.81-.28-.27-.61-.49-.97-.64-.36-.15-.75-.22-1.14-.22h-.27c-.85.13-1.66.41-2.42.81-.52.23-1.09.32-1.66.26-.22-.03-.43-.08-.63-.15h-.08c-.19-.08-.38-.18-.55-.29l-.42-.35-.14-.17c-.11.7.03,1.42.41,2.02.13.2.27.38.44.54.31.3.68.53,1.09.68.41.14.84.2,1.28.16h.2c.81-.21,1.58-.55,2.28-1.02.49-.27,1.04-.41,1.6-.4.22,0,.44.03.65.08h.08c.19.07.38.15.56.25Z"/><path class="cls-2" d="M71.76,101.28c0-.25-.08-.49-.23-.7-.04-.04-.09-.08-.14-.11-.1-.1-.21-.18-.34-.25-.08-.06-.17-.1-.27-.12h-.25c-.3,0-.6.07-.86.22-.86.56-1.81.97-2.81,1.2h-.32c-.65.06-1.3-.02-1.91-.23-.61-.22-1.16-.57-1.62-1.02l-.27-.28c.27.78.71,1.49,1.31,2.06l.39.35c.84.67,1.86,1.08,2.93,1.17,1.07.09,2.15-.14,3.09-.66.42-.23.78-.55,1.07-.93.15-.2.23-.45.23-.7Z"/><path class="cls-1" d="M143.32,79.69c-.16.63-.13,1.29.08,1.9.21.61.6,1.15,1.12,1.54.52.39,1.14.62,1.78.65.64.04,1.29-.12,1.84-.45.56-.33,1-.82,1.28-1.4.28-.58.38-1.24.29-1.88-.09-.64-.37-1.24-.8-1.73-.43-.48-.99-.83-1.62-.99-.84-.21-1.73-.08-2.48.36-.75.44-1.29,1.16-1.51,2ZM141.12,79.1l.09-.45.85.17c.33-.85.89-1.59,1.62-2.14l-.38-.75.4-.23.39-.26.49.72c.82-.36,1.73-.48,2.62-.35l.27-.81.45.14.45.11-.18.84c.84.33,1.57.9,2.1,1.64l.76-.39.23.39.25.39-.73.51c.35.8.48,1.69.36,2.56l.82.27-.13.44-.11.45-.87-.17c-.33.84-.88,1.57-1.6,2.11l.39.77-.39.23-.39.26-.51-.74c-.81.35-1.69.47-2.56.35l-.29.84-.43-.14-.45-.11.17-.87c-.84-.32-1.58-.87-2.11-1.6l-.78.39-.23-.39-.24-.39.72-.5c-.38-.84-.51-1.77-.36-2.68l-.82-.27.12-.35ZM144.75,80.05c.09-.35.28-.66.54-.9.27-.24.6-.39.95-.44.35-.05.71,0,1.03.16.32.16.59.4.77.71.18.31.27.66.25,1.02-.02.36-.15.7-.36.99-.21.29-.51.5-.85.62s-.7.13-1.04.04c-.23-.06-.45-.17-.64-.31-.19-.15-.35-.33-.47-.54-.12-.21-.2-.44-.23-.68-.03-.24-.01-.48.05-.72v.05Z"/><path class="cls-1" d="M99.53,106.4c-.25.19-.54.31-.85.36-.1.02-.2.02-.3,0-.16-.01-.3-.09-.41-.21-.07-.1-.1-.22-.09-.35,0-.14.03-.27.09-.39.13-.29.33-.54.59-.72.26-.19.55-.31.87-.34.09,0,.18,0,.27,0,.16.02.3.09.41.21.27.36,0,1.03-.57,1.45ZM95.73,113.13c-.44.32-.94.56-1.47.69-.53.13-1.08.16-1.63.08-.54-.08-1.06-.26-1.53-.54-.47-.28-.88-.64-1.21-1.08-.53-.7-.82-1.56-.82-2.43s.29-1.73.82-2.43c.42-.62,1.02-1.1,1.72-1.37l.16-.05h.09c.59-.21,1.22-.29,1.84-.23h.32c.62.11,1.21.37,1.72.74l.06.06.12.08c.6.47,1.04,1.1,1.27,1.82.29.83.31,1.74.04,2.58-.27.84-.8,1.58-1.52,2.1ZM89.28,105.46c-.1-.02-.2-.04-.29-.08-.28-.13-.53-.33-.71-.57-.43-.57-.49-1.28-.13-1.54.07-.04.14-.07.22-.09.08-.02.16-.02.24,0,.07,0,.14.03.21.05.3.12.56.32.76.57.2.25.33.55.38.86.03.14.03.29,0,.43-.03.11-.1.21-.18.28-.07.05-.15.08-.23.09-.08.01-.17,0-.25-.01ZM91.92,100h.19c.55.07,1.03.71,1.21,1.58v.18c.07.53-.04,1.07-.31,1.54l-.11.15c-.14.19-.36.31-.59.35h-.16l-.17-.05c-.09-.02-.18-.06-.26-.12-.25-.19-.45-.44-.6-.72-.15-.28-.24-.58-.26-.89v-.14c-.03-.95.43-1.79,1.04-1.86v-.04ZM95.44,102.06l.09-.17v-.04c.12-.32.34-.6.62-.79.28-.2.62-.31.96-.33h.18c.58.25.77,1.19.42,2.12v.12c-.11.29-.28.55-.5.77-.22.22-.48.4-.77.52-.15.05-.31.07-.47.04-.05,0-.11-.02-.16-.04-.22-.1-.39-.28-.47-.5l-.06-.16c-.11-.5-.07-1.01.13-1.48v-.04ZM101.51,103.68c-.37-.48-.9-.82-1.5-.96.17-.75.08-1.53-.25-2.23-.33-.69-.89-1.25-1.59-1.6-.22-.09-.46-.16-.7-.19-.5-.06-1.01,0-1.48.15-.48.16-.91.42-1.28.76-.25-.42-.59-.78-1-1.06-.41-.28-.87-.46-1.35-.54-.24-.03-.49-.03-.74,0-.77.13-1.48.51-2,1.08-.53.57-.84,1.3-.89,2.07-.59-.03-1.18.14-1.66.49-1.3.96-1.42,2.88-.29,4.38.25.35.57.66.92.91-.47.87-.72,1.84-.73,2.83-.01.99.22,1.96.67,2.84.45.88,1.11,1.64,1.92,2.22.81.57,1.75.95,2.74,1.09.99.14,2,.05,2.94-.28.94-.32,1.79-.87,2.48-1.59.69-.72,1.19-1.59,1.46-2.54.27-.95.31-1.95.11-2.92.43-.13.83-.33,1.19-.6.7-.5,1.2-1.22,1.41-2.05.11-.38.13-.78.06-1.17-.07-.39-.22-.76-.45-1.08v-.04Z"/><path class="cls-1" d="M138.84,119.22c.48-3.26.58-6.57.3-9.86l5.69.19c.94,3.23.83,6.67-.3,9.83l-5.69-.17h0ZM135.96,128.86c.81-1.63,1.45-3.34,1.91-5.1l4.22.13c-1.62,2.12-3.72,3.83-6.13,4.97ZM134.23,119.09l-10.67-.33c-.31-3.28-.2-6.59.32-9.85l10.65.33c.33,3.28.23,6.59-.3,9.85ZM128.47,130.39c-.99,0-2.88-2.29-4.16-7.04l8.75.27c-1.45,4.66-3.54,6.87-4.52,6.76h-.07ZM120.15,104.22l-4.22-.13c1.61-2.13,3.72-3.83,6.13-4.97-.79,1.63-1.4,3.34-1.84,5.1h-.07ZM115.35,123.08l4.22.13c.36,1.78.9,3.52,1.61,5.2-2.32-1.29-4.3-3.11-5.76-5.33h-.07ZM113.19,118.43c-.93-3.23-.83-6.68.3-9.85l5.76.19c-.49,3.25-.59,6.55-.3,9.83l-5.76-.17ZM129.48,97.6c.99,0,2.88,2.29,4.16,7.04l-8.75-.27c1.6-4.66,3.68-6.81,4.66-6.77h-.07ZM142.61,104.91l-4.22-.13c-.36-1.78-.9-3.51-1.61-5.18,2.38,1.26,4.4,3.08,5.9,5.31h-.07ZM129.65,93.01c-4.15-.13-8.25.98-11.78,3.18-3.53,2.2-6.32,5.4-8.02,9.19-1.71,3.79-2.25,8-1.56,12.1.69,4.1,2.58,7.9,5.42,10.93,2.85,3.02,6.53,5.14,10.58,6.07,4.05.93,8.29.64,12.17-.84,3.89-1.48,7.24-4.07,9.65-7.46,2.41-3.39,3.76-7.41,3.88-11.57.14-5.54-1.91-10.91-5.71-14.94-3.8-4.03-9.04-6.4-14.58-6.59l-.04-.06Z"/><path class="cls-2" d="M157.8,92c-.38.57-.66,1.26-.8,2,.31-.32.65-.59,1-.82l-.2-1.18Z"/><path class="cls-2" d="M161.2,92.49c.6-.14,1.2-.24,1.8-.31l-.46-2.15c-1.24-.12-2.48.17-3.54.84l.46,2.14c.57-.2,1.15-.38,1.74-.51Z"/><path class="cls-2" d="M164,91l.29.87c.57,0,1.14.05,1.71.13-.53-.44-1.22-.78-2-1Z"/><path class="cls-2" d="M157.01,97.03c.06.34.73.87,1.99.97l-.5-3c-1.11.84-1.55,1.69-1.49,2.03Z"/><path class="cls-2" d="M158,99c.53.88,1.22,1.57,2,2l-.29-1.74c-.57-.01-1.14-.1-1.71-.26Z"/><path class="cls-2" d="M163.21,94c-1.1.1-2.18.33-3.21.68l.79,3.32c.55-.04,1.09-.12,1.63-.24.54-.12,1.07-.26,1.59-.44l-.79-3.32Z"/><path class="cls-2" d="M165,100.42l-.46-1.42c-.57.14-1.15.25-1.74.34-.6.09-1.2.16-1.8.21l.46,1.44c1.24.08,2.48-.11,3.54-.56Z"/><path class="cls-2" d="M166.99,94.65c-.06-.23-.73-.58-1.99-.65l.5,2c1.11-.56,1.55-1.07,1.49-1.35Z"/><path class="cls-2" d="M166.2,99c.38-.57.66-1.26.8-2-.31.32-.65.59-1,.82l.2,1.18Z"/><path class="cls-2" d="M69.5,137.01c2.3-1.69,5.17-2.43,8-2.06,2.83.37,5.42,1.82,7.21,4.04,1.79,2.23,2.66,5.06,2.41,7.91-.24,2.85-1.58,5.49-3.72,7.38h-.12c-.28-.09-.53-.25-.73-.46-.2-.21-.34-.48-.41-.76-.93-2.82-2.84-5.22-5.38-6.76-2.54-1.54-5.54-2.13-8.48-1.66-.13.03-.26.07-.39.13-.32.13-.58.37-.74.68-.16.31-.2.66-.11,1,.69,2.78,2.39,5.21,4.76,6.82,2.37,1.61,5.26,2.28,8.1,1.89.24.39.54.74.88,1.05-2.5,1.19-5.35,1.4-8,.59-2.65-.81-4.9-2.57-6.31-4.96-1.41-2.38-1.88-5.2-1.32-7.91.56-2.71,2.12-5.11,4.36-6.74l-.03-.19ZM78.68,152.18c-1.72.07-3.41-.36-4.88-1.25-1.47-.89-2.64-2.19-3.38-3.74,1.69.03,3.35.51,4.8,1.38s2.64,2.12,3.46,3.61ZM84.14,157.39c2.25-1.61,3.98-3.86,4.96-6.45.98-2.59,1.16-5.42.53-8.12-.63-2.7-2.05-5.15-4.07-7.04-2.02-1.89-4.56-3.14-7.3-3.59-2.73-.45-5.54-.07-8.06,1.07-2.52,1.15-4.65,3.02-6.11,5.38-1.46,2.36-2.18,5.09-2.09,7.87.1,2.77,1.02,5.45,2.64,7.7,2.17,3,5.44,5.02,9.09,5.62,3.65.6,7.39-.27,10.41-2.42Z"/><path class="cls-1" d="M101.42,133.16c-.2-.14-.38-.32-.52-.53-.26-.41-.34-.9-.24-1.37l.09-.39c.35-.04.68-.16.97-.35.3-.19.56-.44.74-.74l.41.1c.23.05.46.14.65.27.2.13.37.3.5.5.13.21.22.44.26.68.07.36.03.73-.12,1.06-.15.33-.39.61-.7.81-.31.2-.67.3-1.04.29-.37,0-.72-.12-1.02-.33ZM103.22,128.35l-.41-.09c-.04-.35-.17-.68-.35-.98-.19-.29-.44-.53-.74-.71l.09-.41c.08-.35.27-.67.53-.92.26-.25.6-.41.95-.48.36-.06.73-.02,1.06.12.33.14.62.38.82.68.2.3.31.66.31,1.02s-.11.72-.31,1.02c-.21.31-.51.54-.86.68-.35.13-.73.16-1.09.07ZM100.05,127.91c.13-.08.28-.12.43-.12.15,0,.3.05.42.14s.22.21.27.35c.05.14.07.29.03.44-.03.15-.11.28-.22.38-.11.1-.25.17-.4.2-.15.03-.3,0-.44-.05-.14-.06-.26-.16-.34-.29-.06-.08-.1-.18-.11-.28-.02-.1-.02-.2,0-.3.02-.1.06-.19.12-.27.06-.08.13-.15.22-.2ZM97.64,132.28c-.36.07-.73.03-1.07-.11-.34-.14-.62-.38-.82-.69-.2-.3-.31-.66-.31-1.02s.11-.72.31-1.02c.2-.3.5-.53.84-.66.34-.13.71-.16,1.07-.08l.41.09c.04.35.17.68.35.98.19.29.44.53.74.71l-.09.41c-.06.35-.22.68-.46.94-.24.26-.56.44-.91.52l-.06-.06ZM98.45,127.25l-.41-.09c-.23-.05-.46-.14-.65-.27-.2-.13-.37-.3-.5-.5-.13-.21-.22-.44-.27-.68-.07-.36-.03-.72.11-1.06.14-.33.39-.61.7-.81.31-.2.67-.31,1.03-.31s.73.11,1.03.31c.2.14.38.32.52.52.13.2.21.42.26.65.04.23.03.47-.02.7l-.09.41c-.35.04-.69.16-.99.35-.3.22-.55.5-.72.83v-.06ZM105.83,131c-.08-.44-.24-.87-.49-1.25l-.16-.23c.49-.26.91-.63,1.22-1.08.38-.55.59-1.2.6-1.87s-.18-1.32-.55-1.89c-.37-.56-.89-1.01-1.51-1.27-.62-.27-1.31-.35-1.97-.24-.54.1-1.04.33-1.48.66l-.13-.25c-.25-.38-.58-.71-.96-.96-.56-.38-1.22-.59-1.89-.6-.68-.01-1.34.17-1.92.54-.57.36-1.02.88-1.29,1.49-.27.61-.36,1.29-.24,1.95.08.45.25.87.5,1.25.05.08.1.16.16.23-.4.23-.76.54-1.03.91-.28.37-.48.79-.59,1.23-.11.45-.13.91-.05,1.36.08.45.25.89.5,1.27.25.39.58.72.96.98.38.26.82.44,1.28.52.46.09.93.08,1.38-.01.45-.1.88-.28,1.26-.55.04.08.09.16.15.23.25.38.57.71.94.98.56.38,1.22.59,1.9.6.68.01,1.35-.18,1.92-.54.57-.36,1.02-.89,1.29-1.5.27-.62.35-1.3.23-1.96h-.03Z"/><path class="cls-2" d="M36.37,144.46c-.74-.05-1.46-.25-2.12-.58-.63-.32-1.19-.77-1.65-1.31-.46-.54-.8-1.17-1.01-1.85l-.39-1.18c.82-.64,1.48-1.45,1.95-2.38.47-.93.72-1.94.75-2.98l1.18-.38c.67-.23,1.38-.33,2.09-.28.71.05,1.4.24,2.03.56.66.33,1.25.79,1.73,1.35.7.82,1.15,1.83,1.28,2.91.13,1.07-.06,2.16-.55,3.13-.49.97-1.25,1.77-2.19,2.3-.94.53-2.02.77-3.1.69ZM33.61,129.34l-1.16.38c-.64-.82-1.45-1.49-2.37-1.95-.92-.47-1.94-.73-2.98-.75l-.39-1.17c-.34-1.03-.36-2.14-.07-3.18.29-1.04.88-1.98,1.7-2.68.82-.71,1.83-1.15,2.9-1.28,1.07-.13,2.16.06,3.13.55.96.49,1.76,1.25,2.29,2.19.53.94.77,2.02.69,3.1-.08,1.08-.48,2.11-1.14,2.96-.67.85-1.57,1.49-2.6,1.83ZM24.89,132.98c.2-.41.52-.74.92-.97.4-.22.85-.33,1.3-.29.45.03.89.2,1.24.48.36.28.63.66.77,1.09.14.43.15.9.03,1.34-.12.44-.37.83-.71,1.13-.34.3-.77.49-1.22.54-.45.06-.91-.02-1.31-.23-.27-.13-.51-.32-.71-.55-.2-.23-.35-.49-.45-.78-.1-.29-.13-.59-.11-.89.02-.3.1-.6.24-.87h.01ZM25.51,148.05c-.61.53-1.34.91-2.12,1.12-.78.21-1.6.25-2.39.11-.79-.14-1.55-.46-2.21-.93-.66-.47-1.21-1.08-1.6-1.78-.4-.71-.63-1.49-.69-2.29-.06-.81.06-1.62.36-2.37.29-.75.75-1.43,1.33-1.99.59-.56,1.29-.98,2.05-1.23l1.16-.38c.64.82,1.45,1.49,2.37,1.95.92.47,1.94.73,2.98.75l.39,1.17c.35,1.03.37,2.14.08,3.19-.3,1.05-.9,1.98-1.73,2.68h.01ZM19.94,133.84l-1.16.39c-.67.23-1.38.33-2.09.28-.71-.05-1.4-.24-2.03-.57-1.15-.56-2.06-1.5-2.59-2.66-.53-1.16-.63-2.47-.3-3.7.33-1.23,1.09-2.31,2.13-3.04,1.04-.73,2.31-1.08,3.58-.98.74.06,1.46.26,2.12.6.63.32,1.2.76,1.66,1.31.46.54.81,1.17,1.02,1.85l.38,1.16c-.82.63-1.49,1.44-1.95,2.37-.48.92-.74,1.94-.77,2.99h.01ZM44.5,132.38c-.88-1.03-1.95-1.88-3.15-2.49-.25-.13-.51-.25-.77-.35,1.27-2.07,1.77-4.52,1.39-6.92-.37-2.4-1.59-4.59-3.43-6.17-1.84-1.58-4.18-2.45-6.61-2.45-2.42,0-4.77.86-6.62,2.44-1.27,1.07-2.27,2.42-2.91,3.95-.23-.16-.47-.3-.73-.42-1.21-.6-2.53-.97-3.88-1.06-2.34-.14-4.65.53-6.55,1.89-1.9,1.37-3.27,3.35-3.89,5.61-.61,2.26-.43,4.67.52,6.81s2.61,3.89,4.7,4.95c.25.13.51.25.76.35-.84,1.41-1.34,2.99-1.45,4.63-.13,1.99.33,3.98,1.32,5.71.99,1.73,2.46,3.14,4.24,4.04,1.78.9,3.78,1.26,5.76,1.04,1.98-.23,3.85-1.03,5.38-2.31,1.28-1.06,2.27-2.41,2.91-3.95.25.15.48.29.73.41,1.21.61,2.53.97,3.88,1.08,2,.15,4-.31,5.75-1.29,1.75-.99,3.16-2.48,4.07-4.27.91-1.79,1.26-3.82,1.02-5.82s-1.06-3.88-2.37-5.41h-.06Z"/><path class="cls-1" d="M-1.03,167.36c-.58-1.28-.64-2.73-.19-4.07.45-1.33,1.39-2.44,2.63-3.11,1.24-.67,2.68-.84,4.04-.48,1.36.36,2.53,1.21,3.29,2.4-.07.13-.17.24-.29.32-.12.08-.27.12-.42.12-1.47.2-2.83.92-3.82,2.03-.99,1.11-1.56,2.53-1.6,4.02,0,.07,0,.13,0,.2.04.17.13.32.27.42.14.1.31.15.48.14,1.44-.07,2.8-.68,3.81-1.7,1.01-1.02,1.61-2.39,1.66-3.83.22-.07.42-.19.59-.33.38,1.35.24,2.79-.4,4.03-.64,1.24-1.72,2.2-3.03,2.68-1.31.48-2.76.45-4.05-.09-1.29-.54-2.33-1.55-2.91-2.82l-.07.06ZM7.28,164.24c-.12.85-.48,1.65-1.06,2.29-.57.64-1.32,1.1-2.16,1.31.16-.83.55-1.61,1.11-2.24.56-.64,1.29-1.11,2.1-1.37h0ZM10.33,162.02c-.59-1.25-1.54-2.3-2.72-3.01-1.19-.71-2.56-1.06-3.94-.99-1.38.07-2.71.54-3.83,1.36-1.11.82-1.96,1.96-2.43,3.26-.47,1.3-.54,2.71-.21,4.06.33,1.34,1.06,2.56,2.08,3.49,1.02.93,2.3,1.54,3.67,1.75,1.37.21,2.77,0,4.02-.59.83-.39,1.58-.94,2.2-1.62.62-.68,1.1-1.48,1.41-2.34.31-.87.45-1.78.41-2.7-.04-.92-.27-1.82-.66-2.65Z"/><path class="cls-1" d="M65.45,113.72c.84.1,1.64.44,2.29.98.65.54,1.12,1.27,1.36,2.08.24.81.23,1.67-.02,2.48-.25.81-.73,1.52-1.39,2.06-.66.54-1.46.86-2.3.95-.84.08-1.69-.08-2.44-.48-.75-.39-1.37-1-1.77-1.74-.41-.74-.58-1.58-.51-2.43.12-1.15.69-2.2,1.59-2.93.9-.73,2.05-1.08,3.2-.96ZM58.14,116.58l-.14,1.43,1.08.17c-.01.22-.01.44,0,.66l-1.03.39.42,1.43,1.08-.24c.1.22.22.44.35.64l-.81.74.93,1.16.89-.64.52.43-.46,1,1.29.7.6-.93c.23.09.46.16.69.21v1.1l1.44.16.19-1.09c.22-.01.44-.03.66-.07l.39,1.05,1.44-.42-.24-1.09c.22-.1.43-.21.63-.33l.76.82,1.15-.94-.65-.9c.15-.16.29-.32.42-.5l1.02.46.72-1.29-.95-.6c.09-.22.16-.45.22-.69h1.12l.14-1.43-1.11-.19c.01-.21.01-.43,0-.64l1.06-.39-.43-1.43-1.09.24c-.1-.21-.22-.43-.33-.64l.82-.76-.93-1.15-.91.66c-.17-.16-.33-.3-.5-.43l.46-1-1.31-.72-.59.94c-.23-.08-.46-.16-.69-.21v-1.12l-1.44-.14-.19,1.09c-.22-.01-.44-.01-.66,0l-.39-1.04-1.44.43.24,1.06-.65.34-.75-.8-1.15.93.63.9c-.16.16-.3.32-.43.5l-1.01-.46-.7,1.3.93.59c-.08.23-.16.46-.22.69l-1.11.06ZM65.17,116.37c.33.03.65.16.91.38.26.21.45.5.54.82.09.32.09.66-.01.98-.1.32-.3.6-.56.81s-.58.33-.92.36-.67-.05-.96-.22c-.29-.17-.53-.42-.67-.72-.15-.3-.2-.64-.15-.97.07-.43.3-.82.65-1.08.35-.26.79-.38,1.22-.32l-.04-.03ZM64.68,121.19c.63.06,1.26-.07,1.81-.37.55-.3,1.01-.75,1.3-1.3.3-.55.42-1.18.36-1.81-.06-.62-.31-1.22-.71-1.7-.4-.49-.93-.84-1.54-1.03-.6-.18-1.25-.18-1.85,0-.6.18-1.14.53-1.54,1.02s-.65,1.07-.72,1.7c-.04.42,0,.84.12,1.25.12.4.32.78.59,1.11.27.33.6.6.97.8.37.2.78.33,1.2.37v-.03Z"/><path class="cls-1" d="M98.86,155.87c.02-1.83.75-3.59,2.03-4.9,1.28-1.31,3.01-2.08,4.84-2.15,1.83-.07,3.62.57,4.99,1.78,1.37,1.21,2.23,2.9,2.39,4.73l-.07.05c-.16.11-.34.18-.52.19-.19.02-.38,0-.55-.08h-.06c-1.81-.61-3.79-.55-5.56.17-1.77.72-3.23,2.04-4.12,3.74-.04.08-.07.16-.08.25-.06.22-.03.44.07.64.1.2.27.36.47.44,1.7.71,3.61.77,5.35.16,1.74-.61,3.2-1.83,4.09-3.45.29.03.59.01.88-.05-.35,1.75-1.34,3.3-2.77,4.35-1.43,1.06-3.21,1.54-4.99,1.35-1.77-.19-3.41-1.03-4.59-2.37-1.18-1.33-1.82-3.06-1.79-4.84v-.02ZM110.22,156.97c-.62.91-1.5,1.62-2.53,2.04-1.02.42-2.15.52-3.23.3.67-.87,1.55-1.54,2.56-1.95,1.01-.41,2.11-.55,3.2-.39ZM115,156.16c.03-1.78-.47-3.53-1.43-5.03-.96-1.5-2.35-2.68-3.98-3.38-1.63-.71-3.44-.92-5.19-.6-1.75.32-3.37,1.15-4.65,2.38-1.28,1.24-2.17,2.82-2.54,4.56-.38,1.74-.23,3.55.42,5.21.65,1.66,1.78,3.08,3.24,4.1,1.46,1.01,3.19,1.57,4.97,1.6,1.18.02,2.36-.19,3.46-.62,1.1-.43,2.1-1.08,2.95-1.9.85-.82,1.53-1.8,2-2.89.47-1.08.72-2.25.74-3.43Z"/><path class="cls-2" d="M41.96,157c.19.12.35.27.49.45,1.24-.45,2.58-.38,3.77.2,1.19.58,2.15,1.62,2.68,2.92.07.16.08.33.03.5-.04.16-.14.3-.28.4-.04.05-.1.08-.16.09-1.27.5-2.66.48-3.92-.05-1.26-.53-2.31-1.53-2.96-2.84-.05-.13-.14-.25-.25-.33-.11-.09-.23-.14-.36-.16-.76,1.11-1.12,2.49-.99,3.88.13,1.38.73,2.66,1.68,3.58.95.92,2.18,1.41,3.44,1.37,1.26-.04,2.47-.61,3.37-1.58.9-.98,1.43-2.29,1.48-3.68.05-1.39-.37-2.75-1.19-3.81-.82-1.06-1.98-1.73-3.23-1.89-1.26-.16-2.52.21-3.54,1.04l-.07-.07ZM43.22,158.7c.75-.17,1.53-.1,2.25.21.72.3,1.34.82,1.8,1.5-.75.13-1.52.04-2.23-.26-.71-.3-1.34-.8-1.82-1.45Z"/><path class="cls-1" d="M73.37,172.37c.47.99,1.05,1.93,1.74,2.78l-1.63,1c-.85-.73-1.45-1.7-1.73-2.78l1.63-.99h-.01ZM72.4,169.17c.07.6.2,1.19.4,1.76l-1.21.74c.06-.89.33-1.75.81-2.51ZM74.68,171.56l3.02-1.86c.69.85,1.27,1.79,1.73,2.78l-3.02,1.86c-.34-.43-.66-.87-.95-1.33-.29-.46-.55-.95-.78-1.45ZM74.18,167.4c.27-.17,1.24.1,2.45,1.19l-2.48,1.52c-.43-1.56-.24-2.54.03-2.71ZM81.31,173.13l1.21-.75c-.06.89-.33,1.75-.81,2.51-.07-.6-.2-1.2-.4-1.78h0ZM79.17,166.95l-1.2.74c-.44-.43-.92-.82-1.44-1.15.9-.08,1.8.06,2.64.4ZM80.61,167.85c.85.72,1.45,1.69,1.73,2.77l-1.61,1c-.46-.99-1.04-1.93-1.73-2.78l1.61-.99ZM79.92,176.59c-.27.17-1.24-.1-2.45-1.19l2.48-1.52c.45,1.66.26,2.59-.01,2.77v-.06ZM74.93,176.98l1.2-.74c.44.43.92.82,1.44,1.15-.89.08-1.79-.06-2.62-.4h-.01ZM80.69,177.88c1.18-.72,2.11-1.78,2.68-3.04.57-1.25.76-2.65.54-4.01-.22-1.36-.85-2.62-1.79-3.63s-2.17-1.71-3.52-2.03c-1.35-.32-2.76-.22-4.06.26-1.3.48-2.42,1.34-3.23,2.46-.81,1.12-1.26,2.45-1.31,3.83-.05,1.38.32,2.74,1.05,3.91.48.79,1.11,1.48,1.86,2.03.75.54,1.6.94,2.5,1.15.9.21,1.84.25,2.75.1.92-.15,1.79-.48,2.58-.97l-.06-.06Z"/></g></svg>